<svg xmlns="http://www.w3.org/2000/svg" viewBox="0 0 153.703 223.614"><defs><style>.cls-1{fill:#222023;}.cls-2{fill:#a59aa5;}.cls-3{fill:#c2b8c2;}.cls-4{fill:#dbd5db;}.cls-5{fill:#fdc72f;}.cls-6{fill:#ffd56c;}.cls-7,.cls-8,.cls-9{fill:none;stroke:#fff;}.cls-7{stroke-miterlimit:10;stroke-width:2.205px;}.cls-8,.cls-9{stroke-linecap:round;stroke-linejoin:round;}.cls-8{stroke-width:13.138px;}.cls-9{stroke-width:9.032px;}</style></defs><title>Asset 10</title><g id="Layer_2" data-name="Layer 2"><g id="OBJECTS"><path class="cls-1" d="M59.725,197.386h33.89a0,0,0,0,1,0,0v11.921a14.307,14.307,0,0,1-14.307,14.307H74.033a14.307,14.307,0,0,1-14.307-14.307V197.386A0,0,0,0,1,59.725,197.386Z"/><path class="cls-2" d="M49.8,160.553h54.04a0,0,0,0,1,0,0v39.179A10.767,10.767,0,0,1,93.071,210.5H60.565A10.767,10.767,0,0,1,49.8,199.733v-39.18A0,0,0,0,1,49.8,160.553Z"/><path class="cls-3" d="M104.01,183.6H49.25a6.51,6.51,0,0,1-6.51-6.509h0a6.51,6.51,0,0,1,6.51-6.51h54.76a6.509,6.509,0,0,1,6.509,6.51h0A6.509,6.509,0,0,1,104.01,183.6Z"/><path class="cls-4" d="M71.194,183.6H59.725a6.509,6.509,0,0,1-6.509-6.509h0a6.509,6.509,0,0,1,6.509-6.51H71.194a6.51,6.51,0,0,1,6.51,6.51h0A6.51,6.51,0,0,1,71.194,183.6Z"/><path class="cls-3" d="M104.01,203.336H49.25a6.51,6.51,0,0,1-6.51-6.51h0a6.51,6.51,0,0,1,6.51-6.51h54.76a6.51,6.51,0,0,1,6.509,6.51h0A6.51,6.51,0,0,1,104.01,203.336Z"/><path class="cls-4" d="M65.788,203.336h-.657a6.51,6.51,0,0,1-6.51-6.51h0a6.51,6.51,0,0,1,6.51-6.51h.657a6.51,6.51,0,0,1,6.51,6.51h0A6.51,6.51,0,0,1,65.788,203.336Z"/><path class="cls-5" d="M153.7,71.031C153.7,31.8,119.3,0,76.851,0S0,31.8,0,71.031C0,94.539,12.359,115.376,31.4,128.3l-.005,0s8.925,4.906,9.917,18.213v9.559c0,4.485,3.934,8.121,8.787,8.121h53.616c4.853,0,8.787-3.636,8.787-8.121v-9.643c1.019-13.258,9.748-18.085,9.748-18.085l0,0C141.316,115.423,153.7,94.566,153.7,71.031Z"/><circle class="cls-6" cx="77.734" cy="77.706" r="55.516" transform="translate(-14.753 137.095) rotate(-77.695)"/><path class="cls-7" d="M68.745,164.2V84.12A10.727,10.727,0,0,0,58.018,73.394h0A10.727,10.727,0,0,0,47.291,84.12v5.994a10.727,10.727,0,0,0,10.727,10.727l18.519.05"/><path class="cls-7" d="M84.515,164.2V84.12A10.726,10.726,0,0,1,95.241,73.394h0A10.727,10.727,0,0,1,105.968,84.12v5.994a10.727,10.727,0,0,1-10.727,10.727l-19.941.05"/><path class="cls-8" d="M31.046,37.389a60.47,60.47,0,0,1,18.5-15.2"/><path class="cls-9" d="M18.792,87.742a60.475,60.475,0,0,1-1.265-12.336"/><path class="cls-9" d="M137.941,75.406a60.252,60.252,0,0,1-2.227,16.28"/></g></g></svg>