<svg xmlns="http://www.w3.org/2000/svg" viewBox="0 0 171.669 95.015"><defs><style>.cls-1{isolation:isolate;}.cls-2{fill:#bbe4f3;}.cls-3{fill:#fffdf6;}.cls-4{fill:#797a9d;}.cls-5,.cls-8,.cls-9{fill:#5e2a15;}.cls-6{fill:#dbd5a5;}.cls-7{fill:#efeff0;}.cls-13,.cls-14,.cls-15,.cls-23,.cls-8{mix-blend-mode:multiply;}.cls-24,.cls-9{mix-blend-mode:screen;}.cls-10{fill:#360c00;}.cls-11,.cls-13{fill:#e12013;}.cls-12{fill:#fdd654;}.cls-14{fill:#b6200e;}.cls-15{fill:#5fb152;}.cls-16,.cls-24{fill:#fff;}.cls-17{fill:#fffde3;}.cls-18{fill:#ffce84;}.cls-19{fill:#ffe6b2;}.cls-20{fill:#93794d;}.cls-21{fill:#f69170;opacity:0.8;}.cls-22,.cls-23{fill:#68cce3;}.cls-24{opacity:0.4;}</style></defs><title>Asset 2</title><g class="cls-1"><g id="Layer_2" data-name="Layer 2"><g id="Layer_1-2" data-name="Layer 1"><path class="cls-2" d="M171.669,76.671c0,10.128-38.428,18.344-85.835,18.344S0,86.8,0,76.671,38.429,58.337,85.834,58.337,171.669,66.543,171.669,76.671Z"/><path class="cls-3" d="M169.522,76.213c0,9.878-37.465,17.885-83.688,17.885S2.142,86.091,2.142,76.213s37.47-17.876,83.692-17.876S169.522,66.338,169.522,76.213Z"/><path class="cls-4" d="M156.17,74.685c0-1.209-2.6-2.307-6.771-3.088,1.768-1.07,1.391-2.271-1.572-3.34-3.418-1.235-9.5-2.007-16.139-2.209-.878-1.289-4.724-2.487-11.013-3.181a108.1,108.1,0,0,0-18.149-.327A82.432,82.432,0,0,0,85.91,61.08a86.255,86.255,0,0,0-15.956,1.314,109.658,109.658,0,0,0-17.258.3c-6.373.663-10.375,1.846-11.426,3.126-6.654.174-12.841.916-16.419,2.132-3.278,1.115-3.681,2.393-1.7,3.517-4.591.785-7.5,1.934-7.5,3.214,0,1.216,2.607,2.31,6.778,3.092-1.77,1.07-1.394,2.27,1.57,3.336,3.422,1.238,9.5,2.011,16.137,2.212.881,1.293,4.73,2.488,11.012,3.181a108.161,108.161,0,0,0,18.154.33A82.9,82.9,0,0,0,85.91,88.287a86.014,86.014,0,0,0,15.954-1.31,108.744,108.744,0,0,0,17.261-.306c6.378-.66,10.374-1.84,11.423-3.126,6.661-.168,12.846-.913,16.426-2.132,3.275-1.112,3.675-2.387,1.7-3.511C153.263,77.114,156.17,75.968,156.17,74.685Z"/><path class="cls-5" d="M144.7,73.384v-34.7H26.954V73.524h.055c0,6.945,26.353,12.576,58.855,12.576s58.855-5.631,58.855-12.576C144.719,73.476,144.7,73.43,144.7,73.384Z"/><path class="cls-6" d="M85.864,71.1c32.278,0,58.477-5.552,58.834-12.429V43.277H26.954V58.52h.055C27.009,65.471,53.362,71.1,85.864,71.1Z"/><path class="cls-7" d="M144.719,53.931c0-.046-.017-.095-.021-.141v.278C144.7,54.022,144.719,53.977,144.719,53.931Z"/><path class="cls-5" d="M85.864,66.5c32.278,0,58.477-5.555,58.834-12.435V38.683H26.954V53.931h.055C27.009,60.872,53.362,66.5,85.864,66.5Z"/><path class="cls-8" d="M144.7,73.384v-34.7H111.52V84.844c19.653-2.044,33.2-6.346,33.2-11.32C144.719,73.476,144.7,73.43,144.7,73.384Z"/><path class="cls-9" d="M50.835,38.683H44.677V82.5c1.917.4,4,.765,6.158,1.106Z"/><path class="cls-10" d="M144.69,38.683c0,6.947-26.351,12.575-58.859,12.575S26.979,45.63,26.979,38.683,53.332,26.11,85.831,26.11,144.69,31.737,144.69,38.683Z"/><path class="cls-5" d="M139.8,38.526c0,5.875-24.162,10.642-53.971,10.642S31.869,44.4,31.869,38.526,56.03,27.879,85.831,27.879,139.8,32.645,139.8,38.526Z"/><path class="cls-11" d="M63.366,26.159c.177,4.17-4,3.883-4,3.883H55.045s-4.18.287-4-3.883c.171-3.884,3.869-8.1,6.13-8a.129.129,0,0,1,.039,0,.066.066,0,0,1,.025,0C59.5,18.055,63.2,22.275,63.366,26.159Z"/><path class="cls-12" d="M52.306,27.384s-.55-.5-.417-.78.427-.152.522.248S52.524,27.675,52.306,27.384Z"/><path class="cls-12" d="M53.039,24.769s-.224-.718.021-.892.449.085.33.476S53.087,25.126,53.039,24.769Z"/><path class="cls-12" d="M55.933,24.922s-.346-.663-.132-.877.457,0,.409.409S56.046,25.267,55.933,24.922Z"/><path class="cls-12" d="M58.683,24.906s-.34-.669-.131-.883.457.009.411.416S58.8,25.251,58.683,24.906Z"/><path class="cls-12" d="M61.3,24.857s-.532-.525-.4-.8.431-.137.515.265S61.51,25.15,61.3,24.857Z"/><path class="cls-12" d="M54.273,22.083s-.194-.611.019-.761.387.071.285.409S54.317,22.4,54.273,22.083Z"/><path class="cls-12" d="M56.326,22.3s-.192-.623.025-.773.382.074.283.412S56.369,22.6,56.326,22.3Z"/><path class="cls-12" d="M55.487,19.925s-.01-.468.167-.529.252.125.116.342S55.457,20.149,55.487,19.925Z"/><path class="cls-12" d="M58.923,19.985s-.326-.326-.244-.491.269-.086.32.165S59.055,20.174,58.923,19.985Z"/><path class="cls-12" d="M57.112,19.977s-.228-.4-.1-.542.281,0,.263.249S57.19,20.2,57.112,19.977Z"/><path class="cls-12" d="M58.323,22.3s-.4-.517-.249-.727.385-.07.409.284S58.468,22.572,58.323,22.3Z"/><path class="cls-12" d="M60.394,22.465s-.469-.455-.343-.685.372-.122.446.23S60.57,22.719,60.394,22.465Z"/><path class="cls-12" d="M54.839,27.372s-.391-.645-.2-.871.453-.03.439.379S54.974,27.7,54.839,27.372Z"/><path class="cls-12" d="M57.53,27.366s-.3-.691-.068-.889.45.037.377.443S57.612,27.717,57.53,27.366Z"/><path class="cls-12" d="M60.169,27.381s-.259-.706-.021-.889.451.058.358.458S60.232,27.735,60.169,27.381Z"/><path class="cls-12" d="M62.226,27.375s-.2-.728.055-.9.442.1.315.49S62.266,27.732,62.226,27.375Z"/><path class="cls-13" d="M56.756,18.247a1.144,1.144,0,0,1,.9,0Z"/><path class="cls-14" d="M59.363,30.042H55.045a4.685,4.685,0,0,1-2.637-.693,3.112,3.112,0,0,1,2.229-.254s-1.077-1.078.212-1.1a4.88,4.88,0,0,1,2.308.566s-.268-.728.612-.566a1.644,1.644,0,0,1,1.179,1.027,3.56,3.56,0,0,0,2.465-4.156c-.375-3.476-3.157-5.715-4.524-5.769-1.011-.037-2.933,1.028-4.4,2.742,1.334-2.162,3.307-3.769,4.717-3.681a1.694,1.694,0,0,0-.454.092h.9a1.7,1.7,0,0,0-.445-.092c2.258-.14,5.99,4.1,6.156,8C63.543,30.329,59.363,30.042,59.363,30.042Z"/><path class="cls-15" d="M57.9,30.094c0-.131-.244-.236-.551-.236s-.555.105-.555.236.247.232.555.232S57.9,30.228,57.9,30.094Z"/><path class="cls-16" d="M49.458,28.279a3.526,3.526,0,0,0,2.264,2.074,13.573,13.573,0,0,0,4.794.972,8.847,8.847,0,0,0,2.655-.32c1.4-.406,3.883-.92,4.492-2.441.982-2.466-1.972-3.27-3.779-2.845-2.2.516-4.323,1.481-6.6,1.662a8.091,8.091,0,0,1-1.167-.1C50.823,27.14,49.106,27.023,49.458,28.279Z"/><path class="cls-17" d="M61.157,28.441a10.065,10.065,0,0,1-1.168.1c-2.279-.184-4.4-1.14-6.6-1.662-1.811-.425-4.762.379-3.78,2.841.613,1.524,3.1,2.038,4.493,2.444a8.648,8.648,0,0,0,2.652.321,13.661,13.661,0,0,0,4.794-.971,3.52,3.52,0,0,0,2.265-2.071C64.166,28.179,62.449,28.3,61.157,28.441Z"/><path class="cls-11" d="M82.537,25.05c.177,4.167-4.005,3.88-4.005,3.88H74.215s-4.179.287-4-3.88c.164-3.887,3.861-8.108,6.131-8H76.4C78.673,16.942,82.363,21.163,82.537,25.05Z"/><path class="cls-12" d="M71.477,26.278s-.546-.51-.418-.785.427-.153.522.247S71.7,26.563,71.477,26.278Z"/><path class="cls-12" d="M72.208,23.663s-.224-.719.023-.893.446.081.33.474S72.258,24.017,72.208,23.663Z"/><path class="cls-12" d="M75.1,23.813s-.342-.667-.131-.88.455.006.409.415S75.214,24.157,75.1,23.813Z"/><path class="cls-12" d="M77.853,23.794s-.342-.666-.131-.88.455,0,.406.413S77.964,24.14,77.853,23.794Z"/><path class="cls-12" d="M80.466,23.748s-.531-.525-.4-.8.439-.137.515.263S80.68,24.045,80.466,23.748Z"/><path class="cls-12" d="M73.443,20.98s-.2-.62.015-.773.391.077.293.416S73.491,21.289,73.443,20.98Z"/><path class="cls-12" d="M75.5,21.189s-.194-.625.015-.774.391.073.291.412S75.539,21.493,75.5,21.189Z"/><path class="cls-12" d="M74.661,18.815s-.017-.466.158-.528.257.125.123.342S74.629,19.036,74.661,18.815Z"/><path class="cls-12" d="M78.1,18.877s-.334-.33-.246-.495.268-.082.322.165S78.229,19.064,78.1,18.877Z"/><path class="cls-12" d="M76.282,18.867s-.228-.4-.1-.54.283-.01.262.247S76.356,19.081,76.282,18.867Z"/><path class="cls-12" d="M77.491,21.189s-.395-.52-.246-.731.387-.07.413.284S77.638,21.457,77.491,21.189Z"/><path class="cls-12" d="M79.559,21.352s-.46-.452-.339-.687.375-.122.442.232S79.741,21.606,79.559,21.352Z"/><path class="cls-12" d="M74.012,26.26s-.4-.642-.2-.868.456-.031.44.376S74.144,26.6,74.012,26.26Z"/><path class="cls-12" d="M76.7,26.254s-.3-.69-.066-.89.453.04.38.446S76.781,26.6,76.7,26.254Z"/><path class="cls-12" d="M79.335,26.271s-.26-.707-.017-.891.45.06.353.461S79.405,26.62,79.335,26.271Z"/><path class="cls-12" d="M81.4,26.263s-.2-.727.051-.889.448.092.321.485S81.431,26.62,81.4,26.263Z"/><path class="cls-13" d="M75.926,17.139a1.139,1.139,0,0,1,.9,0Z"/><path class="cls-14" d="M78.532,28.93H74.215a4.643,4.643,0,0,1-2.636-.688,3.055,3.055,0,0,1,2.227-.253s-1.073-1.085.216-1.109a4.838,4.838,0,0,1,2.3.565s-.272-.727.615-.565A1.63,1.63,0,0,1,78.116,27.9a3.557,3.557,0,0,0,2.469-4.148c-.379-3.481-3.162-5.722-4.531-5.771-1.011-.043-2.927,1.027-4.385,2.74,1.33-2.163,3.3-3.769,4.707-3.677a1.4,1.4,0,0,0-.45.092h.9a1.4,1.4,0,0,0-.447-.092c2.263-.144,5.987,4.1,6.161,8C82.714,29.217,78.532,28.93,78.532,28.93Z"/><path class="cls-15" d="M77.073,28.985c0-.132-.25-.238-.553-.238s-.554.106-.554.238.246.229.554.229S77.073,29.113,77.073,28.985Z"/><path class="cls-16" d="M68.633,27.17a3.5,3.5,0,0,0,2.261,2.075,13.749,13.749,0,0,0,4.792.975,8.941,8.941,0,0,0,2.659-.325c1.4-.406,3.878-.919,4.487-2.444.987-2.463-1.966-3.262-3.784-2.838-2.2.519-4.321,1.476-6.6,1.658a9.206,9.206,0,0,1-1.165-.1C69.993,26.03,68.272,25.914,68.633,27.17Z"/><path class="cls-17" d="M80.325,27.326a8.879,8.879,0,0,1-1.17.1c-2.276-.177-4.39-1.14-6.6-1.659-1.815-.425-4.765.376-3.78,2.841.605,1.525,3.093,2.044,4.486,2.441a8.859,8.859,0,0,0,2.661.327A13.6,13.6,0,0,0,80.72,30.4a3.487,3.487,0,0,0,2.257-2.071C83.335,27.066,81.618,27.185,80.325,27.326Z"/><path class="cls-11" d="M101.706,24.723c.178,4.171-4,3.883-4,3.883H93.384s-4.176.288-4-3.883c.167-3.88,3.863-8.1,6.131-8h.06C97.843,16.625,101.539,20.843,101.706,24.723Z"/><path class="cls-12" d="M90.645,25.954s-.546-.514-.418-.782.431-.155.522.248S90.866,26.241,90.645,25.954Z"/><path class="cls-12" d="M91.38,23.336s-.224-.718.023-.893.447.089.328.48S91.431,23.693,91.38,23.336Z"/><path class="cls-12" d="M94.275,23.491s-.344-.666-.137-.883.461.006.412.416S94.386,23.837,94.275,23.491Z"/><path class="cls-12" d="M97.023,23.474s-.344-.67-.126-.88.454,0,.405.409S97.129,23.815,97.023,23.474Z"/><path class="cls-12" d="M99.638,23.425s-.531-.53-.4-.8.438-.138.519.266S99.849,23.715,99.638,23.425Z"/><path class="cls-12" d="M92.616,20.653s-.2-.619.018-.771.385.073.285.414S92.656,20.965,92.616,20.653Z"/><path class="cls-12" d="M94.669,20.861s-.195-.62.019-.771.383.075.286.417S94.708,21.17,94.669,20.861Z"/><path class="cls-12" d="M93.833,18.491s-.016-.467.158-.528.257.129.122.34S93.8,18.712,93.833,18.491Z"/><path class="cls-12" d="M97.269,18.553s-.334-.327-.249-.493.272-.087.323.166S97.4,18.739,97.269,18.553Z"/><path class="cls-12" d="M95.448,18.547s-.225-.406-.1-.547.286-.006.266.247S95.532,18.761,95.448,18.547Z"/><path class="cls-12" d="M96.657,20.861s-.392-.51-.243-.727.387-.071.415.287S96.81,21.136,96.657,20.861Z"/><path class="cls-12" d="M98.733,21.029s-.463-.452-.345-.684.371-.119.445.229S98.911,21.282,98.733,21.029Z"/><path class="cls-12" d="M93.182,25.935s-.394-.641-.2-.867.451-.03.433.382S93.315,26.271,93.182,25.935Z"/><path class="cls-12" d="M95.867,25.933s-.294-.694-.061-.889.448.039.375.439S95.954,26.284,95.867,25.933Z"/><path class="cls-12" d="M98.507,25.948s-.255-.709-.02-.889.453.058.36.459S98.577,26.3,98.507,25.948Z"/><path class="cls-12" d="M100.564,25.935s-.2-.72.051-.885.447.095.32.486S100.6,26.3,100.564,25.935Z"/><path class="cls-13" d="M95.1,16.817a1.292,1.292,0,0,1,.448-.091,1.273,1.273,0,0,1,.448.091Z"/><path class="cls-14" d="M97.705,28.606H93.384a4.651,4.651,0,0,1-2.639-.69,3.1,3.1,0,0,1,2.231-.251s-1.071-1.082.213-1.109a4.881,4.881,0,0,1,2.308.568s-.271-.727.613-.568a1.655,1.655,0,0,1,1.18,1.027,3.559,3.559,0,0,0,2.47-4.149c-.384-3.479-3.164-5.718-4.534-5.773-1.01-.04-2.927,1.027-4.385,2.742,1.33-2.165,3.3-3.772,4.7-3.677a1.292,1.292,0,0,0-.448.091h.9a1.273,1.273,0,0,0-.448-.091c2.268-.144,5.994,4.1,6.161,8C101.884,28.894,97.705,28.606,97.705,28.606Z"/><path class="cls-15" d="M96.247,28.658c0-.132-.252-.232-.556-.232s-.552.1-.552.232.245.236.552.236S96.247,28.792,96.247,28.658Z"/><path class="cls-16" d="M87.8,26.847a3.509,3.509,0,0,0,2.27,2.074,13.518,13.518,0,0,0,4.786.969,8.611,8.611,0,0,0,2.662-.319c1.393-.406,3.883-.916,4.483-2.444.984-2.465-1.961-3.266-3.773-2.838-2.212.517-4.323,1.479-6.6,1.659a9.5,9.5,0,0,1-1.174-.1C89.164,25.71,87.445,25.594,87.8,26.847Z"/><path class="cls-17" d="M99.5,27.005a7.6,7.6,0,0,1-1.166.092c-2.277-.177-4.395-1.14-6.6-1.657-1.812-.427-4.767.374-3.781,2.839.61,1.531,3.1,2.038,4.491,2.448a8.762,8.762,0,0,0,2.656.32,13.631,13.631,0,0,0,4.789-.972A3.5,3.5,0,0,0,102.149,28C102.5,26.749,100.788,26.861,99.5,27.005Z"/><path class="cls-11" d="M120.872,26.336c.183,4.174-4,3.884-4,3.884h-4.314s-4.18.29-4-3.884c.167-3.883,3.863-8.1,6.132-8h.05C117.013,18.238,120.706,22.453,120.872,26.336Z"/><path class="cls-12" d="M109.814,27.567s-.544-.509-.421-.782.434-.152.527.247S110.034,27.854,109.814,27.567Z"/><path class="cls-12" d="M110.546,24.952s-.22-.721.025-.9.448.083.329.479S110.6,25.31,110.546,24.952Z"/><path class="cls-12" d="M113.444,25.1s-.345-.669-.132-.882.451,0,.41.416S113.556,25.45,113.444,25.1Z"/><path class="cls-12" d="M116.192,25.083s-.341-.669-.129-.88.455.007.411.413S116.307,25.432,116.192,25.083Z"/><path class="cls-12" d="M118.806,25.041s-.524-.529-.393-.8.434-.138.517.266S119.019,25.328,118.806,25.041Z"/><path class="cls-12" d="M111.782,22.27s-.194-.621.02-.77.386.07.287.409S111.831,22.581,111.782,22.27Z"/><path class="cls-12" d="M113.837,22.475s-.192-.621.019-.771.387.076.288.416S113.88,22.78,113.837,22.475Z"/><path class="cls-12" d="M113,20.1s-.012-.469.164-.531.252.132.122.346S112.968,20.329,113,20.1Z"/><path class="cls-12" d="M116.435,20.168s-.331-.329-.243-.494.269-.085.319.165S116.563,20.353,116.435,20.168Z"/><path class="cls-12" d="M114.623,20.158s-.233-.407-.1-.542.278-.01.258.247S114.7,20.372,114.623,20.158Z"/><path class="cls-12" d="M115.831,22.475s-.394-.517-.247-.728.388-.067.409.284S115.981,22.749,115.831,22.475Z"/><path class="cls-12" d="M117.9,22.645s-.456-.452-.338-.687.374-.119.447.226S118.083,22.9,117.9,22.645Z"/><path class="cls-12" d="M112.352,27.549s-.4-.639-.2-.867.457-.032.446.382S112.483,27.885,112.352,27.549Z"/><path class="cls-12" d="M115.042,27.543s-.3-.693-.07-.89.453.04.377.444S115.124,27.9,115.042,27.543Z"/><path class="cls-12" d="M117.677,27.558s-.258-.708-.018-.892.45.061.358.461S117.741,27.913,117.677,27.558Z"/><path class="cls-12" d="M119.735,27.549s-.2-.721.051-.889.445.1.322.488S119.774,27.913,119.735,27.549Z"/><path class="cls-13" d="M114.263,18.431a1.4,1.4,0,0,1,.453-.092,1.37,1.37,0,0,1,.447.092Z"/><path class="cls-14" d="M116.868,30.22h-4.314a4.708,4.708,0,0,1-2.634-.688,3.091,3.091,0,0,1,2.227-.257s-1.078-1.079.213-1.1a4.867,4.867,0,0,1,2.305.565s-.27-.73.613-.565a1.65,1.65,0,0,1,1.183,1.024,3.554,3.554,0,0,0,2.462-4.152c-.373-3.477-3.158-5.715-4.528-5.77-1-.043-2.929,1.028-4.388,2.742,1.329-2.164,3.3-3.769,4.709-3.677a1.4,1.4,0,0,0-.453.092h.9a1.37,1.37,0,0,0-.447-.092c2.261-.147,5.99,4.1,6.156,8C121.055,30.51,116.868,30.22,116.868,30.22Z"/><path class="cls-15" d="M115.416,30.271c0-.126-.251-.229-.556-.229s-.556.1-.556.229.25.236.556.236S115.416,30.405,115.416,30.271Z"/><path class="cls-16" d="M106.972,28.463a3.517,3.517,0,0,0,2.263,2.074,13.737,13.737,0,0,0,4.791.969,8.827,8.827,0,0,0,2.655-.321c1.4-.407,3.881-.92,4.49-2.445.983-2.462-1.967-3.265-3.777-2.838-2.206.52-4.328,1.479-6.605,1.656a8.722,8.722,0,0,1-1.165-.094C108.333,27.319,106.612,27.2,106.972,28.463Z"/><path class="cls-17" d="M118.669,28.615a8.994,8.994,0,0,1-1.171.1c-2.277-.177-4.4-1.14-6.6-1.659-1.812-.424-4.759.379-3.779,2.841.607,1.525,3.092,2.039,4.488,2.442a8.757,8.757,0,0,0,2.657.326,13.573,13.573,0,0,0,4.792-.974,3.506,3.506,0,0,0,2.265-2.075C121.678,28.358,119.959,28.475,118.669,28.615Z"/><path class="cls-18" d="M51.331,2.946a5.39,5.39,0,0,1-2.185-1.655A2.1,2.1,0,0,1,48.854,0a7.977,7.977,0,0,0-2.042,1.856c-1.312,1.867-1.79,4.07-.5,5.481.783.855,2.679,1.152,2.726,2.212.024-.049.05-.095.068-.138,1.532-.693,3.412-1.906,3.584-4.088A2.949,2.949,0,0,0,51.331,2.946Z"/><path class="cls-19" d="M50.476,4.762a4.354,4.354,0,0,1-1.858-.844,1.2,1.2,0,0,1-.344-.807,5.919,5.919,0,0,0-1.44,1.418c-.868,1.351-.153,2.3.981,3.073a3.016,3.016,0,0,1,1.436,1.687c.014-.03.027-.063.041-.091,1.144-.617,2.513-1.6,2.455-3.037A1.886,1.886,0,0,0,50.476,4.762Z"/><path class="cls-20" d="M48.726,12.026a.2.2,0,0,1-.081-.017.151.151,0,0,1-.041-.2c1.241-1.914-.066-4.948-.08-4.981a.137.137,0,0,1,.073-.184.141.141,0,0,1,.186.068c.055.135,1.381,3.211.058,5.249A.134.134,0,0,1,48.726,12.026Z"/><path class="cls-21" d="M50.13,6.145a2.939,2.939,0,0,1-1.276-.584.805.805,0,0,1-.24-.552,4.027,4.027,0,0,0-.986.98c-.6.923-.108,1.575.672,2.115a2.069,2.069,0,0,1,.99,1.158c.01-.025.019-.046.027-.071.787-.418,1.73-1.1,1.69-2.08A1.305,1.305,0,0,0,50.13,6.145Z"/><rect class="cls-22" x="46.95" y="9.897" width="4.109" height="25.336"/><rect class="cls-23" x="50.17" y="9.897" width="0.89" height="25.336"/><rect class="cls-24" x="47.509" y="9.897" width="0.887" height="25.336"/><path class="cls-18" d="M74.417,2.946a5.4,5.4,0,0,1-2.182-1.655A2.1,2.1,0,0,1,71.94,0,7.915,7.915,0,0,0,69.9,1.856c-1.311,1.867-1.794,4.07-.507,5.481.783.855,2.682,1.152,2.73,2.212.02-.049.045-.095.066-.138,1.53-.693,3.409-1.906,3.582-4.088A2.951,2.951,0,0,0,74.417,2.946Z"/><path class="cls-19" d="M73.563,4.762a4.328,4.328,0,0,1-1.857-.844,1.191,1.191,0,0,1-.345-.807,5.888,5.888,0,0,0-1.437,1.418c-.871,1.351-.157,2.3.977,3.073a2.987,2.987,0,0,1,1.435,1.687c.015-.03.03-.063.042-.091,1.146-.617,2.516-1.6,2.457-3.037A1.889,1.889,0,0,0,73.563,4.762Z"/><path class="cls-20" d="M71.81,12.026a.212.212,0,0,1-.078-.017.146.146,0,0,1-.038-.2c1.239-1.914-.068-4.948-.08-4.981a.135.135,0,0,1,.071-.184.137.137,0,0,1,.183.068c.055.135,1.385,3.211.062,5.249A.139.139,0,0,1,71.81,12.026Z"/><path class="cls-21" d="M73.222,6.145a2.923,2.923,0,0,1-1.28-.584.8.8,0,0,1-.239-.552,3.98,3.98,0,0,0-.987.98c-.6.923-.107,1.575.673,2.115a2.055,2.055,0,0,1,.987,1.158.717.717,0,0,1,.03-.071c.782-.418,1.724-1.1,1.693-2.08A1.327,1.327,0,0,0,73.222,6.145Z"/><rect class="cls-22" x="70.036" y="9.897" width="4.108" height="25.336"/><rect class="cls-23" x="73.259" y="9.897" width="0.886" height="25.336"/><rect class="cls-24" x="70.597" y="9.897" width="0.885" height="25.336"/><path class="cls-18" d="M61.747,9.559A5.469,5.469,0,0,1,59.565,7.9,2.082,2.082,0,0,1,59.27,6.61a7.66,7.66,0,0,0-2.039,1.861c-1.312,1.857-1.794,4.069-.507,5.474.783.863,2.679,1.153,2.728,2.209.022-.04.049-.089.067-.131,1.534-.7,3.413-1.907,3.583-4.09A2.948,2.948,0,0,0,61.747,9.559Z"/><path class="cls-19" d="M60.894,11.37a4.278,4.278,0,0,1-1.861-.847,1.2,1.2,0,0,1-.343-.806,6.017,6.017,0,0,0-1.438,1.427c-.87,1.347-.155,2.291.981,3.071A2.987,2.987,0,0,1,59.665,15.9c.015-.03.028-.063.043-.087,1.143-.618,2.512-1.6,2.457-3.04A1.9,1.9,0,0,0,60.894,11.37Z"/><path class="cls-20" d="M59.139,18.639a.19.19,0,0,1-.078-.019.152.152,0,0,1-.041-.2c1.242-1.907-.064-4.947-.078-4.978a.138.138,0,0,1,.07-.183.146.146,0,0,1,.188.07c.055.132,1.379,3.208.057,5.249A.134.134,0,0,1,59.139,18.639Z"/><path class="cls-21" d="M60.548,12.754a2.957,2.957,0,0,1-1.278-.58.828.828,0,0,1-.238-.554,4.043,4.043,0,0,0-.986.975c-.6.925-.108,1.58.673,2.117a2.07,2.07,0,0,1,.987,1.158.585.585,0,0,0,.027-.067c.787-.421,1.729-1.1,1.69-2.086A1.305,1.305,0,0,0,60.548,12.754Z"/><rect class="cls-22" x="57.365" y="16.512" width="4.109" height="25.336"/><rect class="cls-23" x="60.587" y="16.512" width="0.888" height="25.336"/><rect class="cls-24" x="57.925" y="16.512" width="0.889" height="25.336"/><path class="cls-18" d="M87.088,9.559A5.472,5.472,0,0,1,84.905,7.9a2.081,2.081,0,0,1-.292-1.292,7.7,7.7,0,0,0-2.042,1.861c-1.312,1.857-1.793,4.069-.506,5.474.784.863,2.68,1.153,2.727,2.209a1.347,1.347,0,0,0,.067-.131c1.533-.7,3.413-1.907,3.585-4.09A2.949,2.949,0,0,0,87.088,9.559Z"/><path class="cls-19" d="M86.237,11.37a4.257,4.257,0,0,1-1.861-.847,1.176,1.176,0,0,1-.345-.806,6.007,6.007,0,0,0-1.44,1.427c-.869,1.347-.155,2.291.98,3.071A3.015,3.015,0,0,1,85.009,15.9a.707.707,0,0,1,.04-.087c1.142-.618,2.511-1.6,2.454-3.04A1.894,1.894,0,0,0,86.237,11.37Z"/><path class="cls-20" d="M84.479,18.639a.174.174,0,0,1-.076-.019.153.153,0,0,1-.042-.2c1.241-1.907-.067-4.947-.077-4.978a.135.135,0,0,1,.07-.183.143.143,0,0,1,.186.07c.057.132,1.379,3.208.057,5.249A.133.133,0,0,1,84.479,18.639Z"/><path class="cls-21" d="M85.889,12.754a2.954,2.954,0,0,1-1.276-.58.82.82,0,0,1-.239-.554,4.013,4.013,0,0,0-.987.975c-.6.925-.107,1.58.673,2.117a2.064,2.064,0,0,1,.986,1.158c.012-.021.017-.043.029-.067.787-.421,1.729-1.1,1.688-2.086A1.3,1.3,0,0,0,85.889,12.754Z"/><rect class="cls-22" x="82.705" y="16.512" width="4.109" height="25.336"/><rect class="cls-23" x="85.925" y="16.512" width="0.89" height="25.336"/><rect class="cls-24" x="83.268" y="16.512" width="0.886" height="25.336"/><path class="cls-18" d="M112.429,9.559A5.488,5.488,0,0,1,110.245,7.9a2.108,2.108,0,0,1-.293-1.292,7.611,7.611,0,0,0-2.038,1.861c-1.313,1.857-1.8,4.069-.509,5.474.782.863,2.678,1.153,2.725,2.209a.755.755,0,0,0,.07-.131c1.534-.7,3.413-1.907,3.583-4.09A2.945,2.945,0,0,0,112.429,9.559Z"/><path class="cls-19" d="M111.579,11.37a4.262,4.262,0,0,1-1.861-.847,1.183,1.183,0,0,1-.348-.806,5.976,5.976,0,0,0-1.437,1.427c-.868,1.347-.154,2.291.983,3.071a3,3,0,0,1,1.432,1.682.706.706,0,0,1,.046-.087c1.138-.618,2.507-1.6,2.453-3.04A1.9,1.9,0,0,0,111.579,11.37Z"/><path class="cls-20" d="M109.82,18.639a.185.185,0,0,1-.076-.019.152.152,0,0,1-.042-.2c1.24-1.907-.066-4.947-.078-4.978a.137.137,0,0,1,.072-.183.141.141,0,0,1,.186.07c.054.132,1.381,3.208.057,5.249A.131.131,0,0,1,109.82,18.639Z"/><path class="cls-21" d="M111.233,12.754a2.952,2.952,0,0,1-1.281-.58.836.836,0,0,1-.237-.554,4.07,4.07,0,0,0-.988.975c-.6.925-.105,1.58.672,2.117a2.043,2.043,0,0,1,.987,1.158.366.366,0,0,0,.029-.067c.786-.421,1.729-1.1,1.691-2.086A1.314,1.314,0,0,0,111.233,12.754Z"/><rect class="cls-22" x="108.047" y="16.512" width="4.109" height="25.336"/><rect class="cls-23" x="111.269" y="16.512" width="0.888" height="25.336"/><rect class="cls-24" x="108.61" y="16.512" width="0.882" height="25.336"/><path class="cls-18" d="M99.76,2.946a5.4,5.4,0,0,1-2.183-1.655A2.074,2.074,0,0,1,97.283,0a7.944,7.944,0,0,0-2.042,1.856c-1.31,1.867-1.794,4.07-.5,5.481.782.855,2.678,1.152,2.728,2.212.02-.049.044-.095.064-.138,1.534-.693,3.415-1.906,3.585-4.088A2.953,2.953,0,0,0,99.76,2.946Z"/><path class="cls-19" d="M98.905,4.762a4.341,4.341,0,0,1-1.859-.844,1.21,1.21,0,0,1-.345-.807,5.857,5.857,0,0,0-1.434,1.418c-.873,1.351-.158,2.3.978,3.073a2.972,2.972,0,0,1,1.431,1.687c.015-.03.032-.063.044-.091,1.144-.617,2.511-1.6,2.455-3.037A1.883,1.883,0,0,0,98.905,4.762Z"/><path class="cls-20" d="M97.151,12.026a.2.2,0,0,1-.079-.017.145.145,0,0,1-.038-.2c1.238-1.914-.066-4.948-.081-4.981a.137.137,0,0,1,.073-.184.14.14,0,0,1,.184.068c.057.135,1.383,3.211.057,5.249A.123.123,0,0,1,97.151,12.026Z"/><path class="cls-21" d="M98.56,6.145a2.927,2.927,0,0,1-1.277-.584.789.789,0,0,1-.237-.552,3.86,3.86,0,0,0-.986.98c-.6.923-.109,1.575.67,2.115a2.053,2.053,0,0,1,.988,1.158c.009-.025.015-.046.025-.071.793-.418,1.733-1.1,1.692-2.08A1.3,1.3,0,0,0,98.56,6.145Z"/><rect class="cls-22" x="95.378" y="9.897" width="4.106" height="25.336"/><rect class="cls-23" x="98.599" y="9.897" width="0.886" height="25.336"/><rect class="cls-24" x="95.937" y="9.897" width="0.886" height="25.336"/><path class="cls-18" d="M123,2.946a5.433,5.433,0,0,1-2.186-1.655A2.114,2.114,0,0,1,120.519,0a7.871,7.871,0,0,0-2.04,1.856c-1.312,1.867-1.793,4.07-.5,5.481.779.855,2.674,1.152,2.725,2.212.024-.049.049-.095.067-.138,1.531-.693,3.41-1.906,3.585-4.088A2.949,2.949,0,0,0,123,2.946Z"/><path class="cls-19" d="M122.141,4.762a4.355,4.355,0,0,1-1.857-.844,1.2,1.2,0,0,1-.345-.807A5.87,5.87,0,0,0,118.5,4.529c-.869,1.351-.155,2.3.977,3.073a2.984,2.984,0,0,1,1.435,1.687c.017-.03.032-.063.046-.091,1.14-.617,2.512-1.6,2.453-3.037A1.889,1.889,0,0,0,122.141,4.762Z"/><path class="cls-20" d="M120.39,12.026a.2.2,0,0,1-.08-.017.147.147,0,0,1-.038-.2c1.237-1.914-.067-4.948-.08-4.981a.141.141,0,0,1,.256-.116c.059.135,1.379,3.211.059,5.249A.133.133,0,0,1,120.39,12.026Z"/><path class="cls-21" d="M121.8,6.145a2.947,2.947,0,0,1-1.278-.584.8.8,0,0,1-.237-.552,3.946,3.946,0,0,0-.987.98c-.6.923-.106,1.575.671,2.115a2.038,2.038,0,0,1,.986,1.158.424.424,0,0,0,.029-.071c.789-.418,1.729-1.1,1.692-2.08A1.317,1.317,0,0,0,121.8,6.145Z"/><rect class="cls-22" x="118.613" y="9.897" width="4.109" height="25.336"/><rect class="cls-23" x="121.839" y="9.897" width="0.884" height="25.336"/><rect class="cls-24" x="119.173" y="9.897" width="0.889" height="25.336"/><path class="cls-11" d="M140.044,30.935c.176,4.169-4,3.879-4,3.879h-4.32s-4.172.29-4-3.879c.168-3.884,3.862-8.1,6.128-8a.206.206,0,0,1,.035,0,.169.169,0,0,1,.026,0C136.181,22.832,139.878,27.051,140.044,30.935Z"/><path class="cls-12" d="M128.985,32.162s-.54-.507-.418-.778.428-.154.522.244S129.209,32.449,128.985,32.162Z"/><path class="cls-12" d="M129.718,29.544s-.225-.718.017-.889.451.082.34.477S129.769,29.9,129.718,29.544Z"/><path class="cls-12" d="M132.612,29.7s-.345-.662-.131-.876.457,0,.413.415S132.724,30.042,132.612,29.7Z"/><path class="cls-12" d="M135.366,29.685s-.345-.669-.134-.883.456.006.413.412S135.476,30.026,135.366,29.685Z"/><path class="cls-12" d="M137.976,29.633s-.53-.523-.393-.792.433-.143.516.26S138.188,29.929,137.976,29.633Z"/><path class="cls-12" d="M130.954,26.861s-.2-.617.02-.763.388.064.287.413S131,27.177,130.954,26.861Z"/><path class="cls-12" d="M133.005,27.072s-.188-.623.023-.769.387.07.287.412S133.046,27.381,133.005,27.072Z"/><path class="cls-12" d="M132.168,24.7s-.007-.461.167-.522.252.126.114.343S132.139,24.928,132.168,24.7Z"/><path class="cls-12" d="M135.6,24.766s-.329-.331-.244-.5.27-.081.328.165S135.736,24.952,135.6,24.766Z"/><path class="cls-12" d="M133.79,24.757s-.227-.41-.1-.544.282-.007.262.25S133.868,24.971,133.79,24.757Z"/><path class="cls-12" d="M135,27.072s-.4-.516-.246-.73.392-.071.415.288S135.151,27.345,135,27.072Z"/><path class="cls-12" d="M137.073,27.24s-.468-.455-.346-.684.376-.12.447.223S137.252,27.494,137.073,27.24Z"/><path class="cls-12" d="M131.519,32.144s-.39-.638-.2-.868.457-.027.438.382S131.659,32.48,131.519,32.144Z"/><path class="cls-12" d="M134.209,32.141s-.3-.691-.064-.886.452.033.372.443S134.293,32.492,134.209,32.141Z"/><path class="cls-12" d="M136.849,32.153s-.262-.7-.019-.885.45.057.355.46S136.915,32.514,136.849,32.153Z"/><path class="cls-12" d="M138.9,32.15s-.195-.727.055-.892.443.094.316.486S138.941,32.508,138.9,32.15Z"/><path class="cls-13" d="M133.436,23.027a1.52,1.52,0,0,1,.451-.094,1.562,1.562,0,0,1,.447.094Z"/><path class="cls-14" d="M136.044,34.814h-4.32a4.669,4.669,0,0,1-2.635-.69,3.122,3.122,0,0,1,2.224-.251s-1.074-1.081.216-1.1a4.821,4.821,0,0,1,2.307.568s-.269-.731.616-.568a1.647,1.647,0,0,1,1.176,1.026,3.561,3.561,0,0,0,2.467-4.152c-.377-3.48-3.164-5.719-4.528-5.772-1.013-.039-2.933,1.027-4.393,2.744,1.332-2.166,3.3-3.77,4.713-3.681a1.52,1.52,0,0,0-.451.094h.9a1.562,1.562,0,0,0-.447-.094c2.262-.141,5.991,4.1,6.157,8C140.22,35.1,136.044,34.814,136.044,34.814Z"/><path class="cls-15" d="M134.583,34.866c0-.125-.249-.232-.553-.232s-.553.107-.553.232.248.238.553.238S134.583,35,134.583,34.866Z"/><path class="cls-16" d="M126.138,33.055a3.534,3.534,0,0,0,2.265,2.077,13.66,13.66,0,0,0,4.793.971,8.934,8.934,0,0,0,2.662-.323c1.394-.407,3.876-.917,4.483-2.441.983-2.466-1.968-3.27-3.78-2.839-2.2.514-4.323,1.476-6.6,1.653a7.424,7.424,0,0,1-1.164-.094C127.5,31.918,125.784,31.8,126.138,33.055Z"/><path class="cls-17" d="M137.84,33.214a9.6,9.6,0,0,1-1.17.1c-2.28-.183-4.4-1.139-6.6-1.659-1.814-.427-4.765.376-3.781,2.841.607,1.522,3.094,2.038,4.49,2.445a8.821,8.821,0,0,0,2.655.318,13.671,13.671,0,0,0,4.794-.972,3.515,3.515,0,0,0,2.264-2.072C140.843,32.954,139.131,33.073,137.84,33.214Z"/><path class="cls-11" d="M44.192,34.546c.179,4.17-4,3.88-4,3.88H35.872s-4.177.29-4-3.88c.166-3.884,3.859-8.1,6.127-8a.078.078,0,0,1,.035-.006.05.05,0,0,1,.025.006C40.332,26.443,44.027,30.662,44.192,34.546Z"/><path class="cls-12" d="M33.134,35.773s-.547-.509-.418-.785.431-.149.521.248S33.356,36.06,33.134,35.773Z"/><path class="cls-12" d="M33.867,33.155s-.223-.72.022-.892.452.083.331.483S33.919,33.51,33.867,33.155Z"/><path class="cls-12" d="M36.764,33.311s-.343-.669-.132-.882.457.006.41.412S36.874,33.653,36.764,33.311Z"/><path class="cls-12" d="M39.514,33.293s-.346-.666-.13-.88.453.006.406.409S39.625,33.635,39.514,33.293Z"/><path class="cls-12" d="M42.129,33.244s-.534-.525-.4-.8.438-.14.517.27S42.337,33.537,42.129,33.244Z"/><path class="cls-12" d="M35.1,30.476s-.2-.624.016-.77.388.073.29.409S35.144,30.788,35.1,30.476Z"/><path class="cls-12" d="M37.157,30.681s-.191-.621.022-.77.384.073.283.415S37.2,30.989,37.157,30.681Z"/><path class="cls-12" d="M36.319,28.313s-.015-.464.163-.529.255.125.119.342S36.29,28.536,36.319,28.313Z"/><path class="cls-12" d="M39.753,28.374s-.331-.33-.239-.495.265-.085.317.165S39.884,28.558,39.753,28.374Z"/><path class="cls-12" d="M37.938,28.368s-.227-.406-.1-.544.287-.007.265.247S38.019,28.575,37.938,28.368Z"/><path class="cls-12" d="M39.149,30.681s-.4-.514-.25-.728.391-.07.416.287S39.294,30.959,39.149,30.681Z"/><path class="cls-12" d="M41.222,30.849s-.462-.453-.346-.685.375-.122.447.23S41.405,31.1,41.222,30.849Z"/><path class="cls-12" d="M35.667,35.755s-.391-.641-.192-.87.45-.031.432.382S35.8,36.089,35.667,35.755Z"/><path class="cls-12" d="M38.356,35.749s-.3-.69-.064-.886.451.04.379.444S38.442,36.1,38.356,35.749Z"/><path class="cls-12" d="M41,35.765s-.257-.706-.022-.886.453.057.359.458S41.062,36.122,41,35.765Z"/><path class="cls-12" d="M43.053,35.755s-.2-.727.05-.889.449.1.318.492S43.093,36.116,43.053,35.755Z"/><path class="cls-13" d="M37.585,26.636a1.547,1.547,0,0,1,.451-.092,1.494,1.494,0,0,1,.445.092Z"/><path class="cls-14" d="M40.193,38.426H35.872a4.636,4.636,0,0,1-2.637-.694,3.156,3.156,0,0,1,2.231-.251s-1.072-1.078.213-1.1a4.838,4.838,0,0,1,2.3.565s-.267-.733.618-.565A1.635,1.635,0,0,1,39.778,37.4a3.557,3.557,0,0,0,2.467-4.152c-.379-3.477-3.159-5.713-4.529-5.772-1.009-.036-2.929,1.027-4.388,2.742,1.331-2.157,3.3-3.768,4.708-3.676a1.547,1.547,0,0,0-.451.092h.9a1.494,1.494,0,0,0-.445-.092c2.263-.144,5.991,4.106,6.156,8C44.371,38.716,40.193,38.426,40.193,38.426Z"/><path class="cls-15" d="M38.734,38.477c0-.127-.247-.232-.555-.232s-.551.105-.551.232.244.239.551.239S38.734,38.612,38.734,38.477Z"/><path class="cls-16" d="M30.286,36.666a3.521,3.521,0,0,0,2.271,2.074,13.567,13.567,0,0,0,4.788.972,8.64,8.64,0,0,0,2.66-.324c1.392-.4,3.879-.913,4.485-2.441.987-2.466-1.964-3.266-3.776-2.842-2.209.517-4.322,1.479-6.6,1.66a8.009,8.009,0,0,1-1.173-.1C31.651,35.526,29.935,35.41,30.286,36.666Z"/><path class="cls-17" d="M41.988,36.825a8.6,8.6,0,0,1-1.171.094c-2.277-.177-4.392-1.139-6.6-1.655-1.812-.431-4.767.372-3.78,2.838.61,1.528,3.092,2.038,4.489,2.444a8.655,8.655,0,0,0,2.657.32,13.525,13.525,0,0,0,4.788-.974,3.5,3.5,0,0,0,2.266-2.069C45,36.568,43.276,36.685,41.988,36.825Z"/><path class="cls-11" d="M101.706,41.719c.178,4.171-4,3.883-4,3.883H93.384s-4.176.288-4-3.883c.167-3.88,3.863-8.1,6.131-8h.06C97.843,33.62,101.539,37.839,101.706,41.719Z"/><path class="cls-12" d="M90.645,42.95s-.546-.51-.418-.785.431-.149.522.251S90.866,43.237,90.645,42.95Z"/><path class="cls-12" d="M91.38,40.329s-.224-.718.023-.889.447.082.328.48S91.431,40.689,91.38,40.329Z"/><path class="cls-12" d="M94.275,40.485s-.344-.67-.137-.881.461,0,.412.414S94.386,40.827,94.275,40.485Z"/><path class="cls-12" d="M97.023,40.467s-.344-.663-.126-.88.454,0,.405.412S97.129,40.809,97.023,40.467Z"/><path class="cls-12" d="M99.638,40.418s-.531-.526-.4-.792.438-.144.519.26S99.849,40.708,99.638,40.418Z"/><path class="cls-12" d="M92.616,37.649s-.2-.62.018-.769.385.073.285.412S92.656,37.964,92.616,37.649Z"/><path class="cls-12" d="M94.669,37.854s-.195-.617.019-.767.383.074.286.413S94.708,38.163,94.669,37.854Z"/><path class="cls-12" d="M93.833,35.489s-.016-.47.158-.531.257.125.122.346S93.8,35.71,93.833,35.489Z"/><path class="cls-12" d="M97.269,35.551s-.334-.333-.249-.5.272-.089.323.162S97.4,35.737,97.269,35.551Z"/><path class="cls-12" d="M95.448,35.542s-.225-.41-.1-.544.286-.01.266.247S95.532,35.755,95.448,35.542Z"/><path class="cls-12" d="M96.657,37.854s-.392-.51-.243-.727.387-.063.415.29S96.81,38.129,96.657,37.854Z"/><path class="cls-12" d="M98.733,38.025s-.463-.452-.345-.684.371-.122.445.226S98.911,38.279,98.733,38.025Z"/><path class="cls-12" d="M93.182,42.933s-.394-.643-.2-.874.451-.032.433.384S93.315,43.269,93.182,42.933Z"/><path class="cls-12" d="M95.867,42.923s-.294-.691-.061-.889.448.043.375.443S95.954,43.277,95.867,42.923Z"/><path class="cls-12" d="M98.507,42.941s-.255-.709-.02-.889.453.064.36.462S98.577,43.3,98.507,42.941Z"/><path class="cls-12" d="M100.564,42.933s-.2-.728.051-.89.447.1.32.489S100.6,43.29,100.564,42.933Z"/><path class="cls-13" d="M95.1,33.813a1.445,1.445,0,0,1,.448-.089,1.422,1.422,0,0,1,.448.089Z"/><path class="cls-14" d="M97.705,45.6H93.384a4.679,4.679,0,0,1-2.639-.69,3.12,3.12,0,0,1,2.231-.254s-1.071-1.081.213-1.109a4.863,4.863,0,0,1,2.308.571s-.271-.729.613-.571a1.662,1.662,0,0,1,1.18,1.03,3.56,3.56,0,0,0,2.47-4.152c-.384-3.477-3.164-5.717-4.534-5.772-1.01-.036-2.927,1.03-4.385,2.74,1.33-2.159,3.3-3.766,4.7-3.671a1.445,1.445,0,0,0-.448.089h.9a1.422,1.422,0,0,0-.448-.089c2.268-.15,5.994,4.1,6.161,8C101.884,45.89,97.705,45.6,97.705,45.6Z"/><path class="cls-15" d="M96.247,45.654c0-.128-.252-.232-.556-.232s-.552.1-.552.232.245.236.552.236S96.247,45.786,96.247,45.654Z"/><path class="cls-16" d="M87.8,43.846a3.515,3.515,0,0,0,2.27,2.068,13.431,13.431,0,0,0,4.786.969,8.611,8.611,0,0,0,2.662-.319c1.393-.4,3.883-.913,4.483-2.44.984-2.469-1.961-3.27-3.773-2.845-2.212.523-4.323,1.482-6.6,1.662a7.985,7.985,0,0,1-1.174-.1C89.164,42.7,87.445,42.59,87.8,43.846Z"/><path class="cls-17" d="M99.5,44a8.6,8.6,0,0,1-1.166.1c-2.277-.177-4.395-1.14-6.6-1.655-1.812-.428-4.767.376-3.781,2.837.61,1.528,3.1,2.041,4.491,2.445a8.86,8.86,0,0,0,2.656.324,13.653,13.653,0,0,0,4.789-.972,3.512,3.512,0,0,0,2.265-2.078C102.5,43.741,100.788,43.857,99.5,44Z"/><path class="cls-11" d="M120.872,39.58c.183,4.168-4,3.878-4,3.878h-4.314s-4.18.29-4-3.878c.167-3.883,3.863-8.1,6.132-8h.05C117.013,31.477,120.706,35.7,120.872,39.58Z"/><path class="cls-12" d="M109.82,40.806s-.55-.507-.427-.783.434-.152.527.247S110.038,41.1,109.82,40.806Z"/><path class="cls-12" d="M110.546,38.193s-.22-.727.025-.9.448.086.329.483S110.6,38.545,110.546,38.193Z"/><path class="cls-12" d="M113.444,38.347s-.345-.673-.132-.884.455,0,.41.413S113.556,38.685,113.444,38.347Z"/><path class="cls-12" d="M116.192,38.325s-.341-.67-.129-.884.455.007.411.413S116.307,38.67,116.192,38.325Z"/><path class="cls-12" d="M118.811,38.276s-.529-.526-.4-.8.434-.14.517.26S119.019,38.569,118.811,38.276Z"/><path class="cls-12" d="M111.782,35.508s-.194-.62.023-.77.383.073.284.415S111.831,35.819,111.782,35.508Z"/><path class="cls-12" d="M113.837,35.713s-.192-.62.019-.768.387.071.288.413S113.88,36.024,113.837,35.713Z"/><path class="cls-12" d="M113,33.345s-.012-.468.167-.526.249.125.119.342S112.968,33.567,113,33.345Z"/><path class="cls-12" d="M116.435,33.409s-.331-.33-.243-.495.269-.086.319.165S116.566,33.593,116.435,33.409Z"/><path class="cls-12" d="M114.623,33.4s-.228-.406-.1-.549.278,0,.258.253S114.7,33.61,114.623,33.4Z"/><path class="cls-12" d="M115.831,35.713s-.394-.511-.247-.728.388-.07.409.29S115.981,35.987,115.831,35.713Z"/><path class="cls-12" d="M117.9,35.884s-.456-.455-.338-.685.374-.122.447.227S118.083,36.138,117.9,35.884Z"/><path class="cls-12" d="M112.352,40.79s-.393-.645-.2-.867.457-.031.446.379S112.483,41.12,112.352,40.79Z"/><path class="cls-12" d="M115.042,40.781s-.3-.69-.07-.889.453.04.377.446S115.124,41.133,115.042,40.781Z"/><path class="cls-12" d="M117.677,40.8s-.258-.712-.018-.9.45.062.358.462S117.741,41.154,117.677,40.8Z"/><path class="cls-12" d="M119.735,40.794s-.2-.728.051-.893.445.1.322.489S119.774,41.151,119.735,40.794Z"/><path class="cls-13" d="M114.263,31.671a1.367,1.367,0,0,1,.453-.089,1.342,1.342,0,0,1,.447.089Z"/><path class="cls-14" d="M116.868,43.458h-4.314a4.612,4.612,0,0,1-2.634-.691,3.1,3.1,0,0,1,2.227-.25s-1.078-1.082.213-1.107a4.861,4.861,0,0,1,2.305.566s-.27-.727.613-.566a1.644,1.644,0,0,1,1.183,1.025,3.553,3.553,0,0,0,2.462-4.15c-.373-3.479-3.158-5.717-4.528-5.768-1-.046-2.929,1.026-4.388,2.737,1.329-2.159,3.3-3.767,4.709-3.672a1.367,1.367,0,0,0-.453.089h.9a1.342,1.342,0,0,0-.447-.089c2.265-.149,5.99,4.094,6.156,8C121.055,43.748,116.868,43.458,116.868,43.458Z"/><path class="cls-15" d="M115.416,43.516c0-.132-.251-.239-.556-.239s-.552.107-.552.239.248.225.552.225S115.416,43.641,115.416,43.516Z"/><path class="cls-16" d="M106.972,41.7a3.5,3.5,0,0,0,2.263,2.071,13.584,13.584,0,0,0,4.791.972,8.552,8.552,0,0,0,2.655-.324c1.4-.4,3.881-.91,4.49-2.439.983-2.461-1.967-3.265-3.777-2.84-2.206.512-4.328,1.481-6.605,1.662a9.215,9.215,0,0,1-1.165-.1C108.333,40.559,106.616,40.445,106.972,41.7Z"/><path class="cls-17" d="M118.669,41.856a8.817,8.817,0,0,1-1.171.1c-2.277-.18-4.4-1.143-6.6-1.662-1.812-.424-4.759.379-3.779,2.842.607,1.527,3.092,2.038,4.488,2.444a8.755,8.755,0,0,0,2.657.323,13.661,13.661,0,0,0,4.8-.974,3.512,3.512,0,0,0,2.265-2.072C121.678,41.6,119.959,41.716,118.669,41.856Z"/><path class="cls-11" d="M63.366,40.708c.177,4.174-4,3.883-4,3.883H55.04s-4.176.291-4-3.883c.171-3.88,3.869-8.1,6.13-7.992a.067.067,0,0,1,.033-.007c.012,0,.02,0,.027.007C59.5,32.6,63.2,36.828,63.366,40.708Z"/><path class="cls-12" d="M52.306,41.942s-.55-.513-.422-.788.432-.147.527.25S52.524,42.229,52.306,41.942Z"/><path class="cls-12" d="M53.039,39.324s-.226-.722.021-.895.449.086.329.482S53.087,39.679,53.039,39.324Z"/><path class="cls-12" d="M55.933,39.479s-.346-.669-.132-.885.457.008.409.419S56.042,39.815,55.933,39.479Z"/><path class="cls-12" d="M58.683,39.461s-.346-.672-.132-.886.458.006.409.412S58.8,39.8,58.683,39.461Z"/><path class="cls-12" d="M61.3,39.409s-.532-.525-.4-.794.435-.14.519.263S61.51,39.7,61.3,39.409Z"/><path class="cls-12" d="M54.273,36.642s-.2-.621.019-.771.387.073.285.413S54.317,36.953,54.273,36.642Z"/><path class="cls-12" d="M56.326,36.846s-.192-.618.019-.767.388.073.289.409S56.369,37.154,56.326,36.846Z"/><path class="cls-12" d="M55.487,34.481s-.01-.47.167-.531.251.125.116.345S55.457,34.7,55.487,34.481Z"/><path class="cls-12" d="M58.923,34.539s-.326-.327-.244-.5.269-.085.32.168S59.055,34.728,58.923,34.539Z"/><path class="cls-12" d="M57.112,34.533s-.228-.409-.1-.544.281-.009.259.248S57.188,34.744,57.112,34.533Z"/><path class="cls-12" d="M58.323,36.846s-.4-.513-.249-.724.385-.067.409.284S58.468,37.124,58.323,36.846Z"/><path class="cls-12" d="M60.394,37.023s-.469-.462-.343-.693.372-.122.446.229S60.57,37.27,60.394,37.023Z"/><path class="cls-12" d="M54.839,41.921s-.391-.642-.2-.868.457-.031.443.379S54.974,42.254,54.839,41.921Z"/><path class="cls-12" d="M57.53,41.918s-.3-.693-.068-.89.45.035.377.444S57.612,42.269,57.53,41.918Z"/><path class="cls-12" d="M60.163,41.933s-.253-.708-.015-.892.451.061.352.461S60.232,42.284,60.163,41.933Z"/><path class="cls-12" d="M62.226,41.924s-.2-.728.055-.889.442.1.315.488S62.266,42.281,62.226,41.924Z"/><path class="cls-13" d="M56.756,32.8a1.559,1.559,0,0,1,.448-.092,1.531,1.531,0,0,1,.447.092Z"/><path class="cls-14" d="M59.363,44.591H55.04a4.613,4.613,0,0,1-2.632-.694,3.144,3.144,0,0,1,2.226-.25s-1.074-1.076.215-1.106a4.851,4.851,0,0,1,2.3.568s-.264-.73.618-.568a1.65,1.65,0,0,1,1.182,1.026,3.55,3.55,0,0,0,2.465-4.148c-.375-3.478-3.162-5.717-4.529-5.769-1.006-.04-2.928,1.027-4.391,2.735,1.334-2.16,3.307-3.764,4.711-3.676a1.559,1.559,0,0,0-.448.092h.9a1.531,1.531,0,0,0-.447-.092c2.264-.141,5.992,4.1,6.162,8C63.543,44.882,59.363,44.591,59.363,44.591Z"/><path class="cls-15" d="M57.9,44.646c0-.126-.248-.235-.559-.235s-.547.109-.547.235.247.236.547.236S57.9,44.777,57.9,44.646Z"/><path class="cls-16" d="M49.458,42.834a3.514,3.514,0,0,0,2.264,2.071,13.666,13.666,0,0,0,4.794.975,8.692,8.692,0,0,0,2.655-.323c1.4-.407,3.88-.917,4.49-2.442.984-2.466-1.97-3.265-3.781-2.845-2.205.52-4.32,1.483-6.6,1.663a7.9,7.9,0,0,1-1.167-.1C50.821,41.7,49.106,41.575,49.458,42.834Z"/><path class="cls-17" d="M61.157,42.993a9.9,9.9,0,0,1-1.168.092c-2.28-.178-4.4-1.14-6.6-1.659-1.811-.425-4.762.376-3.78,2.842.608,1.527,3.1,2.034,4.489,2.444a8.783,8.783,0,0,0,2.656.323,13.71,13.71,0,0,0,4.794-.975,3.52,3.52,0,0,0,2.265-2.074C64.166,42.733,62.448,42.85,61.157,42.993Z"/><path class="cls-11" d="M82.537,42.608c.177,4.167-4.005,3.88-4.005,3.88H74.215s-4.179.287-4-3.88c.164-3.886,3.861-8.1,6.131-8H76.4C78.673,34.509,82.363,38.722,82.537,42.608Z"/><path class="cls-12" d="M71.477,43.833s-.546-.51-.418-.781.427-.151.522.25S71.7,44.124,71.477,43.833Z"/><path class="cls-12" d="M72.208,41.222s-.224-.722.023-.893.446.079.33.477S72.258,41.572,72.208,41.222Z"/><path class="cls-12" d="M75.1,41.374s-.342-.672-.131-.88.455,0,.409.412S75.214,41.716,75.1,41.374Z"/><path class="cls-12" d="M77.853,41.355s-.342-.666-.131-.879.455,0,.406.409S77.964,41.7,77.853,41.355Z"/><path class="cls-12" d="M80.466,41.307s-.531-.526-.4-.8.439-.134.515.266S80.68,41.6,80.466,41.307Z"/><path class="cls-12" d="M73.443,38.536s-.2-.617.015-.765.391.068.293.41S73.491,38.851,73.443,38.536Z"/><path class="cls-12" d="M75.5,38.743s-.194-.62.015-.769.391.073.291.415S75.539,39.049,75.5,38.743Z"/><path class="cls-12" d="M74.661,36.372s-.017-.461.158-.521.257.122.123.338S74.629,36.6,74.661,36.372Z"/><path class="cls-12" d="M78.1,36.436s-.334-.33-.246-.492.268-.085.322.162S78.229,36.62,78.1,36.436Z"/><path class="cls-12" d="M76.282,36.431s-.228-.41-.1-.547.283-.006.262.25S76.356,36.642,76.282,36.431Z"/><path class="cls-12" d="M77.491,38.743s-.395-.516-.246-.723.387-.071.413.284S77.638,39.019,77.491,38.743Z"/><path class="cls-12" d="M79.559,38.914s-.46-.452-.339-.687.375-.123.442.226S79.741,39.165,79.559,38.914Z"/><path class="cls-12" d="M74.012,43.815s-.4-.638-.2-.865.456-.03.44.376S74.144,44.154,74.012,43.815Z"/><path class="cls-12" d="M76.7,43.811s-.3-.687-.066-.888.453.04.38.446S76.781,44.166,76.7,43.811Z"/><path class="cls-12" d="M79.335,43.827s-.26-.7-.017-.886.45.061.353.458S79.405,44.185,79.335,43.827Z"/><path class="cls-12" d="M81.4,43.821s-.2-.727.051-.892.448.1.321.492S81.431,44.185,81.4,43.821Z"/><path class="cls-13" d="M75.926,34.7a1.139,1.139,0,0,1,.9,0Z"/><path class="cls-14" d="M78.532,46.488H74.215a4.663,4.663,0,0,1-2.636-.69,3.089,3.089,0,0,1,2.227-.25s-1.073-1.079.216-1.109a4.82,4.82,0,0,1,2.3.568s-.272-.731.615-.568a1.636,1.636,0,0,1,1.175,1.026,3.559,3.559,0,0,0,2.469-4.15c-.379-3.479-3.162-5.715-4.531-5.773-1.011-.037-2.927,1.032-4.385,2.743,1.33-2.163,3.3-3.77,4.707-3.679a1.649,1.649,0,0,0-.45.092h.9a1.659,1.659,0,0,0-.447-.092c2.263-.143,5.987,4.1,6.161,8C82.714,46.775,78.532,46.488,78.532,46.488Z"/><path class="cls-15" d="M77.073,46.543c0-.131-.25-.235-.553-.235s-.554.1-.554.235.246.229.554.229S77.073,46.672,77.073,46.543Z"/><path class="cls-16" d="M68.633,44.731A3.5,3.5,0,0,0,70.894,46.8a13.722,13.722,0,0,0,4.792.971,8.808,8.808,0,0,0,2.659-.32c1.4-.406,3.878-.92,4.487-2.444.987-2.463-1.966-3.267-3.784-2.839-2.2.514-4.321,1.476-6.6,1.656a8.421,8.421,0,0,1-1.165-.095C69.993,43.592,68.272,43.473,68.633,44.731Z"/><path class="cls-17" d="M80.325,44.885a8.965,8.965,0,0,1-1.17.1c-2.276-.183-4.39-1.145-6.6-1.665-1.815-.422-4.765.379-3.78,2.841.605,1.528,3.093,2.041,4.486,2.451a9.15,9.15,0,0,0,2.661.318,13.555,13.555,0,0,0,4.794-.975,3.5,3.5,0,0,0,2.257-2.071C83.335,44.628,81.618,44.744,80.325,44.885Z"/></g></g></g></svg>