<svg xmlns="http://www.w3.org/2000/svg" viewBox="0 0 1100.48 1709.851"><defs><style>.cls-1{fill:#f62c52;}.cls-14,.cls-18,.cls-2,.cls-23,.cls-7{fill:none;stroke-miterlimit:10;stroke-width:15px;}.cls-2{stroke:#c6083a;}.cls-3{fill:#f589a2;}.cls-4{fill:#c6083a;}.cls-5{fill:#ff546b;}.cls-6{fill:#19b6e1;}.cls-7{stroke:#19b6e1;}.cls-8{fill:#74ffff;}.cls-9{fill:#0feafd;}.cls-10{fill:#0fa5d1;}.cls-11{fill:#6af9fd;}.cls-12{fill:#68fbfa;}.cls-13{fill:#c6d031;}.cls-14{stroke:#c6d031;}.cls-15{fill:#e2e756;}.cls-16{fill:#9eb817;}.cls-17{fill:#1080e1;}.cls-18{stroke:#1080e1;}.cls-19{fill:#60c7fb;}.cls-20{fill:#015cb4;}.cls-21{fill:#3baaf1;}.cls-22{fill:#ffc436;}.cls-23{stroke:#ffc436;}.cls-24{fill:#f7fa7a;}.cls-25{fill:#fd9306;}.cls-26{fill:#ffe77d;}</style></defs><title>Asset 6</title><g id="Layer_2" data-name="Layer 2"><g id="Layer_1-2" data-name="Layer 1"><path class="cls-1" d="M589.564,459.015l26.828,39.837s-23.742,19.477-40.434,9.738S589.564,459.015,589.564,459.015Z"/><path class="cls-2" d="M593.666,477.449S733.2,436,743.431,602.43s-109.134,112.431-94.64,355,225.941,110.66,196.953,59.314-172.227-70.822-110.84,90.3S948,1083.2,1006.034,1314.2c10.231,40.723-119.762,43.052-73.324-42.494,0,0,141.533-97.38,160.29,155.809"/><path class="cls-3" d="M685.592,118.435s99.444,267.114-96.028,347.921C439.228,528.505,326.731,309.231,326.731,309.231s-62.693-105.5-4.324-202.019C391.96-7.8,575.958-65.626,685.592,118.435Z"/><path class="cls-1" d="M685.641,126.475s95.853,261.132-92.562,340.13C448.17,527.362,339.734,313,339.734,313S279.305,209.862,335.567,115.5C402.609,3.064,579.965-53.465,685.641,126.475Z"/><path class="cls-4" d="M680.592,147.207s95.744,245.152-85.4,319.971C455.872,524.721,341.864,289.029,341.864,289.029s140.518,51.627,234.094-29.491c59.055-51.192,38.4-164.268-33.046-210.687C509.345,27.043,636.139,44.151,680.592,147.207Z"/><path class="cls-5" d="M459.466,104.182S441.78,78.953,411.906,79.49c-49.789.9-123.223,84.1-70.042,145.9C406.274,300.248,523.869,163.093,459.466,104.182Z"/><path class="cls-1" d="M400.761,335.381s103.452-5.9,103.452,65.1C504.213,434.993,432.485,426.337,400.761,335.381Z"/><path class="cls-5" d="M514.37,49.143S464.391-1.7,433.216,70.1C423.442,92.605,532.531,71.577,514.37,49.143Z"/><path class="cls-1" d="M183.737,342.579l13.914,24.98s-12.314,12.212-20.971,6.106S183.737,342.579,183.737,342.579Z"/><path class="cls-2" d="M185.864,354.138s72.368-25.992,77.674,78.368-56.6,70.5-49.084,222.6S331.636,724.492,316.6,692.3s-89.323-44.408-57.485,56.621,110.518-14.951,140.618,129.895c5.307,25.535-62.113,27-38.028-26.645,0,0,73.4-61.062,83.133,97.7"/><path class="cls-3" d="M233.541,129.022s51.575,167.491-49.8,218.161c-77.971,38.969-136.316-98.525-136.316-98.525s-32.515-66.151-2.243-126.673C81.251,49.866,176.68,13.608,233.541,129.022Z"/><path class="cls-1" d="M233.566,134.063S283.279,297.8,185.56,347.338c-75.156,38.1-131.4-96.317-131.4-96.317S22.824,186.35,52,127.183C86.774,56.68,178.758,21.234,233.566,134.063Z"/><path class="cls-4" d="M230.947,147.063S280.6,300.784,186.655,347.7C114.4,383.78,55.269,235.991,55.269,235.991S128.147,268.363,176.68,217.5c30.628-32.1,19.917-103-17.139-132.109C142.132,71.715,207.892,82.443,230.947,147.063Z"/><path class="cls-5" d="M116.263,120.084S107.09,104.265,91.6,104.6c-25.822.562-63.908,52.733-36.327,91.487C88.675,243.026,149.665,157.024,116.263,120.084Z"/><path class="cls-1" d="M85.816,265.056s53.654-3.7,53.654,40.817C139.47,327.517,102.269,322.089,85.816,265.056Z"/><path class="cls-5" d="M144.738,85.573S118.817,53.7,102.648,98.712C97.579,112.825,154.157,99.64,144.738,85.573Z"/><path class="cls-6" d="M282.245,338.823l17.321,24.6s-15.329,12.025-26.106,6.012S282.245,338.823,282.245,338.823Z"/><path class="cls-7" d="M284.893,350.206s90.091-25.6,96.7,77.171-70.463,69.421-61.1,219.2S466.366,714.9,447.65,683.2s-111.2-43.73-71.565,55.756,137.586-14.723,175.058,127.911c6.606,25.144-77.326,26.583-47.343-26.239,0,0,91.382-60.128,103.493,96.207"/><path class="cls-8" d="M344.246,128.528s64.207,164.933-62,214.828c-97.067,38.375-169.7-97.019-169.7-97.019S72.065,181.2,109.752,121.6C154.66,50.581,273.46,14.877,344.246,128.528Z"/><path class="cls-9" d="M344.277,133.493s61.889,161.239-59.763,210.017c-93.562,37.515-163.575-94.847-163.575-94.847s-39.017-63.682-2.69-121.945C161.535,57.291,276.047,22.387,344.277,133.493Z"/><path class="cls-10" d="M341.018,146.294s61.818,151.372-55.141,197.57c-89.952,35.531-163.563-110-163.563-110s90.727,31.878,151.146-18.209c38.129-31.609,24.794-101.43-21.337-130.091C230.45,72.1,312.316,82.661,341.018,146.294Z"/><path class="cls-11" d="M198.246,119.727s-11.42-15.577-30.708-15.246c-32.147.554-79.561,51.928-45.224,90.09C163.9,240.791,239.828,156.1,198.246,119.727Z"/><path class="cls-9" d="M160.342,262.484s66.795-3.642,66.795,40.194C227.137,323.991,180.825,318.646,160.342,262.484Z"/><path class="cls-12" d="M233.7,85.743s-32.27-31.391-52.4,12.938C174.986,112.579,245.421,99.6,233.7,85.743Z"/><path class="cls-13" d="M205.406,517.78l7.726,13.654s-6.838,6.675-11.645,3.338S205.406,517.78,205.406,517.78Z"/><path class="cls-14" d="M206.587,524.1s40.187-14.208,43.134,42.837-31.432,38.536-27.258,121.676,65.074,37.929,56.725,20.33-49.6-24.274-31.923,30.95,61.373-8.172,78.088,71c2.946,13.958-34.493,14.757-21.118-14.564,0,0,40.762-33.378,46.165,53.4"/><path class="cls-15" d="M233.063,401.045S261.7,492.6,205.406,520.3c-43.3,21.3-75.7-53.855-75.7-53.855s-18.056-36.16-1.245-69.243C148.494,357.777,201.487,337.958,233.063,401.045Z"/><path class="cls-13" d="M233.076,403.8s27.607,89.5-26.658,116.58c-41.735,20.825-72.966-52.649-72.966-52.649s-17.4-35.35-1.2-67.692C151.561,361.5,202.641,342.126,233.076,403.8Z"/><path class="cls-16" d="M231.623,410.907s27.575,84.026-24.6,109.671c-40.125,19.723-72.96-61.062-72.96-61.062s40.47,17.7,67.421-10.108c17.008-17.546,11.06-56.3-9.517-72.213C182.3,369.72,218.82,375.584,231.623,410.907Z"/><path class="cls-15" d="M167.936,396.16s-5.094-8.647-13.7-8.463c-14.34.307-35.49,28.825-20.173,50.008C152.616,463.362,186.485,416.352,167.936,396.16Z"/><path class="cls-13" d="M151.029,475.4s29.8-2.022,29.8,22.311C180.824,509.546,160.166,506.579,151.029,475.4Z"/><path class="cls-15" d="M183.749,377.3s-14.394-17.425-23.373,7.182C157.561,392.192,188.98,384.985,183.749,377.3Z"/><path class="cls-17" d="M86.466,428.619l7.944,14.289s-7.03,6.986-11.972,3.493S86.466,428.619,86.466,428.619Z"/><path class="cls-18" d="M87.681,435.231S129,420.363,132.025,480.06,99.711,520.387,104,607.391s66.9,39.692,58.316,21.275-50.995-25.4-32.818,32.389,63.1-8.553,80.279,74.3c3.03,14.607-35.46,15.442-21.71-15.242,0,0,41.907-34.929,47.461,55.886"/><path class="cls-19" d="M114.9,306.459s29.444,95.809-28.434,124.793C41.953,453.544,8.643,374.894,8.643,374.894s-18.563-37.84-1.28-72.461C27.957,261.18,82.438,240.439,114.9,306.459Z"/><path class="cls-17" d="M114.914,309.343s28.382,93.663-27.407,122c-42.907,21.792-75.014-55.1-75.014-55.1S-5.4,339.252,11.259,305.407C31.11,265.077,83.624,244.8,114.914,309.343Z"/><path class="cls-20" d="M113.419,316.779s28.349,87.932-25.287,114.768c-41.251,20.64-75.008-63.9-75.008-63.9S54.73,386.166,82.438,357.07c17.485-18.362,11.37-58.92-9.785-75.57C62.714,273.678,100.257,279.815,113.419,316.779Z"/><path class="cls-21" d="M47.945,301.346s-5.237-9.049-14.082-8.856c-14.742.322-36.486,30.165-20.739,52.333C32.2,371.672,67.014,322.477,47.945,301.346Z"/><path class="cls-21" d="M30.563,384.274s30.631-2.116,30.631,23.348C61.194,420,39.956,416.9,30.563,384.274Z"/><path class="cls-21" d="M64.2,281.605s-14.8-18.235-24.029,7.516C37.279,297.194,69.579,289.652,64.2,281.605Z"/><path class="cls-13" d="M396.949,399.321l17.322,24.6s-15.33,12.026-26.107,6.013S396.949,399.321,396.949,399.321Z"/><path class="cls-14" d="M399.6,410.7s90.091-25.594,96.7,77.172-70.464,69.421-61.106,219.2S581.071,775.4,562.354,743.7s-111.2-43.73-71.564,55.756,137.585-14.723,175.057,127.91c6.606,25.145-77.325,26.583-47.342-26.238,0,0,91.382-60.129,103.493,96.207"/><path class="cls-15" d="M458.951,189.026s64.206,164.933-62,214.828c-97.066,38.375-169.7-97.019-169.7-97.019S186.77,241.694,224.456,182.1C269.364,111.079,388.164,75.375,458.951,189.026Z"/><path class="cls-13" d="M458.982,193.99s61.889,161.239-59.763,210.018c-93.562,37.515-163.575-94.847-163.575-94.847s-39.017-63.683-2.691-121.945C276.239,117.789,390.751,82.884,458.982,193.99Z"/><path class="cls-16" d="M455.722,206.791s61.818,151.373-55.14,197.571c-89.953,35.53-163.563-110-163.563-110s90.726,31.878,151.145-18.209c38.13-31.61,24.8-101.43-21.336-130.091C345.155,132.6,427.021,143.159,455.722,206.791Z"/><path class="cls-15" d="M312.95,180.225s-11.419-15.578-30.708-15.246c-32.147.553-79.56,51.928-45.223,90.089C278.606,301.288,354.533,216.6,312.95,180.225Z"/><path class="cls-13" d="M275.046,322.982s66.8-3.642,66.8,40.194C341.841,384.489,295.53,379.144,275.046,322.982Z"/><path class="cls-15" d="M348.4,146.241S316.13,114.85,296,159.179C289.691,173.077,360.125,160.093,348.4,146.241Z"/><path class="cls-22" d="M503.055,842.762l22.956,35.644s-20.316,17.427-34.6,8.713S503.055,842.762,503.055,842.762Z"/><path class="cls-23" d="M506.565,859.256s119.4-37.089,128.153,111.826-93.386,100.6-80.983,317.633,193.338,99.013,168.532,53.071-147.374-63.368-94.845,80.794,182.344-21.334,232.006,185.352c8.755,36.437-102.48,38.521-62.744-38.021,0,0,121.11-87.131,137.161,139.41"/><path class="cls-24" d="M585.226,538.029s85.093,239-82.171,311.3C374.412,904.938,278.148,708.743,278.148,708.743s-53.646-94.4-3.7-180.756C333.965,425.078,491.412,373.34,585.226,538.029Z"/><path class="cls-22" d="M585.267,545.222s82.022,233.648-79.2,304.331c-124,54.362-216.788-137.44-216.788-137.44s-51.709-92.281-3.566-176.708C343.077,434.8,494.84,384.222,585.267,545.222Z"/><path class="cls-25" d="M580.947,563.772s81.928,219.35-73.078,286.294C388.654,901.553,291.1,690.667,291.1,690.667S411.338,736.86,491.412,664.28c50.533-45.8,32.86-146.978-28.277-188.511C434.411,456.255,542.909,471.563,580.947,563.772Z"/><path class="cls-26" d="M391.73,525.276s-15.134-22.574-40.7-22.093c-42.605.8-105.442,75.247-59.936,130.546C346.213,700.705,446.84,577.986,391.73,525.276Z"/><path class="cls-22" d="M341.5,732.141s88.524-5.278,88.524,58.243C430.02,821.269,368.642,813.524,341.5,732.141Z"/><path class="cls-26" d="M438.711,476.03s-42.767-45.488-69.443,18.748C360.9,514.917,454.252,496.1,438.711,476.03Z"/></g></g></svg>