<svg xmlns="http://www.w3.org/2000/svg" viewBox="0 0 1084.475 1582.586"><defs><style>.cls-1{fill:#ffc436;}.cls-14,.cls-19,.cls-2,.cls-23,.cls-7{fill:none;stroke-miterlimit:10;stroke-width:15px;}.cls-2{stroke:#ffc436;}.cls-3{fill:#f7fa7a;}.cls-4{fill:#fd9306;}.cls-5{fill:#ffe77d;}.cls-6{fill:#19b6e1;}.cls-7{stroke:#19b6e1;}.cls-8{fill:#74ffff;}.cls-9{fill:#0feafd;}.cls-10{fill:#0fa5d1;}.cls-11{fill:#6af9fd;}.cls-12{fill:#68fbfa;}.cls-13{fill:#f62c52;}.cls-14{stroke:#c6083a;}.cls-15{fill:#f589a2;}.cls-16{fill:#c6083a;}.cls-17{fill:#ff546b;}.cls-18{fill:#c6d031;}.cls-19{stroke:#c6d031;}.cls-20{fill:#e2e756;}.cls-21{fill:#9eb817;}.cls-22{fill:#1080e1;}.cls-23{stroke:#1080e1;}.cls-24{fill:#60c7fb;}.cls-25{fill:#015cb4;}.cls-26{fill:#3baaf1;}</style></defs><title>Asset 4</title><g id="Layer_2" data-name="Layer 2"><g id="Layer_1-2" data-name="Layer 1"><path class="cls-1" d="M530.571,429.65,502.7,466.939s24.669,18.231,42.012,9.116S530.571,429.65,530.571,429.65Z"/><path class="cls-2" d="M526.309,446.905S381.327,408.106,370.7,563.891s113.4,105.238,98.335,332.287S234.266,999.758,264.387,951.7s178.953-66.292,115.168,84.522S158.14,1013.9,97.837,1230.122c-10.631,38.118,124.439,40.3,76.188-39.775,0,0-147.06-91.151-166.55,145.842"/><path class="cls-3" d="M430.793,110.859S327.466,360.884,530.571,436.522c156.207,58.173,273.1-147.074,273.1-147.074s65.141-98.749,4.492-189.095C735.892-7.3,544.708-61.428,430.793,110.859Z"/><path class="cls-1" d="M430.743,118.384s-99.6,244.426,96.176,318.371c150.568,56.87,263.238-143.781,263.238-143.781s62.79-96.538,4.331-184.86C724.827,2.868,540.545-50.044,430.743,118.384Z"/><path class="cls-4" d="M435.988,137.789s-99.482,229.47,88.737,299.5c144.759,53.861,263.22-166.753,263.22-166.753s-146.006,48.324-243.237-27.6c-61.361-47.917-39.9-153.759,34.337-197.208C613.923,25.313,482.177,41.327,435.988,137.789Z"/><path class="cls-5" d="M665.75,97.517S684.127,73.9,715.167,74.405c51.734.839,128.035,78.719,72.778,136.569C721.019,281.04,598.831,152.659,665.75,97.517Z"/><path class="cls-1" d="M726.748,313.926s-107.493-5.521-107.493,60.93C619.255,407.166,693.784,399.063,726.748,313.926Z"/><path class="cls-5" d="M608.7,46s51.93-47.586,84.323,19.614C703.18,86.681,589.831,67,608.7,46Z"/><path class="cls-6" d="M902.589,329.05l-16.677,22.937s14.759,11.214,25.135,5.607S902.589,329.05,902.589,329.05Z"/><path class="cls-7" d="M900.039,339.664s-86.738-23.866-93.1,71.959,67.841,64.732,58.831,204.392S725.32,679.728,743.34,650.165s107.062-40.776,68.9,51.99S679.776,688.427,643.7,821.427c-6.36,23.446,74.447,24.787,45.58-24.466,0,0-87.981-56.068-99.641,89.708"/><path class="cls-8" d="M842.9,132.959s-61.817,153.793,59.694,200.318c93.453,35.783,163.385-90.466,163.385-90.466s38.972-60.742,2.688-116.314C1025.425,60.277,911.047,26.984,842.9,132.959Z"/><path class="cls-9" d="M842.865,137.588S783.28,287.937,900.4,333.42c90.08,34.981,157.487-88.44,157.487-88.44s37.564-59.382,2.59-113.709C1018.806,66.533,908.556,33.986,842.865,137.588Z"/><path class="cls-10" d="M846,149.524S786.486,290.673,899.091,333.75c86.605,33.131,157.476-102.571,157.476-102.571S969.217,260.9,911.047,214.2c-36.711-29.475-23.872-94.579,20.542-121.3C952.456,80.339,873.636,90.189,846,149.524Z"/><path class="cls-11" d="M983.462,124.752s10.994-14.525,29.564-14.216c30.951.516,76.6,48.421,43.541,84.005C1016.528,237.639,943.427,158.671,983.462,124.752Z"/><path class="cls-9" d="M1019.955,257.867s-64.309-3.4-64.309,37.479C955.646,315.22,1000.234,310.236,1019.955,257.867Z"/><path class="cls-12" d="M949.332,93.063S980.4,63.792,999.78,105.128C1005.855,118.087,938.042,105.98,949.332,93.063Z"/><path class="cls-13" d="M815.41,313.846l-13.4,23.293s11.855,11.387,20.189,5.694S815.41,313.846,815.41,313.846Z"/><path class="cls-14" d="M813.361,324.624s-69.674-24.236-74.783,73.076,54.5,65.737,47.257,207.563-112.82,64.7-98.345,34.68,86-41.409,55.346,52.8S636.431,678.8,607.451,813.861c-5.109,23.81,59.8,25.172,36.613-24.846,0,0-70.672-56.937-80.039,91.1"/><path class="cls-15" d="M767.459,114.713S717.8,270.892,815.41,318.139c75.068,36.337,131.242-91.87,131.242-91.87s31.3-61.684,2.159-118.118C914.08,40.9,822.2,7.094,767.459,114.713Z"/><path class="cls-13" d="M767.435,119.414S719.572,272.1,813.654,318.284c72.359,35.524,126.505-89.812,126.505-89.812s30.174-60.3,2.081-115.473C908.763,47.257,820.2,14.205,767.435,119.414Z"/><path class="cls-16" d="M769.956,131.535S722.148,274.874,812.6,318.619c69.567,33.645,126.5-104.162,126.5-104.162S868.93,244.643,822.2,197.214c-29.488-29.931-19.175-96.046,16.5-123.186C855.466,61.277,792.153,71.28,769.956,131.535Z"/><path class="cls-17" d="M880.372,106.379s8.832-14.751,23.749-14.436c24.861.523,61.53,49.171,34.975,85.307C906.933,221.017,848.213,140.824,880.372,106.379Z"/><path class="cls-13" d="M909.686,241.559s-51.658-3.449-51.658,38.06C858.028,299.8,893.845,294.74,909.686,241.559Z"/><path class="cls-17" d="M852.957,74.2S877.913,44.474,893.48,86.45C898.36,99.61,843.888,87.316,852.957,74.2Z"/><path class="cls-18" d="M1003.5,470.978l-7.439,12.732s6.583,6.225,11.211,3.112S1003.5,470.978,1003.5,470.978Z"/><path class="cls-19" d="M1002.362,476.869s-38.691-13.247-41.528,39.945,30.262,35.933,26.243,113.457-62.651,35.368-54.613,18.957,47.757-22.635,30.734,28.86-59.088-7.621-75.181,66.207c-2.837,13.015,33.209,13.76,20.332-13.581,0,0-39.246-31.123-44.447,49.8"/><path class="cls-20" d="M976.872,362.128S949.3,447.5,1003.5,473.324c41.686,19.863,72.881-50.217,72.881-50.217s17.384-33.718,1.2-64.566C1058.293,321.782,1007.272,303.3,976.872,362.128Z"/><path class="cls-18" d="M976.859,364.7S950.28,448.156,1002.525,473.4c40.182,19.418,70.25-49.093,70.25-49.093s16.756-32.963,1.156-63.12C1055.34,325.255,1006.162,307.188,976.859,364.7Z"/><path class="cls-21" d="M978.259,371.323s-26.549,78.352,23.681,102.264c38.631,18.391,70.245-56.937,70.245-56.937s-38.965,16.5-64.913-9.425c-16.375-16.362-10.648-52.5,9.164-67.336C1025.744,332.919,990.585,338.387,978.259,371.323Z"/><path class="cls-20" d="M1039.575,357.572s4.9-8.063,13.187-7.891c13.806.286,34.169,26.878,19.423,46.631C1054.324,420.236,1021.716,376.4,1039.575,357.572Z"/><path class="cls-18" d="M1055.853,431.464s-28.686-1.885-28.686,20.805C1027.167,463.3,1047.056,460.534,1055.853,431.464Z"/><path class="cls-20" d="M1024.35,339.982s13.859-16.248,22.5,6.7C1049.564,353.873,1019.314,347.152,1024.35,339.982Z"/><path class="cls-22" d="M880.271,476.026l-7.648,13.324s6.768,6.514,11.526,3.257S880.271,476.026,880.271,476.026Z"/><path class="cls-23" d="M879.1,482.191s-39.777-13.864-42.694,41.8,31.112,37.6,26.98,118.731-64.41,37.011-56.146,19.838,49.1-23.687,31.6,30.2-60.747-7.975-77.292,69.285c-2.917,13.62,34.141,14.4,20.9-14.212,0,0-40.347-32.57-45.695,52.111"/><path class="cls-24" d="M852.9,362.116s-28.349,89.338,27.375,116.365c42.857,20.786,74.927-52.552,74.927-52.552s17.872-35.285,1.232-67.566C936.6,319.9,884.149,300.556,852.9,362.116Z"/><path class="cls-22" d="M852.882,364.805s-27.325,87.338,26.387,113.759c41.309,20.321,72.222-51.375,72.222-51.375s17.226-34.494,1.188-66.053C933.567,323.53,883.007,304.623,852.882,364.805Z"/><path class="cls-25" d="M854.321,371.739s-27.294,81.993,24.346,107.017c39.716,19.246,72.217-59.583,72.217-59.583s-40.058,17.267-66.735-9.864c-16.835-17.121-10.947-54.941,9.421-70.466C903.139,331.549,866.993,337.272,854.321,371.739Z"/><path class="cls-26" d="M917.358,357.349s5.042-8.438,13.558-8.258c14.194.3,35.128,28.127,19.968,48.8C932.522,422.925,899,377.052,917.358,357.349Z"/><path class="cls-26" d="M934.094,434.675S904.6,432.7,904.6,456.447C904.6,467.992,925.05,465.1,934.094,434.675Z"/><path class="cls-26" d="M901.707,338.941s14.247-17,23.134,7.008C927.628,353.477,896.529,346.444,901.707,338.941Z"/><path class="cls-18" d="M709.5,377.445l-16.677,22.937s14.759,11.213,25.135,5.607S709.5,377.445,709.5,377.445Z"/><path class="cls-19" d="M706.951,388.059s-86.738-23.866-93.1,71.958,67.841,64.733,58.831,204.393-140.452,63.713-122.432,34.15,107.062-40.776,68.9,51.99S486.688,736.822,450.611,869.821c-6.36,23.447,74.447,24.788,45.581-24.466,0,0-87.982-56.067-99.642,89.709"/><path class="cls-20" d="M649.807,181.354S587.99,335.146,709.5,381.672c93.454,35.783,163.385-90.466,163.385-90.466s38.972-60.742,2.688-116.314C832.338,108.671,717.959,75.379,649.807,181.354Z"/><path class="cls-18" d="M649.777,185.983s-59.585,150.348,57.539,195.832C797.4,416.8,864.8,293.375,864.8,293.375s37.565-59.382,2.591-113.71C825.718,114.928,715.469,82.381,649.777,185.983Z"/><path class="cls-21" d="M652.915,197.919S593.4,339.068,706,382.145c86.6,33.131,157.475-102.571,157.475-102.571S776.129,309.3,717.959,262.6c-36.71-29.475-23.872-94.579,20.542-121.305C759.368,128.734,680.549,138.584,652.915,197.919Z"/><path class="cls-20" d="M790.374,173.147s10.994-14.526,29.565-14.216c30.95.516,76.6,48.42,43.54,84C823.44,286.034,750.339,207.066,790.374,173.147Z"/><path class="cls-18" d="M826.867,306.262s-64.309-3.4-64.309,37.479C762.558,363.614,807.146,358.631,826.867,306.262Z"/><path class="cls-20" d="M756.244,141.458s31.069-29.271,50.448,12.065C812.768,166.482,744.955,154.375,756.244,141.458Z"/><path class="cls-13" d="M572.841,755.106,550.3,789.121s19.949,16.629,33.974,8.314S572.841,755.106,572.841,755.106Z"/><path class="cls-14" d="M569.4,770.846S452.154,735.453,443.557,877.559s91.7,96,79.52,303.108-189.845,94.486-165.487,50.644,144.711-60.47,93.131,77.1-179.049-20.358-227.814,176.877c-8.6,34.77,100.629,36.759,61.61-36.283,0,0-118.921-83.147-134.682,133.036"/><path class="cls-15" d="M492.155,464.308S408.6,692.378,572.841,761.374C699.16,814.439,793.684,627.215,793.684,627.215s52.677-90.078,3.633-172.49C738.876,356.522,584.274,307.15,492.155,464.308Z"/><path class="cls-13" d="M492.114,471.172s-80.539,222.963,77.774,290.415c121.758,51.876,212.87-131.155,212.87-131.155s50.775-88.062,3.5-168.628C729.929,365.8,580.907,317.534,492.114,471.172Z"/><path class="cls-16" d="M496.356,488.874s-80.447,209.319,71.758,273.2c117.061,49.133,212.855-152.11,212.855-152.11s-118.068,44.081-196.7-25.18c-49.621-43.71-32.267-140.258,27.766-179.892C640.245,386.273,533.707,400.881,496.356,488.874Z"/><path class="cls-17" d="M682.155,452.137s14.861-21.541,39.962-21.082c41.835.765,103.537,71.806,58.852,124.577C726.849,619.545,628.041,502.438,682.155,452.137Z"/><path class="cls-13" d="M731.482,649.543s-86.925-5.036-86.925,55.58C644.557,734.6,704.825,727.205,731.482,649.543Z"/><path class="cls-17" d="M636.023,405.144s41.994-43.409,68.188,17.891C712.424,442.253,620.763,424.3,636.023,405.144Z"/></g></g></svg>