<svg xmlns="http://www.w3.org/2000/svg" viewBox="0 0 155.451 202.611"><defs><style>.cls-1{isolation:isolate;}.cls-11,.cls-2{fill:#fc9020;}.cls-11,.cls-3,.cls-5,.cls-7{opacity:0.5;}.cls-10,.cls-3,.cls-4,.cls-5,.cls-7{mix-blend-mode:multiply;}.cls-5,.cls-9{fill:#810061;}.cls-6,.cls-7{fill:#8b00cb;}.cls-10,.cls-8{fill:#24a5df;}.cls-11,.cls-12,.cls-18{mix-blend-mode:screen;}.cls-12,.cls-15{fill:#fff;}.cls-12{opacity:0.8;}.cls-13{fill:#f70020;}.cls-14{fill:#a50b1f;}.cls-15{opacity:0.3;}.cls-16,.cls-18{fill:#fde216;}.cls-17{fill:#fc9915;}</style></defs><title>Asset 7</title><g class="cls-1"><g id="Layer_2" data-name="Layer 2"><g id="Layer_2-2" data-name="Layer 2"><path class="cls-2" d="M13.629,144.753,126.387.6l21,175.115S84.925,200.921,13.629,144.753Z"/><g class="cls-3"><path class="cls-2" d="M126.387.6l-1.4,1.784c-3.109,31.558-19.833,173.475-66.638,153.672-8.983-4.478-14.138-6.477-17.314-9.983s-6.084.137-10.037-5.128c-3.043-4.058-7.178-3.689-9.208-6.633l-8.163,10.441c71.3,56.168,133.753,30.962,133.753,30.962Z"/></g><g class="cls-4"><path class="cls-2" d="M147.382,175.715,126.387.6s3.1,72.151-.629,136.169c-2.1,30.641-23.3,37.783-28.19,33.971s-3.287,2.256-9.563-2.261c-5.353-3.86-22.349,2.577-49.131-6.812C99.046,195.2,147.382,175.715,147.382,175.715Z"/></g><path class="cls-5" d="M126.5,80.812c5.28-2.079,7.018-3.586,7.018-3.586s.891-3.936,1.288-5.533c.22-.926-.439-2.424-1.536-4.029.023.018.035.029.062.047-.124-.18-.278-.384-.458-.607a27.014,27.014,0,0,0-2.564-2.976,19.925,19.925,0,0,0,4.541-1.289c-.368-1.412-.772-2.831-1.162-4.252-.02-.064-.038-.133-.055-.209-1.748.757-4.548,1.259-9.036,1.016-1.272,3.9-1.9,4.939-.437,5.725,1.475.8,7.029,4.019,7.769,6.853a72.862,72.862,0,0,1-10.544,5.343s-1.632,3.231-1.126,5.786c7.874,4.889,8.848,5.559,8.848,5.559a32.857,32.857,0,0,1-6.187,2.684,1.218,1.218,0,0,0-.629.579c-.654,1.167-.622,3.7-.685,5.388a.336.336,0,0,0,.062.143.783.783,0,0,0-.086-.044s.03.029.131.113a36.841,36.841,0,0,0,2.831,2.907,30.566,30.566,0,0,0-4.1,4.324,21.747,21.747,0,0,0-1.924,2.9c-.907,2.151.481,4.539,2.016,7.484a11.2,11.2,0,0,0-3.917,3.371c-1.235,1.727-1.679,3.62-.945,5.008,1.288,2.448,5.836,6.4,5.836,6.4s.758-3.661-3.362-8.764c1.656-1.406,2.968-2.516,3.983-3.406a16.021,16.021,0,0,0,2.654-2.642c-1.969-2.744-3.551-5.856-3.652-7.282,2.65-.226,5.571-1.249,7.194-3.751a7.021,7.021,0,0,0,.568-1.063c1.416-3.285.771-3.728-4.082-7.98a.357.357,0,0,1,.1-.006c3.936-.5,6.769-1.09,7.693-3.131a3.515,3.515,0,0,0,.316-1.218C133.287,86.4,133.852,86.9,126.5,80.812Z"/><path class="cls-5" d="M108.306,131.905c-1.657-1.874-5.285-5.529-5.285-5.529s6.649-.7,8.517-2.545a1.5,1.5,0,0,0,.438-.664c.727-2.338,1-6.552-1.1-7.2s-7.131-3.011-7.131-3.011,4.75-2.145,7.211-3.365c.045-.026.1-.049.137-.072,2.425-1.2,3.135-5.322.847-5.854A21.086,21.086,0,0,1,104.7,99.89c4.947-1.62,7.754-2.511,9.206-3.553a2.745,2.745,0,0,0,1.262-2.694,6.594,6.594,0,0,0-3.14-5.287,3.037,3.037,0,0,1,.391.1,9.621,9.621,0,0,0-1.232-.614,20.221,20.221,0,0,0-5.9-2h.006c7.311-3.1,10.794-3.965,12.315-5.983a5.781,5.781,0,0,0,1.012-3.272c.309-4.952-2.979-6.321-8.118-9.447-2.386-1.46-4.826-2.792-6.356-4.45-1.777-1.906-2.338-4.215-.209-7.586.223-.358.468-.708.725-1.057a1.672,1.672,0,0,1,.119-.162c.236-.329.492-.658.754-.97a2.348,2.348,0,0,1,.167-.2c.268-.323.537-.632.822-.935.057-.057.108-.109.155-.164.283-.285.557-.58.843-.857.042-.034.081-.086.125-.124.3-.3.617-.588.932-.873.089-.075.176-.156.262-.234.3-.268.611-.535.923-.809.1-.093.217-.179.33-.277.31-.251.622-.507.941-.763.116-.095.241-.187.36-.283.241-.2.491-.38.735-.581q.276-.213.565-.429c.244-.179.5-.369.747-.55.188-.159.387-.3.586-.447.018,0,.03-.023.054-.034,1.568-1.158,3.219-2.326,4.879-3.526.336-.245.673-.493,1.009-.726.073.084.148.172.227.262.027.026.05.055.077.084.222.245.455.483.692.725h0a44.79,44.79,0,0,0,6.014,4.779c1.861,1.3,3.379,2.411,4.6,3.361.124.1.26.2.385.312q-.422-2.7-.639-5.417a56.59,56.59,0,0,1-6.714-5.745c-.345-.378-.659-.75-.969-1.125l.012-.006a71.069,71.069,0,0,0,6.632-5.633c-.3-2.238-.591-4.5-.882-6.749a44.968,44.968,0,0,1-7.975,8.33c-.011-.034-.017-.058-.029-.092a.848.848,0,0,1-.032-.117,8.255,8.255,0,0,1-.2-.9c0-.024,0-.056,0-.073a8,8,0,0,1-.1-.962,9.851,9.851,0,0,1,.175-2.427c1.108-5.867,7.979-17.534,3.232-26.528-.5.588-1.007,1.171-1.513,1.757.224,3.585-.375,8.965-3.575,16.337-3.121,7.176-3.338,12.083-1.857,15.862.006.006.017.018.012.029a.492.492,0,0,0,.044.084c-1.351.967-2.8,1.951-4.352,2.95-.006.011-.012,0-.012,0-.5.32-.993.627-1.5.944-.565.35-1.133.7-1.722,1.046-6.6,3.785-9.624,7.639-10.837,11.59a17.836,17.836,0,0,0-.661,6.232,11.481,11.481,0,0,0,3.038,7.071c-.056-.026-.11-.058-.172-.09.319.317.636.626.952.923a28.386,28.386,0,0,0,4.366,3.528c.894.613,1.655,1.074,2.212,1.4.941.567,1.933,1.121,2.972,1.691,3.628,2.477,1.846,3.045-1.995,4.4-5.476,1.936-7.949,3.246-9.2,4.529a5.524,5.524,0,0,0-1.4,2.871c-.657,2.645-.15,3.661,3.4,4.639s7.472,2.2,7.472,2.2-3.238.857-6.258,1.48a2.88,2.88,0,0,0-2.389,1.716,11.678,11.678,0,0,0-.31,3.7,6.4,6.4,0,0,0,.715,3.1.585.585,0,0,0-.068-.041c.1.151.2.3.3.442a8.416,8.416,0,0,0,3.786,3.082c-3.309,1.767-4.615,2.737-5.141,3.772a6.14,6.14,0,0,0-.393,2.744c-.085,2.787.588,3.905,2.86,4.959,3.264,1.507,4.193,2.027,4.193,2.027s-4.02,1.511-5.423,3.185a2.293,2.293,0,0,0-.317.476c-.915,1.856-1.132,5.2-.2,6.312s6.285,3.987,6.266,9C109.594,135.906,109.969,133.772,108.306,131.905Z"/><path class="cls-6" d="M29.743,148.541l3.655-2.99L32.677,144l-4.235,2.721C28.861,147.338,29.3,147.943,29.743,148.541Z"/><path class="cls-6" d="M34.627,154.2l1.745-5.618-1.005-.237-2.206,4.33C33.637,153.2,34.124,153.707,34.627,154.2Z"/><path class="cls-6" d="M32.369,151.793l2.952-4.605-.529-.715-4.065,3.35C31.264,150.492,31.808,151.158,32.369,151.793Z"/><path class="cls-6" d="M49.286,161.779c.348.433.694.834,1.051,1.23l2.255-5.439-1.351-.522-1.74,1.87.557-2.255-1.127-.981L47.5,158.9A17.7,17.7,0,0,0,49.286,161.779Z"/><path class="cls-7" d="M111.738,178.083l1.5-6.518-1.158-.474-2.64,5.411C110.184,177.064,110.944,177.6,111.738,178.083Z"/><path class="cls-7" d="M103.735,171.223l.087-1.871-1.574-.48-.041.678C102.706,170.109,103.215,170.673,103.735,171.223Z"/><path class="cls-7" d="M107.338,174.771l.974-3.431-1.2-.284-1,2.574C106.51,174.02,106.924,174.4,107.338,174.771Z"/><path class="cls-8" d="M100.189,158.648a4.283,4.283,0,0,1-5.151,3.076,4.174,4.174,0,0,1-3.147-5.021,4.265,4.265,0,0,1,5.145-3.076A4.173,4.173,0,0,1,100.189,158.648Z"/><path class="cls-8" d="M101.69,127a4.588,4.588,0,0,1-5.537,3.3,4.477,4.477,0,0,1-3.386-5.4,4.59,4.59,0,0,1,5.525-3.306A4.489,4.489,0,0,1,101.69,127Z"/><path class="cls-8" d="M66.831,130.745a3.778,3.778,0,0,1-4.559,2.72,3.7,3.7,0,0,1-2.8-4.457,3.783,3.783,0,0,1,4.564-2.72A3.69,3.69,0,0,1,66.831,130.745Z"/><path class="cls-8" d="M66.16,153.612a4.142,4.142,0,0,1-5,2.987,4.049,4.049,0,0,1-3.052-4.879,4.144,4.144,0,0,1,5-2.987A4.041,4.041,0,0,1,66.16,153.612Z"/><path class="cls-8" d="M38.752,134.283a2.805,2.805,0,0,1-3.376,2.013,2.731,2.731,0,0,1-2.061-3.3,2.8,2.8,0,0,1,3.372-2.018A2.749,2.749,0,0,1,38.752,134.283Z"/><path class="cls-8" d="M134.409,149.756a4.115,4.115,0,0,1-4.957,2.955,4.02,4.02,0,0,1-3.029-4.835,4.12,4.12,0,0,1,4.957-2.955A4.009,4.009,0,0,1,134.409,149.756Z"/><path class="cls-8" d="M130.986,166a2.084,2.084,0,0,1-2.527,1.5,2.044,2.044,0,0,1-1.549-2.461,2.111,2.111,0,0,1,2.534-1.509A2.063,2.063,0,0,1,130.986,166Z"/><path class="cls-8" d="M65.52,87.7A2.094,2.094,0,0,1,63,89.2a2.032,2.032,0,0,1-1.549-2.461,2.094,2.094,0,0,1,2.525-1.509A2.05,2.05,0,0,1,65.52,87.7Z"/><path class="cls-8" d="M91.357,94.135a3.335,3.335,0,0,1-4.026,2.4,3.255,3.255,0,0,1-2.454-3.923,3.329,3.329,0,0,1,4.017-2.4A3.249,3.249,0,0,1,91.357,94.135Z"/><path class="cls-8" d="M139.951,115.057a.535.535,0,0,0-.08-.027,3.345,3.345,0,0,0-4.024,2.4,3.259,3.259,0,0,0,2.466,3.928,3.448,3.448,0,0,0,2.547-.408C140.521,119,140.234,117.028,139.951,115.057Z"/><path class="cls-8" d="M142.7,137.47a2.052,2.052,0,0,0-2.376,1.5,2.011,2.011,0,0,0,1.525,2.426,2.063,2.063,0,0,0,1.594-.271C143.19,139.909,142.942,138.7,142.7,137.47Z"/><path class="cls-8" d="M44.413,105.654c-1.75,2.353-3.159,3.784-4.8,5.987a4.013,4.013,0,0,0,2.359,1.56,4.063,4.063,0,0,0,4.913-2.926A3.964,3.964,0,0,0,44.413,105.654Z"/><path class="cls-8" d="M97.779,59.664A4.357,4.357,0,0,1,92.522,62.8,4.26,4.26,0,0,1,89.3,57.657a4.357,4.357,0,0,1,5.264-3.133A4.256,4.256,0,0,1,97.779,59.664Z"/><path class="cls-8" d="M116.047,28.915a3.97,3.97,0,0,1-4.784,2.863,3.889,3.889,0,0,1-2.938-4.684,3.988,3.988,0,0,1,4.791-2.863A3.883,3.883,0,0,1,116.047,28.915Z"/><path class="cls-8" d="M125.407,53.056a2.063,2.063,0,0,1-2.513,1.494,2.02,2.02,0,0,1-1.536-2.449,2.086,2.086,0,0,1,2.512-1.5A2.037,2.037,0,0,1,125.407,53.056Z"/><g class="cls-3"><path class="cls-9" d="M146.4,167.547l-1.719.247-2.092,3.426-.35-2.51-2.687-.369-2.76,5.031.545-4.476-2.85-.265-2.021,3.18.857-2.372-2.256-.4-2.137,2.476.6-2.433-1.535-.5-4.729,4.57,1.992-3.583-3.6-.591-2.243,4.084-.27-3.988-2.023-.218-3.414,5.428,1.233-4.453-2.721-.766-3.715,5.479.095-5.4-1.614-.245-2.182,4.353.183-5.223-3.561-.709-3.557,5.39.48-5.305L96.8,166.361,92.828,171.8l.7-5.654-3.412-.8-.911,3.171-3.026,1.582,1.988-4.133-2.66-1.021-2.23,2.846.855-3.443-2.758-1.2-2.1,2.888.781-4.273-2.127-.92-1.53,4.513.158-4.02-1.839-.977L72.052,165l.351-4.248L68.959,159l-2.934,4.584.939-4.388-3.075-.443-2.755,2.725.956-3.292-2.79-.514-3.62,4.01,1.868-3.625-.929-.751-4.6,4.058,2.3-5.958-3.935-1.472L47.7,156.962l1.035-4.769-3.749,1.144,1.282-2.4-2.348-2.855-3.9,1.795,1.215-2.7L36.544,145.4l-2.4.782,1.349-2.12-.469-.912-4.625.793,1.81-1.733-2.833-2.565-2.144,1.386.339-2.487-3.18-1.15-2.614-3.063-8.145,10.424c71.3,56.168,133.753,30.962,133.753,30.962Z"/></g><polygon class="cls-8" points="13.852 143.007 14.854 132.805 16.235 133.327 16.341 141.526 20.169 136.619 20.893 137.381 18.464 142.712 23.077 140.364 23.806 141.515 25.211 139.482 26.387 140.055 23.918 146.368 28.77 141.404 30.134 142.419 25.958 148.321 32.677 144.001 33.398 145.551 28.729 149.377 29.593 150.754 34.792 146.473 35.321 147.188 31.871 152.572 32.761 153.475 35.367 148.341 36.372 148.578 34.357 155.035 38.634 147.557 39.893 148.061 37.058 154.845 42.59 150.461 43.186 153.601 38.094 156.225 45.33 154.819 44.764 156.242 46.349 154.557 44.478 161.247 46.307 161.58 48.931 155.682 50.058 156.663 49.501 158.918 51.241 157.048 52.592 157.57 49.975 163.888 51.878 164.337 54.728 159.214 55.608 159.531 54.03 165.051 54.711 165.315 58.628 159.719 59.881 160.223 57.145 166.613 58.85 167.009 60.508 163.268 61.308 163.462 60.437 168.731 61.311 169.034 63.495 161.08 65.237 161.693 63.539 169.05 64.935 169.378 67.892 161.703 68.84 162.127 66.366 170.03 68.12 170.65 69.565 164.364 70.564 164.606 69.575 171.201 71.887 166.988 72.176 171.393 73.175 171.635 72.694 165.416 74.887 164.696 75.139 170.966 78 163.676 78.776 163.958 77.364 170.962 81.26 165.479 82.815 166.048 80.498 171.599 85.045 167.295 86.328 167.701 83.421 173.018 88.867 170.274 89.956 171.041 86.686 174.403 90.34 174.646 90.794 167.62 92.223 167.856 92.433 174.317 93.133 174.477 96.377 168.625 97.803 168.858 95.498 176.069 97.469 176.644 100.368 171.743 98.881 177.38 101.686 178.048 102.248 168.872 103.822 169.352 103.451 177.326 104.553 177.592 107.109 171.056 108.312 171.34 106.698 177.054 108.873 177.675 112.082 171.091 113.24 171.565 111.702 178.245 112.6 178.452 115.594 172.753 116.822 172.932 115.299 178.673 116.023 178.746 117.694 170.647 118.858 171.137 117.746 178.218 118.626 178.526 122.108 171.691 123.006 171.906 119.81 178.398 126.976 171.293 127.674 171.87 123.761 177.872 129.136 172.838 129.659 173.27 127.356 177.489 128.435 177.847 130.388 171.164 131.819 171.819 130.499 178.016 131.125 178.057 134.651 169.799 136.207 170.374 133.62 178.239 135.317 177.404 140.495 170.139 141.378 171.284 138.156 176.617 145.608 169.172 146.616 170.242 143.391 175.581 149.92 168.847 150.805 169.578 146.834 174.531 152.02 171.513 152.633 172.487 148.815 175.514 154.878 174.568 155.07 176.377 148.787 178.202 154.277 180.423 153.47 181.99 149.709 180.901 155.451 185.562 154.544 187.517 150.6 184.63 155.009 189.489 153.97 191.112 150.412 188.824 151.872 192.783 149.865 192.313 148.545 189.931 149.52 195.02 148.356 195.881 147.667 192.201 146.012 196.777 144.64 197.17 144.314 194.619 143.984 199.404 143.187 199.22 142.279 196.003 140.34 196.58 140.796 200.722 138.684 201.158 138.031 198.2 137.205 198.526 136.975 202.094 136.071 201.882 136.362 198.54 134.51 198.723 132.977 202.389 131.297 201.897 132.69 198.387 130.643 198.948 130.725 202.477 129.526 202.611 128.119 198.861 127.392 198.8 128.123 202.286 124.332 202.216 123.248 198.439 122.02 198.248 122.725 201.003 120.726 200.947 120.368 197.255 118.966 196.912 118.386 201.429 116.153 201.008 116.099 197.369 115.446 197.423 115.348 200.407 113.81 201.489 113.56 198.635 111.378 198.019 111.165 201.9 109.845 201.691 108.828 197.624 108.153 197.361 107.494 201.35 106.165 201.141 105.981 195.815 104.538 195.273 103.611 200.327 102.535 199.965 102.94 195.72 102.017 195.609 100.199 201.696 98.519 201.192 99.189 195.036 97.265 194.691 97.441 197.421 96.48 197.399 94.684 194.395 93.991 194.23 93.502 198.759 91.832 198.679 90.763 193.983 89.808 193.962 90.146 197.353 88.169 197.61 86.317 193.552 85.765 193.636 85.729 197.657 83.671 197.375 82.656 192.074 81.855 191.882 81.595 196.374 79.811 195.851 79.452 191.729 78.952 191.611 76.672 195.726 75.562 195.06 76.667 193.142 75.991 192.878 73.523 196.015 72.75 195.728 74.081 191.186 73.698 190.579 71.466 195.331 69.99 194.884 72.317 190.149 71.665 189.793 69.01 194.543 67.863 194.069 67.774 190.111 67.297 189.9 66.705 193.58 63.705 192.873 62.889 188.854 61.001 192.235 59.799 191.54 60.059 187.056 59.582 186.834 57.061 190.58 55.438 189.889 57.717 185.777 56.917 185.582 53.325 190.739 50.555 189.573 52.994 184.15 51.227 183.588 49.202 187.962 47.062 187.46 45.656 183.345 44.968 183.183 44.428 186.561 42.042 185.849 42.131 181.944 39.866 185.193 37.341 184.454 38.516 180.589 37.749 180.122 34.842 183.932 33.298 182.494 35.173 178.731 31.812 181.714 29.761 180.236 32.696 176.935 32.14 176.509 26.497 180.4 25.369 179.63 27.576 175.729 27.198 175.493 24.694 179.401 23.347 177.723 25.018 172.774 21.684 176.478 20.375 175.887 22.086 171.294 18.069 175.123 15.923 173.766 19.354 170.505 16.965 172.221 16.34 171.792 17.772 168.916 13.993 171.808 12.596 170.057 16.005 166.283 15.603 165.841 13.019 168.011 11.914 166.89 13.912 163.22 9.408 166.374 7.962 164.534 11.622 161.547 11.669 161.054 7.226 162.79 6.939 161.861 9.95 159.722 9.629 158.93 5.076 161.713 3.832 159.639 6.42 156.25 3.271 158.929 2.486 157.68 5.922 152.916 1.196 155.165 0.563 153.007 6.138 149.968 0.63 150.388 0 148.166 6.874 147.584 1.617 145.763 1.669 143.782 8.995 146.081 3.31 142.164 3.72 139.62 10.151 144.065 4.636 135.273 5.806 134.119 11.812 142.676 10.251 135.663 11.589 135.548 13.852 143.007"/><path class="cls-10" d="M155.009,189.489,150.6,184.63l3.944,2.887.907-1.955-5.742-4.661,3.761,1.089.807-1.567-5.49-2.221,6.283-1.825-.192-1.809-6.063.946,3.818-3.027-.613-.974-5.186,3.018,3.971-4.953-.885-.731-6.529,6.734,3.225-5.339-1.008-1.07-7.452,7.445,3.222-5.333-.883-1.145-5.178,7.265-1.7.835,2.587-7.865-1.556-.575-3.526,8.258-.626-.041,1.32-6.2-1.431-.655-1.953,6.683-1.079-.358,2.3-4.219-.523-.432-5.375,5.034,3.913-6-.7-.577-7.166,7.1,3.2-6.492-.9-.215-3.482,6.835-.88-.308,1.112-7.081-1.164-.49-1.671,8.1-.724-.073,1.523-5.741-1.228-.179-2.994,5.7-.9-.207,1.538-6.68-1.158-.474-3.209,6.584-2.175-.621,1.614-5.714-1.2-.284-2.556,6.536-1.1-.266.371-7.974-1.574-.48-.562,9.176-2.805-.668,1.487-5.637-2.9,4.9-1.971-.575,2.3-7.211-1.426-.233-3.244,5.852-.7-.16-.21-6.461-1.429-.236-.454,7.026-3.654-.243,3.27-3.362-1.089-.767-5.446,2.744,2.907-5.317-1.283-.406L80.5,171.6l2.317-5.551-1.555-.569-3.9,5.483,1.412-7L78,163.676l-2.861,7.29-.252-6.27-2.193.72.481,6.219-1-.242-.289-4.405L69.575,171.2l.989-6.595-1-.242L68.12,170.65l-1.754-.62,2.474-7.9-.948-.424-2.957,7.675-1.4-.328,1.7-7.357L63.5,161.08l-2.184,7.954-.874-.3.871-5.269-.8-.194-1.658,3.741-1.7-.4,2.736-6.39-1.253-.5-3.917,5.6-.681-.264,1.578-5.52-.88-.317-2.85,5.123-.284-.065a20.348,20.348,0,0,0,5.807,3.686c8.351,3.588,17.531,3.488,26.177,5.956,4.633,1.316,13.883,4.717,13.041,11-.65,4.817-6.331,7-10.463,8.17-1.049.305-2.112.556-3.16.753l.675,3.538,2.058.282.036-4.021.552-.084,1.852,4.058,1.977-.257-.338-3.391.955.021,1.069,4.7,1.67.08.489-4.529.693.165,1.8,3,.961.022-.176-2.73,1.924.345-.67,6.156,1.68.5,1.818-6.087.923.111-.405,4.245,1.076.362.927-5.054,1.443.542.184,5.326,1.329.209.659-3.989.675.263,1.017,4.067,1.32.209.213-3.881,2.182.616.25,2.854,1.538-1.082.1-2.984.653-.054.054,3.639,2.233.421.58-4.517,1.4.343.358,3.692,2,.056-.7-2.755,1.228.191,1.084,3.777,3.791.07-.731-3.486.727.061,1.407,3.75,1.2-.134-.082-3.529,2.047-.561L131.3,201.9l1.68.492,1.533-3.666,1.852-.183-.291,3.342.9.212.23-3.568.826-.326.653,2.958,2.112-.436-.456-4.142,1.939-.577.908,3.217.8.184.33-4.785.326,2.551,1.372-.393,1.655-4.576.689,3.68,1.164-.861-.975-5.089,1.32,2.382,2.007.47-1.46-3.959,3.558,2.288Z"/><path class="cls-7" d="M91.729,198.261l.1.418,1.67.08.012-.139C92.921,198.507,92.325,198.391,91.729,198.261Z"/><path class="cls-7" d="M83.427,196.1l.244,1.276,2.058.282.01-.884C84.959,196.558,84.2,196.326,83.427,196.1Z"/><path class="cls-7" d="M116.128,199.1l.025,1.913,2.233.421.345-2.707C117.861,198.851,116.991,198.981,116.128,199.1Z"/><path class="cls-10" d="M155.009,189.489,150.6,184.63l3.944,2.887.907-1.955-5.742-4.661,3.761,1.089.807-1.567-5.49-2.221,6.283-1.825-.192-1.809-6.063.946,3.818-3.027-.613-.974-5.186,3.018,3.971-4.953-.885-.731-6.529,6.734,3.225-5.339-1.008-1.07-7.452,7.445,3.222-5.333-.883-1.145-5.178,7.265-1.7.835,2.587-7.865-1.556-.575-3.526,8.258-.626-.041,1.32-6.2-1.431-.655-1.953,6.683-1.079-.358,2.3-4.219-.523-.432-5.375,5.034,3.913-6-.7-.577-7.166,7.1,3.2-6.492-.9-.215-3.482,6.835-.88-.308,1.112-7.081-1.164-.49-1.671,8.1-.724-.073,1.523-5.741-1.228-.179-2.994,5.7-.421-.1a22.07,22.07,0,0,0,4.689,2.114c6.713,2.1,14.18.01,20.748,2.538,3.019,1.17,7.889,4.9,5,8.4-2.289,2.744-6.017,3.964-9.415,4.788-4.175,1.024-8.465,1.589-12.719,2.259l.246,2.5,2,.056-.7-2.755,1.228.191,1.084,3.777,3.791.07-.731-3.486.727.061,1.407,3.75,1.2-.134-.082-3.529,2.047-.561L131.3,201.9l1.68.492,1.533-3.666,1.852-.183-.291,3.342.9.212.23-3.568.826-.326.653,2.958,2.112-.436-.456-4.142,1.939-.577.908,3.217.8.184.33-4.785.326,2.551,1.372-.393,1.655-4.576.689,3.68,1.164-.861-.975-5.089,1.32,2.382,2.007.47-1.46-3.959,3.558,2.288Z"/><path class="cls-7" d="M113.631,199.385l.179,2.1,1.538-1.082.047-1.225C114.8,199.251,114.216,199.315,113.631,199.385Z"/><path class="cls-7" d="M109.348,199.719l.5,1.972,1.32.209.133-2.312C110.645,199.644,110,199.684,109.348,199.719Z"/><path class="cls-7" d="M98.707,199.449l-.188,1.743,1.68.5.611-2.052C100.11,199.589,99.412,199.528,98.707,199.449Z"/><g class="cls-4"><path class="cls-8" d="M13.473,151.609c-.767-.5-1.51-1.055-2.235-1.606S9.8,148.872,9.1,148.287l.422-.048c-.253.364-.516.728-.784,1.089l-.049-.383c1.307,1.081,2.579,2.188,3.779,3.393-1.442-.911-2.809-1.92-4.146-2.957l-.2-.158L8.269,149c.256-.358.513-.733.776-1.085l.191-.255.242.2c.686.595,1.378,1.195,2.046,1.818S12.843,150.943,13.473,151.609Z"/><path class="cls-8" d="M13.941,149.213c-.23-.943-.441-1.9-.621-2.857-.183-.939-.349-1.905-.488-2.859l-.04-.243.252-.074c.63-.148,1.262-.3,1.889-.435l.3-.065.046.281c.154.891.281,1.775.394,2.664s.219,1.772.278,2.67c-.246-.867-.472-1.726-.673-2.6s-.385-1.76-.557-2.633l.346.225c-.626.162-1.253.31-1.894.446l.226-.315c.133.96.245,1.922.343,2.887S13.906,148.236,13.941,149.213Z"/><path class="cls-8" d="M18.047,150.22c-.053-.9-.076-1.8-.064-2.7-.006-.9.03-1.79.078-2.685l.013-.377.365.118c.415.124.824.271,1.248.417l.2.065-.022.2a43.781,43.781,0,0,1-.531,4.87,45.341,45.341,0,0,1-.032-4.89l.192.273c-.415-.13-.83-.259-1.248-.406l.387-.241c-.06.886-.126,1.778-.227,2.673C18.327,148.439,18.211,149.328,18.047,150.22Z"/><path class="cls-8" d="M21.93,156.768c-.264-.9-.5-1.813-.729-2.73s-.414-1.836-.6-2.752l-.058-.273.285-.047c.564-.1,1.123-.212,1.7-.305l.3-.048.044.29c.133,1.037.253,2.075.347,3.116s.167,2.089.2,3.15c-.242-1.03-.458-2.059-.632-3.092-.2-1.032-.346-2.064-.493-3.093l.335.23c-.559.111-1.123.2-1.69.3l.227-.318c.162.913.313,1.841.449,2.775S21.853,155.84,21.93,156.768Z"/><path class="cls-8" d="M27.727,158.643c-.14-.8-.244-1.595-.332-2.4s-.143-1.6-.2-2.4l-.005-.223.222-.063c.579-.136,1.15-.287,1.729-.4l.395-.086-.043.389c-.092.839-.211,1.673-.339,2.518-.134.828-.291,1.665-.481,2.5-.015-.86.012-1.7.054-2.552s.11-1.691.193-2.528l.361.3c-.579.142-1.149.267-1.728.4l.211-.283c.036.8.045,1.609.048,2.408C27.8,157.027,27.78,157.838,27.727,158.643Z"/><path class="cls-8" d="M15.4,156.37c-1.012.033-2.012.022-3.009-.008s-2-.076-3.011-.142l.313-.3c.057.609.093,1.232.147,1.849l-.284-.25c.888.036,1.774.095,2.65.165.447.035.886.065,1.319.114.448.054.89.1,1.329.168-.439.027-.887.048-1.33.075s-.881.013-1.326.037c-.887.014-1.777.01-2.655-.009l-.256-.01-.017-.243c-.062-.623-.113-1.244-.156-1.855l-.016-.333.323.024c1,.08,2,.175,2.99.292C13.42,156.062,14.411,156.194,15.4,156.37Z"/><path class="cls-8" d="M22.54,160.166c-.771-.009-1.522-.051-2.272-.123s-1.507-.153-2.257-.257l.33-.21c-.084.376-.177.744-.28,1.108l-.176-.334c.687.244,1.38.5,2.068.772s1.356.562,2.026.89c-.724-.143-1.45-.305-2.164-.5s-1.426-.4-2.12-.624l-.249-.082.058-.249c.087-.376.178-.744.277-1.12l.063-.246.255.033c.751.111,1.5.253,2.227.407C21.076,159.786,21.808,159.96,22.54,160.166Z"/><path class="cls-8" d="M23.08,164.926c-.752.346-1.518.659-2.282.951s-1.554.569-2.329.812l.144-.428c.407.552.8,1.107,1.183,1.674l-.326-.094c.583-.235,1.18-.456,1.783-.664s1.2-.406,1.821-.577c-.553.316-1.115.621-1.68.905s-1.138.559-1.709.823l-.187.086-.142-.174c-.419-.547-.826-1.093-1.222-1.648l-.221-.323.371-.12c.784-.24,1.571-.468,2.373-.673S22.267,165.078,23.08,164.926Z"/><path class="cls-8" d="M32.761,163.516c-.7-.31-1.377-.65-2.046-1.006s-1.318-.713-1.969-1.093l.416-.137c-.192.524-.375,1.056-.594,1.573l-.1-.327a43.365,43.365,0,0,1,3.769,2.888,41.4,41.4,0,0,1-4.1-2.427l-.184-.119.075-.2c.186-.533.393-1.059.593-1.582l.132-.324.293.183c.631.4,1.267.812,1.88,1.235S32.161,163.05,32.761,163.516Z"/><path class="cls-8" d="M36.333,165.343c-.47-.573-.925-1.16-1.353-1.77-.419-.594-.844-1.21-1.239-1.837l-.168-.268.294-.131c.416-.187.827-.367,1.243-.539l.243-.106.124.215a35.8,35.8,0,0,1,1.977,3.818,33.737,33.737,0,0,1-2.47-3.54l.361.118c-.4.192-.823.373-1.239.545l.126-.405c.4.627.758,1.272,1.111,1.911S36.033,164.67,36.333,165.343Z"/><path class="cls-8" d="M41.178,166.191c-.2-.806-.359-1.615-.5-2.427s-.247-1.626-.344-2.45l-.055-.394.418.095c.507.109,1.008.239,1.512.36l.2.047.017.186c.084.7.158,1.388.209,2.1.026.353.054.7.064,1.057s.036.707.035,1.064c-.1-.351-.173-.688-.263-1.036s-.152-.684-.225-1.032c-.143-.69-.268-1.375-.378-2.076l.216.238c-.507-.124-1.023-.231-1.533-.36l.358-.309c.083.818.165,1.638.207,2.467S41.187,165.363,41.178,166.191Z"/><path class="cls-8" d="M33.978,168.29c-.41.114-.82.211-1.245.307-.409.1-.819.193-1.235.276-.831.167-1.663.3-2.5.425l.251-.265c-.02.411-.06.834-.085,1.239l-.3-.3c.721-.035,1.448-.063,2.16-.071.727,0,1.448.006,2.172.047-.712.139-1.422.249-2.14.341s-1.428.182-2.149.236l-.324.025.013-.307c.034-.417.042-.837.073-1.246l.022-.226.228-.036c.837-.118,1.678-.221,2.52-.3.431-.039.846-.075,1.274-.1S33.548,168.282,33.978,168.29Z"/><path class="cls-8" d="M37.875,173.343c-.311.045-.629.076-.944.112s-.629.049-.943.079c-.635.035-1.262.067-1.894.073l.28-.271c.01.519.014,1.034.006,1.544l-.328-.268c.665-.087,1.336-.147,2.012-.2s1.336-.073,2.018-.069c-.653.191-1.307.339-1.969.474s-1.312.252-1.983.35l-.321.04,0-.319c-.01-.522-.008-1.032,0-1.565l.006-.272H34.1c.632.018,1.258.041,1.893.087.315.034.632.047.937.083A9.464,9.464,0,0,1,37.875,173.343Z"/><path class="cls-8" d="M41.556,177.746a16.651,16.651,0,0,1-1.437,1.077c-.5.334-1,.645-1.505.958l.087-.411c.216.262.426.529.623.8l-.334-.08c.549-.235,1.108-.43,1.672-.618s1.138-.363,1.729-.493c-.518.324-1.035.606-1.561.873s-1.07.519-1.617.749l-.2.083-.142-.172c-.215-.261-.428-.538-.638-.814l-.183-.256.274-.152c.514-.3,1.049-.563,1.578-.824S40.986,177.958,41.556,177.746Z"/><path class="cls-8" d="M44.787,173.856a21.9,21.9,0,0,1-2.516-1.669l.437-.134c-.127.457-.259.929-.4,1.383l-.1-.3c.5.4,1,.792,1.479,1.22s.958.871,1.39,1.345A17.1,17.1,0,0,1,43.43,174.7c-.544-.356-1.071-.727-1.574-1.108l-.154-.117.051-.182c.133-.472.283-.929.433-1.386l.132-.39.3.265A23.531,23.531,0,0,1,44.787,173.856Z"/><path class="cls-8" d="M48.1,180.031c-.262.187-.536.356-.809.523s-.548.334-.821.5c-.553.321-1.121.626-1.686.916l.07-.426.928.862-.29-.065a39.555,39.555,0,0,1,4.918-1.246,39.657,39.657,0,0,1-4.742,1.8l-.172.046-.131-.122-.9-.888-.278-.279.348-.158c.579-.27,1.162-.534,1.759-.78.294-.115.6-.238.894-.349C47.5,180.248,47.8,180.134,48.1,180.031Z"/><path class="cls-8" d="M50.2,173.956c-.186-.275-.354-.563-.525-.848-.186-.287-.333-.572-.507-.854-.312-.575-.622-1.164-.916-1.754l.314.158c-.65.145-1.321.281-1.993.411l.177-.431c.393.529.788,1.076,1.166,1.628.186.276.375.552.555.842s.351.564.525.86c-.255-.232-.482-.489-.719-.721s-.464-.5-.685-.745c-.447-.5-.884-1.015-1.3-1.53l-.278-.349.44-.091c.665-.159,1.33-.3,2-.419l.229-.046.085.2c.271.609.53,1.21.777,1.823.108.307.238.615.349.928S50.11,173.637,50.2,173.956Z"/><path class="cls-8" d="M51.191,168.726c-.357-.561-.678-1.124-1-1.7s-.6-1.159-.875-1.748l.329.157c-.511.132-1.019.262-1.536.382l.183-.414A31.872,31.872,0,0,1,50,168.97a32.882,32.882,0,0,1-2.2-3.293l-.185-.3.365-.1c.511-.133,1.013-.253,1.529-.372l.235-.051.094.206c.259.589.5,1.2.732,1.814S51.012,168.1,51.191,168.726Z"/><path class="cls-8" d="M58,180.375a25.1,25.1,0,0,1-2.96-.127l.294-.219c-.07.49-.172.993-.261,1.483l-.31-.329c.665-.052,1.336-.084,2.006-.092s1.347.006,2.024.061a18.381,18.381,0,0,1-1.987.368c-.659.107-1.335.17-1.994.228l-.386.033.069-.371c.1-.492.191-.984.312-1.476l.063-.254.24.044A22.748,22.748,0,0,1,58,180.375Z"/><path class="cls-8" d="M56.038,183.457a24.149,24.149,0,0,1-2.67,2.213l-.028-.464c.58.292,1.164.605,1.732.929l-.353.086a20.548,20.548,0,0,1,1.946-2.24,24.537,24.537,0,0,1-1.5,2.546l-.132.187-.225-.114c-.586-.286-1.169-.587-1.744-.909l-.4-.222.366-.253A24.887,24.887,0,0,1,56.038,183.457Z"/><path class="cls-8" d="M64.315,182.084c-.286.176-.583.328-.877.486s-.589.3-.9.442c-.588.3-1.2.565-1.813.829l.15-.373c.232.52.468,1.042.682,1.567l-.385-.149a35.815,35.815,0,0,1,3.866-1.451,32.689,32.689,0,0,1-3.625,1.959l-.261.12-.124-.261c-.238-.522-.461-1.045-.676-1.567l-.106-.259.262-.109c.614-.231,1.25-.454,1.883-.669.318-.094.627-.208.951-.294S63.988,182.161,64.315,182.084Z"/><path class="cls-8" d="M68.181,177.458c-.808.24-1.634.442-2.448.626s-1.645.329-2.47.479l.235-.321c.073.458.128.916.188,1.383l-.352-.236c.725-.183,1.458-.336,2.192-.483.751-.144,1.49-.268,2.235-.366-.7.275-1.411.52-2.124.755s-1.435.434-2.162.633l-.312.082-.041-.318c-.066-.45-.139-.914-.193-1.372l-.038-.266L63.17,178c.825-.129,1.654-.247,2.491-.345S67.338,177.5,68.181,177.458Z"/><path class="cls-8" d="M56.754,174.4a32.925,32.925,0,0,1-1.971-3.7l.278.178c-.484.039-.968.071-1.463.095l.236-.419a33.459,33.459,0,0,1,1.817,3.725,32.75,32.75,0,0,1-2.314-3.449l-.23-.381.454-.036c.49-.038.968-.076,1.461-.1l.2-.008.08.174A32.8,32.8,0,0,1,56.754,174.4Z"/><path class="cls-8" d="M62.525,175.239c-.174-.346-.327-.7-.483-1.057s-.306-.7-.447-1.056c-.3-.706-.573-1.42-.838-2.134l.329.176c-.582.136-1.173.272-1.758.4l.194-.416c.475.825.955,1.661,1.4,2.512.221.433.442.857.66,1.292.2.433.424.869.61,1.307-.3-.378-.564-.779-.848-1.166-.277-.4-.548-.805-.814-1.211-.525-.808-1.029-1.628-1.525-2.453l-.2-.331.392-.088c.591-.131,1.182-.252,1.763-.377l.256-.063.073.235c.241.729.461,1.46.669,2.194.105.374.207.745.3,1.111S62.449,174.865,62.525,175.239Z"/><path class="cls-8" d="M67.735,173.736a18.706,18.706,0,0,1-.52-2.986l.272.25c-.448,0-.9,0-1.353-.023l.292-.306c.06.527.1,1.067.13,1.605a12.738,12.738,0,0,1,0,1.623,15.224,15.224,0,0,1-.415-1.572c-.105-.522-.207-1.056-.279-1.589l-.055-.319.341.007c.445-.009.893.01,1.353.027l.261.007.011.246A18.94,18.94,0,0,1,67.735,173.736Z"/><path class="cls-8" d="M75.823,178.374c-.289-.262-.567-.556-.845-.829s-.553-.571-.825-.847c-.544-.576-1.061-1.164-1.587-1.746l-.162-.177.176-.188c.524-.545,1.051-1.084,1.6-1.621l.286-.288.171.363c.45.877.886,1.774,1.3,2.669s.8,1.811,1.156,2.74c-.543-.826-1.062-1.682-1.548-2.545-.5-.863-.955-1.737-1.418-2.614l.466.066c-.53.548-1.072,1.084-1.62,1.6l.013-.348c.5.608.981,1.219,1.459,1.85.233.308.475.628.7.95S75.608,178.049,75.823,178.374Z"/><path class="cls-8" d="M79.061,179.073c.02-.782.074-1.552.163-2.323s.175-1.523.287-2.281l.046-.275.29.045c.392.065.777.131,1.174.208l.3.047-.081.3c-.214.738-.448,1.467-.7,2.193s-.528,1.452-.827,2.161c.107-.768.246-1.517.418-2.27s.341-1.493.549-2.234l.233.352c-.4-.06-.78-.128-1.172-.2l.336-.233c-.127.759-.278,1.517-.444,2.264S79.28,178.321,79.061,179.073Z"/><path class="cls-8" d="M80.632,181.873c1.285-1.695,2.676-3.29,4.115-4.86l.218-.236.216.244,1.188,1.324.171.2-.194.176c-.628.559-1.268,1.112-1.917,1.651-.33.27-.652.536-.988.789s-.66.524-1,.769c.274-.318.561-.626.846-.935s.587-.6.873-.906c.593-.594,1.192-1.188,1.8-1.764l-.01.382-1.2-1.3.439.008C83.722,178.95,82.245,180.461,80.632,181.873Z"/><path class="cls-8" d="M76,181.663c-.772.058-1.522.066-2.285.051s-1.513-.042-2.269-.1l.3-.213c-.1.469-.232.932-.352,1.389l-.2-.325c.6.153,1.177.33,1.767.5.29.094.584.183.874.285s.575.2.874.32c-.317-.024-.62-.069-.925-.1s-.608-.077-.911-.131c-.608-.1-1.21-.22-1.811-.339l-.273-.059.069-.272c.106-.463.208-.938.335-1.407l.057-.222.24.012c.757.062,1.513.132,2.266.234S75.254,181.515,76,181.663Z"/><path class="cls-8" d="M68.9,183.757c-.294.685-.619,1.356-.963,2.009s-.711,1.312-1.094,1.945l-.078-.369c.438.3.867.589,1.287.9l-.41.094c.326-.589.66-1.185,1.013-1.774s.716-1.152,1.116-1.721c-.231.653-.489,1.281-.758,1.9s-.562,1.243-.87,1.851l-.138.283-.272-.187c-.438-.286-.873-.583-1.3-.892l-.2-.149.125-.22c.385-.635.791-1.25,1.212-1.874S68.428,184.34,68.9,183.757Z"/><path class="cls-8" d="M76.432,184.5c-.075.338-.163.683-.244,1.03s-.183.671-.277,1.013c-.2.662-.408,1.33-.633,2l-.26-.377c.6.02,1.2.022,1.8.054l-.286.207c.208-.711.433-1.423.679-2.126s.507-1.405.809-2.1c-.11.747-.249,1.476-.406,2.2s-.335,1.453-.53,2.177l-.057.208-.223-.007c-.608-.008-1.21-.04-1.807-.057l-.388-.028.138-.353c.248-.648.506-1.3.781-1.935.15-.324.282-.642.44-.965S76.265,184.808,76.432,184.5Z"/><path class="cls-8" d="M79.505,184.93c.374.636.719,1.281,1.052,1.937s.641,1.324.936,1.986l-.445-.1c.473-.43.959-.862,1.456-1.277l-.076.324c-.32-.662-.627-1.332-.924-2s-.552-1.358-.8-2.061c.416.613.8,1.253,1.18,1.883.356.639.716,1.284,1.055,1.935l.1.179-.161.145c-.473.441-.959.864-1.453,1.282l-.3.268-.147-.366c-.277-.673-.535-1.352-.794-2.043S79.7,185.638,79.505,184.93Z"/><path class="cls-8" d="M87.471,186.665c.452.428.872.873,1.288,1.324.4.459.8.919,1.179,1.4l-.323-.1c.392-.137.772-.277,1.162-.408l-.156.419c-.357-.572-.7-1.168-1.023-1.763a19.551,19.551,0,0,1-.9-1.853c.449.532.862,1.065,1.264,1.631.407.55.785,1.116,1.153,1.689l.186.3-.342.12c-.377.137-.763.263-1.155.394l-.2.052-.124-.152q-.544-.732-1.054-1.488C88.1,187.719,87.774,187.2,87.471,186.665Z"/><path class="cls-8" d="M89.853,183.457c.471.408.905.821,1.331,1.258s.836.884,1.229,1.332l-.347-.074c.4-.2.8-.4,1.207-.6l-.076.449c-.458-.471-.883-.954-1.3-1.446s-.824-1-1.216-1.526a17.792,17.792,0,0,1,1.514,1.241c.488.437.964.882,1.416,1.339l.266.274-.342.172c-.392.207-.8.4-1.206.6l-.206.109-.141-.18c-.384-.466-.753-.943-1.114-1.437S90.169,183.977,89.853,183.457Z"/><path class="cls-8" d="M85.706,182.482c1.428-1.706,2.986-3.295,4.567-4.843l.158-.15.183.108,1.2.66.353.193-.3.265c-.667.553-1.339,1.095-2.024,1.636-.348.265-.7.547-1.044.795-.357.265-.7.53-1.065.777.3-.326.61-.628.914-.934.307-.326.62-.623.923-.923.635-.6,1.278-1.193,1.924-1.779l.049.456-1.209-.649.348-.039C89.087,179.583,87.462,181.094,85.706,182.482Z"/><path class="cls-8" d="M93.38,181.416c.631-.576,1.277-1.124,1.938-1.651s1.339-1.028,2.023-1.523l.194-.138.177.163c.29.256.582.53.86.8l.249.233-.274.195a42.977,42.977,0,0,1-4.039,2.554,43.541,43.541,0,0,1,3.7-3.013l-.034.434c-.29-.262-.583-.518-.866-.791l.368.019c-.691.486-1.39.958-2.1,1.412S94.132,181,93.38,181.416Z"/><path class="cls-8" d="M93.957,189.818a13.538,13.538,0,0,1,1.794,1.755l.21.236-.291.169c-.467.265-.922.529-1.407.776l-.3.143-.094-.3a12.424,12.424,0,0,1-.487-2.253,14.225,14.225,0,0,1,1.01,2.079l-.4-.141c.461-.282.928-.537,1.4-.781l-.084.405A14.506,14.506,0,0,1,93.957,189.818Z"/><path class="cls-8" d="M99,187.167a22.269,22.269,0,0,1,2.762,1.488l.388.253-.416.227c-.571.31-1.151.624-1.748.9l-.19.086L99.674,190a17.775,17.775,0,0,1-1.7-2.042,21.135,21.135,0,0,1,2.077,1.661l-.315-.039c.566-.334,1.145-.635,1.728-.939l-.02.48A21.3,21.3,0,0,1,99,187.167Z"/><path class="cls-8" d="M97.314,183.888A12.689,12.689,0,0,1,98.591,182l.164-.207.222.183c.452.379.878.775,1.3,1.177l.242.235-.25.185a15.56,15.56,0,0,1-2.064,1.334,13.891,13.891,0,0,1,1.707-1.756l-.014.405c-.446-.381-.872-.777-1.286-1.2L99,182.34A13.739,13.739,0,0,1,97.314,183.888Z"/><path class="cls-8" d="M101.269,183.191a34.073,34.073,0,0,1,2.413-3.532l.164-.2.228.152c.435.286.861.592,1.293.9l.216.158-.137.21q-.569.853-1.178,1.7-.609.822-1.285,1.622c.29-.622.6-1.237.932-1.838s.682-1.185,1.043-1.768l.078.371c-.438-.292-.864-.59-1.293-.9l.392-.056A36.3,36.3,0,0,1,101.269,183.191Z"/><path class="cls-8" d="M108.4,181.851a15.9,15.9,0,0,1,.709-1.55c.254-.514.529-1.017.824-1.5l.143-.254.261.169c.421.257.823.532,1.231.817l.234.152-.149.22a20.86,20.86,0,0,1-1.914,2.331,21.966,21.966,0,0,1,1.443-2.635l.073.38c-.414-.269-.835-.531-1.237-.8l.4-.1c-.3.482-.624.959-.955,1.424S108.791,181.421,108.4,181.851Z"/><path class="cls-8" d="M104.9,188.411c.3.094.6.211.892.317s.589.232.885.352c.578.246,1.147.5,1.716.767l-.36.1.6-.967.067.374a34.373,34.373,0,0,1-3.52-3.021,33.9,33.9,0,0,1,3.881,2.568l.21.157-.143.225-.63.948-.132.225-.228-.114c-.55-.3-1.1-.6-1.649-.92-.26-.158-.545-.321-.8-.491S105.159,188.586,104.9,188.411Z"/><path class="cls-8" d="M111.179,184.723a15.792,15.792,0,0,1,1.837-.107c.617-.018,1.222-.012,1.831.02l.335.022-.064.33c-.087.4-.192.787-.307,1.18l-.057.232-.228-.019a22.808,22.808,0,0,1-3.194-.44,23.059,23.059,0,0,1,3.225-.11l-.285.207c.093-.393.178-.793.283-1.186l.26.349c-.608-.041-1.216-.1-1.818-.171A18.245,18.245,0,0,1,111.179,184.723Z"/><path class="cls-8" d="M113.963,190.921c.556.374,1.1.782,1.627,1.2s1.032.842,1.535,1.288l.24.213-.256.2c-.405.337-.81.657-1.22.974l-.23.173-.174-.216a31.648,31.648,0,0,1-2.35-3.214,32.7,32.7,0,0,1,2.794,2.866l-.4-.048c.411-.323.816-.651,1.232-.959l-.019.423c-.488-.457-.964-.926-1.434-1.4S114.394,191.433,113.963,190.921Z"/><path class="cls-8" d="M108.5,192.211c.316.52.587,1.052.846,1.592s.5,1.092.712,1.643l.117.29-.309.086c-.454.119-.914.227-1.369.335l-.252.057-.082-.226a23.438,23.438,0,0,1-1.018-3.212,24.326,24.326,0,0,1,1.547,3.011l-.335-.164c.448-.125.909-.245,1.366-.341l-.191.367c-.218-.56-.405-1.12-.584-1.7S108.624,192.809,108.5,192.211Z"/><path class="cls-8" d="M118.236,182.768c.126-.274.257-.546.395-.812s.275-.532.418-.8c.29-.52.589-1.04.9-1.545l.137-.217.237.123c.459.211.9.436,1.345.672l.29.161-.188.251c-.367.52-.76,1.014-1.166,1.507s-.816.976-1.269,1.437c.287-.578.6-1.127.929-1.667s.675-1.069,1.036-1.595l.1.4c-.453-.21-.9-.444-1.339-.687l.369-.093c-.332.493-.687.976-1.05,1.472-.179.237-.361.462-.561.7S118.447,182.552,118.236,182.768Z"/><path class="cls-8" d="M125.116,183.727c.6-.507,1.22-.982,1.854-1.44.643-.475,1.282-.909,1.942-1.332l.262-.178.153.287c.21.381.407.775.616,1.176l.086.174-.128.139a39.565,39.565,0,0,1-3.177,2.958,36.749,36.749,0,0,1,2.748-3.334l-.043.316c-.2-.389-.422-.779-.619-1.173l.424.1c-.666.426-1.338.828-2.022,1.208S125.833,183.386,125.116,183.727Z"/><path class="cls-8" d="M128.945,188.766c.413-.694.86-1.37,1.317-2.034s.942-1.3,1.434-1.934l.212-.283.236.273c.42.483.815.98,1.223,1.466l.136.174-.12.168c-.441.563-.879,1.135-1.332,1.677-.233.286-.456.557-.694.823s-.474.542-.727.813c.167-.329.355-.63.537-.936s.373-.618.561-.916c.379-.6.779-1.193,1.191-1.779l.01.333c-.413-.488-.827-.98-1.228-1.471l.454,0c-.5.626-1.029,1.247-1.553,1.847S129.517,188.189,128.945,188.766Z"/><path class="cls-8" d="M134.371,183.622a44.874,44.874,0,0,1,3.572-3.176l.223-.178.187.224c.333.421.655.846.977,1.262l.153.215-.187.164a44.4,44.4,0,0,1-3.655,3.045,45.458,45.458,0,0,1,3.259-3.447l-.031.362c-.334-.416-.656-.84-.978-1.259l.41.051A43.532,43.532,0,0,1,134.371,183.622Z"/><path class="cls-8" d="M123.374,190.177c.613.356,1.2.735,1.788,1.126s1.139.788,1.69,1.213l.227.169-.178.226c-.457.559-.925,1.12-1.416,1.65l-.2.237-.2-.218c-.363-.411-.723-.824-1.081-1.254s-.685-.863-1.007-1.314c.435.344.867.708,1.275,1.072s.816.751,1.206,1.141l-.4.01c.45-.575.9-1.132,1.377-1.68l.049.4c-.545-.431-1.083-.877-1.609-1.34S123.868,190.683,123.374,190.177Z"/><path class="cls-8" d="M118.781,188.574c.575.252,1.132.526,1.685.833.545.289,1.078.6,1.6.935l.385.236-.393.236c-.467.287-.939.563-1.424.836l-.179.1-.135-.122a24.254,24.254,0,0,1-2.022-2.046,21.128,21.128,0,0,1,2.37,1.642l-.317-.025c.461-.3.934-.587,1.406-.86l0,.478c-.52-.335-1.036-.688-1.529-1.055C119.727,189.378,119.236,189,118.781,188.574Z"/><path class="cls-8" d="M130.8,191.637a27.276,27.276,0,0,1,3.334,2l.358.245-.387.227c-.377.21-.758.411-1.139.618l-.154.083-.136-.1a29.644,29.644,0,0,1-2.989-2.224,25.131,25.131,0,0,1,3.3,1.762l-.3-.016c.375-.21.753-.428,1.133-.617l-.026.472A28.316,28.316,0,0,1,130.8,191.637Z"/><path class="cls-8" d="M138.563,189.331a27.831,27.831,0,0,1,3.367.891l.353.112-.212.3c-.3.425-.606.849-.919,1.265l-.161.205-.21-.134a24.13,24.13,0,0,1-2.986-2.008,25.145,25.145,0,0,1,3.267,1.525l-.374.082c.3-.418.605-.837.918-1.262l.135.427A24.961,24.961,0,0,1,138.563,189.331Z"/><path class="cls-8" d="M141.449,185.579c.3.036.59.086.881.143.3.033.584.092.874.149.573.13,1.148.254,1.726.4l.24.062-.046.257c-.088.516-.188,1.031-.3,1.552l-.07.289-.284-.082a25.821,25.821,0,0,1-3.577-1.123,27.336,27.336,0,0,1,3.709.59l-.348.219c.095-.527.2-1.039.315-1.554l.2.322c-.557-.182-1.114-.364-1.671-.552-.281-.106-.56-.2-.832-.326C142,185.819,141.721,185.713,141.449,185.579Z"/><path class="cls-8" d="M142.585,182.536c.336-.131.677-.24,1.013-.349s.683-.211,1.025-.313c.683-.2,1.372-.382,2.061-.55l.217-.06.106.212c.3.636.609,1.275.892,1.908l.162.366-.4.026c-.757.067-1.523.1-2.291.129s-1.528.016-2.291,0c.745-.159,1.5-.289,2.262-.4s1.509-.2,2.271-.279l-.23.393c-.315-.624-.6-1.266-.894-1.916l.323.161c-.695.135-1.405.28-2.106.39-.353.059-.7.115-1.062.16S142.944,182.506,142.585,182.536Z"/><path class="cls-8" d="M141.531,178.817a15.318,15.318,0,0,1,1.475-1.068c.5-.342,1.015-.653,1.541-.951l.181-.107.16.146c.254.224.5.469.736.7l.243.222-.262.192a20.918,20.918,0,0,1-2.781,1.752,20.656,20.656,0,0,1,2.429-2.188l-.019.411c-.249-.226-.5-.439-.736-.681l.335.042c-.523.293-1.064.563-1.611.822S142.122,178.608,141.531,178.817Z"/></g><path class="cls-11" d="M116.812,14.925s-68.529,89.745-88.3,116C19.147,141,52.057,142.8,72.273,112.368,92.489,81.955,125.172,8,116.812,14.925Z"/><path class="cls-12" d="M111.744,24.5s-66.072,88-66.984,91.724S115.734,24.66,111.744,24.5Z"/><path class="cls-12" d="M43.165,119.7c-.582.884-1.29,1.449-1.568,1.268-.294-.184-.053-1.043.526-1.921s1.284-1.44,1.568-1.25C43.979,117.956,43.738,118.824,43.165,119.7Z"/><path class="cls-13" d="M141.549,55.917a.7.7,0,0,0-.053-.081C141.508,55.859,141.531,55.883,141.549,55.917Z"/><path class="cls-13" d="M141.5,55.836a4.64,4.64,0,0,0-.355-.407C141.328,55.63,141.434,55.758,141.5,55.836Z"/><path class="cls-13" d="M143.672,59.444a14.459,14.459,0,0,0,.441-1.962c.38-3.388-.453-5.211-7.392-10.829-6.364-4.9-11.689-9.032-10.418-15.75s10.1-21.044.375-30.244c0,0,4.288,6.8-2.23,21.808s-.411,20.083,7.594,25.665c5.9,4.113,8.272,6.389,9.1,7.3a4.64,4.64,0,0,1,.355.407.7.7,0,0,1,.053.081A24.08,24.08,0,0,1,143.672,59.444Z"/><path class="cls-14" d="M141.549,55.917s.876,5.376-11.883,4.656l5.712,4.737c4.813-.908,7.17-2.018,8.294-5.866A24.08,24.08,0,0,0,141.549,55.917Z"/><path class="cls-13" d="M138.587,78.4s.884-3.928,1.282-5.528-1.881-4.948-4.491-7.565l-5.712-4.737c-1.266,3.9-1.911,4.934-.43,5.734,1.468.781,7.022,4.013,7.762,6.844A9.986,9.986,0,0,1,138.587,78.4Z"/><path class="cls-14" d="M138.587,78.4A9.986,9.986,0,0,0,137,73.151,72.362,72.362,0,0,1,126.46,78.5l5.114,3.491C136.848,79.912,138.587,78.4,138.587,78.4Z"/><path class="cls-13" d="M137.99,91.851c.37-4.266.931-3.765-6.416-9.86L126.46,78.5s-1.632,3.223-1.131,5.786c7.88,4.886,8.853,5.554,8.853,5.554a24.538,24.538,0,0,1,3.492,3.246A3.618,3.618,0,0,0,137.99,91.851Z"/><path class="cls-14" d="M137.674,93.086a24.538,24.538,0,0,0-3.492-3.246,32.542,32.542,0,0,1-6.193,2.683,1.147,1.147,0,0,0-.628.579,17.094,17.094,0,0,0,2.62,3.107C133.911,95.7,136.744,95.122,137.674,93.086Z"/><path class="cls-13" d="M133.971,104.194c1.416-3.284.765-3.728-4.1-7.98a.266.266,0,0,1,.107,0,17.094,17.094,0,0,1-2.62-3.107c-.658,1.168-.622,3.706-.685,5.377-.019.374,2.932,3.137,2.932,3.137.993.819,2.72,2.553,3.8,3.647A8.05,8.05,0,0,0,133.971,104.194Z"/><path class="cls-14" d="M133.4,105.263c-1.076-1.094-2.8-2.828-3.8-3.647a30.225,30.225,0,0,0-4.088,4.318,21.488,21.488,0,0,0,.677,3.071C128.86,108.788,131.774,107.759,133.4,105.263Z"/><path class="cls-13" d="M127.2,118.929a15.887,15.887,0,0,0,2.647-2.636c-1.968-2.746-3.547-5.859-3.652-7.288a21.488,21.488,0,0,1-.677-3.071,20.694,20.694,0,0,0-1.924,2.905c-.907,2.151.461,4.539,2.016,7.484A24.661,24.661,0,0,0,127.2,118.929Z"/><path class="cls-14" d="M123.225,122.335c1.655-1.4,2.967-2.515,3.977-3.406a24.661,24.661,0,0,1-1.59-2.606,11.035,11.035,0,0,0-3.917,3.369A5.728,5.728,0,0,0,123.225,122.335Z"/><path class="cls-13" d="M123.225,122.335a5.728,5.728,0,0,1-1.53-2.643c-1.235,1.732-1.69,3.622-.951,5.019,1.288,2.436,5.836,6.389,5.836,6.389S127.333,127.444,123.225,122.335Z"/><path class="cls-14" d="M126.119,33.321a27.469,27.469,0,0,1-4.13,3,13.845,13.845,0,0,0,4.045,7.05l3.645-2.715A11.588,11.588,0,0,1,126.119,33.321Z"/><path class="cls-15" d="M135.543,45.837a59.641,59.641,0,0,1,5.067,4.233c-3.262-2.238-5.99-.961-2.207,2.86-5.555-4.571-6.361-4.8-6.361-4.8S138.388,50.677,135.543,45.837Z"/><path class="cls-15" d="M135.011,65.048A40.948,40.948,0,0,1,138.4,68.9c-2.555-2.327-3.709-2.344-3.264-.771.589,2.048,1.082,3.461,1.082,3.461a16.133,16.133,0,0,0-4.43-3.871C134.362,68.02,135.293,66.521,135.011,65.048Z"/><path class="cls-15" d="M130.384,81.325s2.68,2.081,5.507,4.528c-3.088-2.346-5.182-.3-1.888,3.595-4.439-3.12-6.792-4.609-6.792-4.609S135.736,86.976,130.384,81.325Z"/><path class="cls-15" d="M130.486,96.779s1.561,1.467,2.977,2.829c-2.639-1.817-3.9.6-1.8,3.55-4.347-4-5.015-4.566-5.015-4.566S131.957,101.621,130.486,96.779Z"/><path class="cls-15" d="M125.825,108.615a13.236,13.236,0,0,0,2.943,6.3c-2.4-3.094-4-1.345-2.831,1.691a23.773,23.773,0,0,1-2.565-5.812S126.737,115.419,125.825,108.615Z"/><path class="cls-15" d="M122.666,121.849a21.008,21.008,0,0,1,3.1,4.881c-1.578-2.452-4.137-2.163-2.251,1.247a13.943,13.943,0,0,1-2.923-4.6S124.893,127.584,122.666,121.849Z"/><path class="cls-16" d="M108.92,63.823c-1.773-1.905-2.334-4.214-.2-7.594,3.964-6.294,12.024-10.748,19.711-16.764s13.692-10.7,13.259-24.335c-.4-12.514-12.719-16.853-15.3-14.53,0,0,11.026,1.389,12.171,9.573,1.129,8.178-.762,19.537-23.79,33.16-6.6,3.788-9.627,7.653-10.841,11.59A16.182,16.182,0,0,0,108.92,63.823Z"/><path class="cls-16" d="M122.386,80.987a5.784,5.784,0,0,0,1.006-3.275c.309-4.947-2.982-6.309-8.121-9.441-2.377-1.457-4.811-2.8-6.351-4.448a16.182,16.182,0,0,1-4.993-8.9,17.949,17.949,0,0,0-.661,6.22c.312,6.135,5.62,10.346,13.369,14.536C116.635,75.679,120.858,77.863,122.386,80.987Z"/><path class="cls-17" d="M110.071,86.979c7.313-3.1,10.794-3.977,12.315-5.992-1.528-3.124-5.751-5.308-5.751-5.308,3.619,2.479,1.843,3.045-2.005,4.4-5.467,1.939-7.943,3.237-9.188,4.529A7.148,7.148,0,0,0,110.071,86.979Z"/><path class="cls-16" d="M118.686,97.472a2.74,2.74,0,0,0,1.26-2.695c-.2-2.86-1.808-6.187-9.875-7.792v-.006a7.148,7.148,0,0,1-4.629-2.374,5.7,5.7,0,0,0-1.408,2.871c-.648,2.653-.135,3.658,3.4,4.639s7.475,2.213,7.475,2.213A7.094,7.094,0,0,1,118.686,97.472Z"/><path class="cls-17" d="M109.484,101.022c4.946-1.629,7.754-2.514,9.2-3.55a7.094,7.094,0,0,0-3.774-3.144s-3.234.857-6.26,1.481a2.828,2.828,0,0,0-2.383,1.718A12.659,12.659,0,0,0,109.484,101.022Z"/><path class="cls-16" d="M115.883,110.646c2.411-1.2,3.121-5.31.835-5.854a21.4,21.4,0,0,1-7.234-3.77,12.659,12.659,0,0,1-3.215-3.5,11.479,11.479,0,0,0-.317,3.687c-.048,2.65,1.326,5.041,4.735,6.589,2.095.685,3.817,1.232,5.054,2.918C115.782,110.7,115.839,110.675,115.883,110.646Z"/><path class="cls-17" d="M115.741,110.721c-1.237-1.686-2.959-2.233-5.054-2.918-3.315,1.767-4.615,2.734-5.142,3.78a8.009,8.009,0,0,0,2.988,2.509S113.277,111.938,115.741,110.721Z"/><path class="cls-16" d="M116.761,124.3c.724-2.335,1.007-6.558-1.1-7.2s-7.128-3.008-7.128-3.008a8.009,8.009,0,0,1-2.988-2.509,6.171,6.171,0,0,0-.4,2.736c-.079,2.793.587,3.917,2.862,4.97,3.264,1.5,4.194,2.013,4.194,2.013a11.478,11.478,0,0,1,4.125,3.655A1.7,1.7,0,0,0,116.761,124.3Z"/><path class="cls-17" d="M107.794,127.5s6.655-.7,8.531-2.542A11.478,11.478,0,0,0,112.2,121.3s-4.02,1.508-5.418,3.191C106.662,124.822,106.367,126.044,107.794,127.5Z"/><path class="cls-16" d="M113.094,133.039c-1.658-1.873-5.3-5.54-5.3-5.54-1.427-1.455-1.132-2.677-1.012-3.006a2.429,2.429,0,0,0-.331.479c-.906,1.85-1.123,5.2-.184,6.3s6.278,3.99,6.253,9.01C114.381,137.032,114.748,134.9,113.094,133.039Z"/><path class="cls-17" d="M114.768,43.333c-6.6,3.788-9.627,7.653-10.841,11.59a16.182,16.182,0,0,0,4.993,8.9c-1.773-1.905-2.334-4.214-.2-7.594,2.292-3.634,5.95-6.653,10.1-9.711A27.772,27.772,0,0,1,118,41.34C116.972,42,115.9,42.666,114.768,43.333Z"/><path class="cls-16" d="M141.69,15.13c-.4-12.514-12.719-16.853-15.3-14.53,0,0,11.026,1.389,12.171,9.573,1.08,7.778-.6,18.437-20.56,31.167a27.772,27.772,0,0,0,.823,5.178c3.05-2.245,6.36-4.507,9.61-7.053C136.112,33.454,142.123,28.768,141.69,15.13Z"/><path class="cls-18" d="M111.979,66.323s3.8,2.5,6.2,3.7c-3.607-.932-7.069.483-3.485,4.527a34.571,34.571,0,0,1-8.56-6.407C110.77,70.585,116.521,71.145,111.979,66.323Z"/><path class="cls-18" d="M110.956,87.331a28.336,28.336,0,0,1,6.235,2.248c-3.589-1.106-6.613,2.107-2.279,4.749a27.011,27.011,0,0,0-8.257-2.55S117.181,90.755,110.956,87.331Z"/><path class="cls-18" d="M110.493,101.82a19.616,19.616,0,0,0,5.1,2.677c-4.039-.522-5.816,1.66-2.2,4.24-3.792-1.5-5.453-2.325-6.786-4.455C111.037,107.144,112.914,104.207,110.493,101.82Z"/><path class="cls-18" d="M110.144,114.864s2.793,1.314,5.051,2.083c-3.13-.675-4.642,1.233-.946,5.564-4.35-3.172-5.023-2.677-6.918-3.662C107.331,118.849,112.932,119.929,110.144,114.864Z"/><path class="cls-18" d="M107.634,132.325a20.962,20.962,0,0,1,3.019,2.76c-2.012-3.208-.7-4.462,1.734-2.614a20.688,20.688,0,0,1-3.751-3.809S111.007,133.215,107.634,132.325Z"/><path class="cls-18" d="M137.554,21.371A21.394,21.394,0,0,1,132.1,30.18c4.611-2.311,7.258-3.163,4.247,2.192,0,0,4.684-4.5,5.239-13.265C140.616,23.837,136.1,29.558,137.554,21.371Z"/></g></g></g></svg>