<svg xmlns="http://www.w3.org/2000/svg" viewBox="0 0 171.669 78.293"><defs><style>.cls-1{isolation:isolate;}.cls-2{fill:#bbe4f3;}.cls-3{fill:#fffdf6;}.cls-4{fill:#797a9d;}.cls-5,.cls-8,.cls-9{fill:#5e2a15;}.cls-6{fill:#dbd5a5;}.cls-7{fill:#efeff0;}.cls-13,.cls-14,.cls-15,.cls-8{mix-blend-mode:multiply;}.cls-9{mix-blend-mode:screen;}.cls-10{fill:#360c00;}.cls-11,.cls-13{fill:#e12013;}.cls-12{fill:#fdd654;}.cls-14{fill:#b6200e;}.cls-15{fill:#5fb152;}.cls-16{fill:#fff;}.cls-17{fill:#fffde3;}</style></defs><title>Asset 1</title><g class="cls-1"><g id="Layer_2" data-name="Layer 2"><g id="Layer_1-2" data-name="Layer 1"><path class="cls-2" d="M171.669,59.949c0,10.128-38.428,18.344-85.835,18.344S0,70.077,0,59.949,38.429,41.615,85.834,41.615,171.669,49.821,171.669,59.949Z"/><path class="cls-3" d="M169.522,59.491c0,9.878-37.465,17.885-83.688,17.885S2.142,69.369,2.142,59.491s37.47-17.876,83.692-17.876S169.522,49.616,169.522,59.491Z"/><path class="cls-4" d="M156.17,57.963c0-1.209-2.6-2.307-6.771-3.088,1.768-1.069,1.391-2.27-1.572-3.34-3.418-1.234-9.5-2.007-16.139-2.209-.878-1.289-4.724-2.486-11.013-3.18a108.208,108.208,0,0,0-18.149-.328,82.5,82.5,0,0,0-16.616-1.46,86.255,86.255,0,0,0-15.956,1.314,109.538,109.538,0,0,0-17.258.3c-6.373.663-10.375,1.845-11.426,3.126-6.654.173-12.841.916-16.419,2.131-3.278,1.116-3.681,2.393-1.7,3.517-4.591.785-7.5,1.935-7.5,3.214,0,1.217,2.607,2.31,6.778,3.093-1.77,1.069-1.394,2.269,1.57,3.336,3.422,1.237,9.5,2.01,16.137,2.212.881,1.293,4.73,2.487,11.012,3.18a108.161,108.161,0,0,0,18.154.33A82.9,82.9,0,0,0,85.91,71.565a85.928,85.928,0,0,0,15.954-1.31,108.625,108.625,0,0,0,17.261-.306c6.378-.66,10.374-1.84,11.423-3.126,6.661-.168,12.846-.913,16.426-2.132,3.275-1.112,3.675-2.386,1.7-3.51C153.263,60.393,156.17,59.246,156.17,57.963Z"/><path class="cls-5" d="M144.7,56.662v-34.7H26.954V56.8h.055c0,6.944,26.353,12.575,58.855,12.575s58.855-5.631,58.855-12.575C144.719,56.754,144.7,56.708,144.7,56.662Z"/><path class="cls-6" d="M85.864,54.377c32.278,0,58.477-5.552,58.834-12.429V26.556H26.954V41.8h.055C27.009,48.749,53.362,54.377,85.864,54.377Z"/><path class="cls-7" d="M144.719,37.209c0-.046-.017-.1-.021-.141v.279C144.7,37.3,144.719,37.255,144.719,37.209Z"/><path class="cls-5" d="M85.864,49.781c32.278,0,58.477-5.554,58.834-12.434V21.961H26.954V37.209h.055C27.009,44.15,53.362,49.781,85.864,49.781Z"/><path class="cls-8" d="M144.7,56.662v-34.7H111.52V68.122c19.653-2.044,33.2-6.346,33.2-11.319C144.719,56.754,144.7,56.708,144.7,56.662Z"/><path class="cls-9" d="M50.835,21.961H44.677v43.82c1.917.4,4,.765,6.158,1.107Z"/><path class="cls-10" d="M144.69,21.961c0,6.947-26.351,12.575-58.859,12.575S26.979,28.908,26.979,21.961,53.332,9.389,85.831,9.389,144.69,15.016,144.69,21.961Z"/><path class="cls-5" d="M139.8,21.805c0,5.875-24.162,10.641-53.971,10.641S31.869,27.68,31.869,21.805,56.03,11.157,85.831,11.157,139.8,15.924,139.8,21.805Z"/><path class="cls-11" d="M63.366,9.438c.177,4.169-4,3.882-4,3.882H55.045s-4.18.287-4-3.882c.171-3.884,3.869-8.1,6.13-8a.129.129,0,0,1,.039,0,.066.066,0,0,1,.025,0C59.5,1.333,63.2,5.554,63.366,9.438Z"/><path class="cls-12" d="M52.306,10.662s-.55-.5-.417-.779.427-.153.522.248S52.524,10.953,52.306,10.662Z"/><path class="cls-12" d="M53.039,8.047s-.224-.718.021-.892.449.085.33.477S53.087,8.4,53.039,8.047Z"/><path class="cls-12" d="M55.933,8.2s-.346-.663-.132-.877.457,0,.409.409S56.046,8.545,55.933,8.2Z"/><path class="cls-12" d="M58.683,8.185s-.34-.669-.131-.883.457.009.411.415S58.8,8.529,58.683,8.185Z"/><path class="cls-12" d="M61.3,8.136s-.532-.526-.4-.8.431-.137.515.266S61.51,8.429,61.3,8.136Z"/><path class="cls-12" d="M54.273,5.361s-.194-.611.019-.76.387.07.285.409S54.317,5.68,54.273,5.361Z"/><path class="cls-12" d="M56.326,5.575s-.192-.623.025-.772.382.073.283.412S56.369,5.881,56.326,5.575Z"/><path class="cls-12" d="M55.487,3.2s-.01-.468.167-.528.252.125.116.342S55.457,3.428,55.487,3.2Z"/><path class="cls-12" d="M58.923,3.264s-.326-.326-.244-.492.269-.085.32.166S59.055,3.452,58.923,3.264Z"/><path class="cls-12" d="M57.112,3.255s-.228-.4-.1-.541.281-.006.263.248S57.19,3.474,57.112,3.255Z"/><path class="cls-12" d="M58.323,5.575s-.4-.516-.249-.726.385-.071.409.284S58.468,5.851,58.323,5.575Z"/><path class="cls-12" d="M60.394,5.743s-.469-.455-.343-.684.372-.122.446.229S60.57,6,60.394,5.743Z"/><path class="cls-12" d="M54.839,10.65s-.391-.644-.2-.871.453-.03.439.379S54.974,10.98,54.839,10.65Z"/><path class="cls-12" d="M57.53,10.645s-.3-.692-.068-.89.45.037.377.443S57.612,11,57.53,10.645Z"/><path class="cls-12" d="M60.169,10.659s-.259-.706-.021-.888.451.057.358.458S60.232,11.014,60.169,10.659Z"/><path class="cls-12" d="M62.226,10.653s-.2-.727.055-.9.442.1.315.489S62.266,11.011,62.226,10.653Z"/><path class="cls-13" d="M56.756,1.525a1.156,1.156,0,0,1,.9,0Z"/><path class="cls-14" d="M59.363,13.32H55.045a4.685,4.685,0,0,1-2.637-.693,3.112,3.112,0,0,1,2.229-.254s-1.077-1.078.212-1.1a4.872,4.872,0,0,1,2.308.565s-.268-.728.612-.565A1.643,1.643,0,0,1,58.948,12.3a3.56,3.56,0,0,0,2.465-4.155c-.375-3.477-3.157-5.715-4.524-5.77-1.011-.037-2.933,1.028-4.4,2.742,1.334-2.162,3.307-3.768,4.717-3.68a1.694,1.694,0,0,0-.454.091h.9a1.7,1.7,0,0,0-.445-.091c2.258-.141,5.99,4.1,6.156,8C63.543,13.607,59.363,13.32,59.363,13.32Z"/><path class="cls-15" d="M57.9,13.372c0-.131-.244-.235-.551-.235s-.555.1-.555.235.247.233.555.233S57.9,13.507,57.9,13.372Z"/><path class="cls-16" d="M49.458,11.558a3.528,3.528,0,0,0,2.264,2.074,13.618,13.618,0,0,0,4.794.972,8.88,8.88,0,0,0,2.655-.321c1.4-.406,3.883-.92,4.492-2.441.982-2.466-1.972-3.27-3.779-2.845-2.2.517-4.323,1.482-6.6,1.662a8.054,8.054,0,0,1-1.167-.1C50.823,10.418,49.106,10.3,49.458,11.558Z"/><path class="cls-17" d="M61.157,11.72a10.009,10.009,0,0,1-1.168.094c-2.279-.183-4.4-1.139-6.6-1.662-1.811-.424-4.762.379-3.78,2.841.613,1.525,3.1,2.038,4.493,2.445a8.709,8.709,0,0,0,2.652.321,13.662,13.662,0,0,0,4.794-.972,3.52,3.52,0,0,0,2.265-2.071C64.166,11.457,62.449,11.576,61.157,11.72Z"/><path class="cls-11" d="M82.537,8.328c.177,4.167-4.005,3.88-4.005,3.88H74.215s-4.179.287-4-3.88c.164-3.887,3.861-8.107,6.131-8H76.4C78.673.221,82.363,4.441,82.537,8.328Z"/><path class="cls-12" d="M71.477,9.557s-.546-.511-.418-.785.427-.154.522.247S71.7,9.841,71.477,9.557Z"/><path class="cls-12" d="M72.208,6.941s-.224-.718.023-.892.446.08.33.473S72.258,7.3,72.208,6.941Z"/><path class="cls-12" d="M75.1,7.091s-.342-.666-.131-.88.455.006.409.415S75.214,7.436,75.1,7.091Z"/><path class="cls-12" d="M77.853,7.072s-.342-.666-.131-.88.455,0,.406.413S77.964,7.418,77.853,7.072Z"/><path class="cls-12" d="M80.466,7.026s-.531-.525-.4-.8.439-.138.515.262S80.68,7.323,80.466,7.026Z"/><path class="cls-12" d="M73.443,4.259s-.2-.62.015-.774.391.078.293.416S73.491,4.567,73.443,4.259Z"/><path class="cls-12" d="M75.5,4.467s-.194-.624.015-.774.391.074.291.412S75.539,4.772,75.5,4.467Z"/><path class="cls-12" d="M74.661,2.094s-.017-.467.158-.529.257.125.123.342S74.629,2.314,74.661,2.094Z"/><path class="cls-12" d="M78.1,2.155s-.334-.33-.246-.495.268-.082.322.165S78.229,2.342,78.1,2.155Z"/><path class="cls-12" d="M76.282,2.146s-.228-.4-.1-.541.283-.009.262.248S76.356,2.359,76.282,2.146Z"/><path class="cls-12" d="M77.491,4.467s-.395-.52-.246-.731.387-.07.413.285S77.638,4.735,77.491,4.467Z"/><path class="cls-12" d="M79.559,4.631s-.46-.452-.339-.688.375-.122.442.233S79.741,4.885,79.559,4.631Z"/><path class="cls-12" d="M74.012,9.538s-.4-.641-.2-.868.456-.03.44.376S74.144,9.874,74.012,9.538Z"/><path class="cls-12" d="M76.7,9.532s-.3-.69-.066-.889.453.04.38.446S76.781,9.883,76.7,9.532Z"/><path class="cls-12" d="M79.335,9.55s-.26-.708-.017-.892.45.061.353.461S79.405,9.9,79.335,9.55Z"/><path class="cls-12" d="M81.4,9.541s-.2-.727.051-.889.448.092.321.486S81.431,9.9,81.4,9.541Z"/><path class="cls-13" d="M75.926.417a1.139,1.139,0,0,1,.9,0Z"/><path class="cls-14" d="M78.532,12.208H74.215a4.638,4.638,0,0,1-2.636-.687,3.05,3.05,0,0,1,2.227-.253s-1.073-1.085.216-1.11a4.845,4.845,0,0,1,2.3.566s-.272-.728.615-.566a1.631,1.631,0,0,1,1.175,1.024,3.558,3.558,0,0,0,2.469-4.149c-.379-3.48-3.162-5.721-4.531-5.77C75.043,1.22,73.127,2.289,71.669,4,73,1.84,74.966.233,76.376.325a1.4,1.4,0,0,0-.45.092h.9a1.4,1.4,0,0,0-.447-.092c2.263-.143,5.987,4.1,6.161,8C82.714,12.5,78.532,12.208,78.532,12.208Z"/><path class="cls-15" d="M77.073,12.264c0-.132-.25-.239-.553-.239s-.554.107-.554.239.246.228.554.228S77.073,12.392,77.073,12.264Z"/><path class="cls-16" d="M68.633,10.448a3.5,3.5,0,0,0,2.261,2.075,13.727,13.727,0,0,0,4.792.975,8.907,8.907,0,0,0,2.659-.324c1.4-.406,3.878-.92,4.487-2.444.987-2.463-1.966-3.263-3.784-2.838-2.2.518-4.321,1.475-6.6,1.658a9.253,9.253,0,0,1-1.165-.1C69.993,9.309,68.272,9.192,68.633,10.448Z"/><path class="cls-17" d="M80.325,10.605a8.837,8.837,0,0,1-1.17.1c-2.276-.177-4.39-1.139-6.6-1.659-1.815-.425-4.765.376-3.78,2.842.605,1.524,3.093,2.044,4.486,2.44a8.859,8.859,0,0,0,2.661.327,13.623,13.623,0,0,0,4.794-.977A3.489,3.489,0,0,0,82.977,11.6C83.335,10.345,81.618,10.464,80.325,10.605Z"/><path class="cls-11" d="M101.706,8c.178,4.171-4,3.884-4,3.884H93.384s-4.176.287-4-3.884c.167-3.88,3.863-8.1,6.131-8h.06C97.843-.1,101.539,4.121,101.706,8Z"/><path class="cls-12" d="M90.645,9.232s-.546-.513-.418-.782.431-.155.522.248S90.866,9.52,90.645,9.232Z"/><path class="cls-12" d="M91.38,6.614s-.224-.717.023-.892.447.089.328.479S91.431,6.972,91.38,6.614Z"/><path class="cls-12" d="M94.275,6.77s-.344-.666-.137-.883.461.006.412.416S94.386,7.115,94.275,6.77Z"/><path class="cls-12" d="M97.023,6.752s-.344-.67-.126-.88.454,0,.405.409S97.129,7.094,97.023,6.752Z"/><path class="cls-12" d="M99.638,6.7s-.531-.529-.4-.8.438-.137.519.266S99.849,6.993,99.638,6.7Z"/><path class="cls-12" d="M92.616,3.932s-.2-.619.018-.772.385.073.285.414S92.656,4.243,92.616,3.932Z"/><path class="cls-12" d="M94.669,4.14s-.195-.62.019-.772.383.075.286.417S94.708,4.448,94.669,4.14Z"/><path class="cls-12" d="M93.833,1.77s-.016-.467.158-.529.257.129.122.34S93.8,1.99,93.833,1.77Z"/><path class="cls-12" d="M97.269,1.831s-.334-.327-.249-.492.272-.088.323.165S97.4,2.018,97.269,1.831Z"/><path class="cls-12" d="M95.448,1.825s-.225-.406-.1-.547.286-.006.266.247S95.532,2.039,95.448,1.825Z"/><path class="cls-12" d="M96.657,4.14s-.392-.511-.243-.728.387-.071.415.287S96.81,4.414,96.657,4.14Z"/><path class="cls-12" d="M98.733,4.308s-.463-.453-.345-.685.371-.119.445.23S98.911,4.561,98.733,4.308Z"/><path class="cls-12" d="M93.182,9.214s-.394-.642-.2-.867.451-.031.433.382S93.315,9.55,93.182,9.214Z"/><path class="cls-12" d="M95.867,9.211s-.294-.693-.061-.889.448.039.375.44S95.954,9.563,95.867,9.211Z"/><path class="cls-12" d="M98.507,9.227s-.255-.709-.02-.89.453.059.36.459S98.577,9.581,98.507,9.227Z"/><path class="cls-12" d="M100.564,9.214s-.2-.721.051-.886.447.1.32.486S100.6,9.574,100.564,9.214Z"/><path class="cls-13" d="M95.1.1A1.293,1.293,0,0,1,95.545,0,1.274,1.274,0,0,1,95.993.1Z"/><path class="cls-14" d="M97.705,11.885H93.384a4.656,4.656,0,0,1-2.639-.691,3.1,3.1,0,0,1,2.231-.251s-1.071-1.082.213-1.109A4.894,4.894,0,0,1,95.5,10.4s-.271-.726.613-.568a1.655,1.655,0,0,1,1.18,1.027,3.559,3.559,0,0,0,2.47-4.149C99.376,3.233,96.6.994,95.226.939,94.216.9,92.3,1.966,90.841,3.682c1.33-2.165,3.3-3.773,4.7-3.678A1.293,1.293,0,0,0,95.1.1h.9A1.274,1.274,0,0,0,95.545,0c2.268-.144,5.994,4.1,6.161,8C101.884,12.172,97.705,11.885,97.705,11.885Z"/><path class="cls-15" d="M96.247,11.937c0-.132-.252-.233-.556-.233s-.552.1-.552.233.245.235.552.235S96.247,12.07,96.247,11.937Z"/><path class="cls-16" d="M87.8,10.125a3.509,3.509,0,0,0,2.27,2.074,13.5,13.5,0,0,0,4.786.969,8.641,8.641,0,0,0,2.662-.318c1.393-.407,3.883-.916,4.483-2.445.984-2.465-1.961-3.265-3.773-2.838-2.212.517-4.323,1.479-6.6,1.66a9.549,9.549,0,0,1-1.174-.1C89.164,8.988,87.445,8.872,87.8,10.125Z"/><path class="cls-17" d="M99.5,10.283a7.476,7.476,0,0,1-1.166.092c-2.277-.177-4.395-1.14-6.6-1.656-1.812-.428-4.767.373-3.781,2.839.61,1.53,3.1,2.038,4.491,2.447a8.731,8.731,0,0,0,2.656.32,13.63,13.63,0,0,0,4.789-.971,3.508,3.508,0,0,0,2.265-2.075C102.5,10.027,100.788,10.14,99.5,10.283Z"/><path class="cls-11" d="M120.872,9.614c.183,4.174-4,3.884-4,3.884h-4.314s-4.18.29-4-3.884c.167-3.883,3.863-8.1,6.132-8h.05C117.013,1.517,120.706,5.731,120.872,9.614Z"/><path class="cls-12" d="M109.814,10.846s-.544-.51-.421-.783.434-.152.527.248S110.034,11.133,109.814,10.846Z"/><path class="cls-12" d="M110.546,8.23s-.22-.72.025-.9.448.083.329.479S110.6,8.588,110.546,8.23Z"/><path class="cls-12" d="M113.444,8.383s-.345-.669-.132-.883.451.006.41.416S113.556,8.729,113.444,8.383Z"/><path class="cls-12" d="M116.192,8.361s-.341-.669-.129-.88.455.007.411.414S116.307,8.71,116.192,8.361Z"/><path class="cls-12" d="M118.806,8.319s-.524-.529-.393-.8.434-.138.517.265S119.019,8.606,118.806,8.319Z"/><path class="cls-12" d="M111.782,5.548s-.194-.62.02-.77.386.071.287.41S111.831,5.859,111.782,5.548Z"/><path class="cls-12" d="M113.837,5.753s-.192-.62.019-.771.387.077.288.416S113.88,6.059,113.837,5.753Z"/><path class="cls-12" d="M113,3.383s-.012-.47.164-.531.252.131.122.345S112.968,3.607,113,3.383Z"/><path class="cls-12" d="M116.435,3.446s-.331-.329-.243-.494.269-.085.319.165S116.563,3.632,116.435,3.446Z"/><path class="cls-12" d="M114.623,3.437s-.233-.408-.1-.542.278-.01.258.247S114.7,3.65,114.623,3.437Z"/><path class="cls-12" d="M115.831,5.753s-.394-.517-.247-.728.388-.067.409.285S115.981,6.027,115.831,5.753Z"/><path class="cls-12" d="M117.9,5.924s-.456-.452-.338-.688.374-.119.447.226S118.083,6.174,117.9,5.924Z"/><path class="cls-12" d="M112.352,10.827s-.4-.639-.2-.867.457-.031.446.382S112.483,11.163,112.352,10.827Z"/><path class="cls-12" d="M115.042,10.821s-.3-.693-.07-.889.453.04.377.443S115.124,11.173,115.042,10.821Z"/><path class="cls-12" d="M117.677,10.836s-.258-.708-.018-.892.45.062.358.461S117.741,11.191,117.677,10.836Z"/><path class="cls-12" d="M119.735,10.827s-.2-.721.051-.889.445.1.322.489S119.774,11.191,119.735,10.827Z"/><path class="cls-13" d="M114.263,1.709a1.4,1.4,0,0,1,.453-.092,1.37,1.37,0,0,1,.447.092Z"/><path class="cls-14" d="M116.868,13.5h-4.314a4.7,4.7,0,0,1-2.634-.687,3.085,3.085,0,0,1,2.227-.257s-1.078-1.079.213-1.1a4.861,4.861,0,0,1,2.305.566s-.27-.731.613-.566a1.65,1.65,0,0,1,1.183,1.025,3.555,3.555,0,0,0,2.462-4.153c-.373-3.476-3.158-5.715-4.528-5.769-1-.043-2.929,1.027-4.388,2.741,1.329-2.164,3.3-3.769,4.709-3.677a1.4,1.4,0,0,0-.453.092h.9a1.37,1.37,0,0,0-.447-.092c2.261-.146,5.99,4.1,6.156,8C121.055,13.788,116.868,13.5,116.868,13.5Z"/><path class="cls-15" d="M115.416,13.55c0-.126-.251-.23-.556-.23s-.556.1-.556.23.25.235.556.235S115.416,13.684,115.416,13.55Z"/><path class="cls-16" d="M106.972,11.741a3.512,3.512,0,0,0,2.263,2.074,13.715,13.715,0,0,0,4.791.969,8.764,8.764,0,0,0,2.655-.321c1.4-.406,3.881-.92,4.49-2.444.983-2.462-1.967-3.266-3.777-2.838-2.206.519-4.328,1.478-6.605,1.655a8.554,8.554,0,0,1-1.165-.094C108.333,10.6,106.612,10.482,106.972,11.741Z"/><path class="cls-17" d="M118.669,11.894a8.949,8.949,0,0,1-1.171.1c-2.277-.177-4.4-1.139-6.6-1.659-1.812-.424-4.759.379-3.779,2.842.607,1.524,3.092,2.038,4.488,2.441a8.757,8.757,0,0,0,2.657.326,13.573,13.573,0,0,0,4.792-.974,3.5,3.5,0,0,0,2.265-2.074C121.678,11.637,119.959,11.753,118.669,11.894Z"/><path class="cls-11" d="M140.044,14.213c.176,4.17-4,3.88-4,3.88h-4.32s-4.172.29-4-3.88c.168-3.884,3.862-8.1,6.128-8a.138.138,0,0,1,.035,0,.114.114,0,0,1,.026,0C136.181,6.11,139.878,10.329,140.044,14.213Z"/><path class="cls-12" d="M128.985,15.44s-.54-.506-.418-.778.428-.153.522.244S129.209,15.728,128.985,15.44Z"/><path class="cls-12" d="M129.718,12.822s-.225-.717.017-.888.451.082.34.476S129.769,13.183,129.718,12.822Z"/><path class="cls-12" d="M132.612,12.975s-.345-.662-.131-.876.457,0,.413.415S132.724,13.32,132.612,12.975Z"/><path class="cls-12" d="M135.366,12.963s-.345-.669-.134-.883.456.006.413.412S135.476,13.305,135.366,12.963Z"/><path class="cls-12" d="M137.976,12.911s-.53-.522-.393-.792.433-.142.516.26S138.188,13.207,137.976,12.911Z"/><path class="cls-12" d="M130.954,10.14s-.2-.618.02-.764.388.064.287.413S131,10.455,130.954,10.14Z"/><path class="cls-12" d="M133.005,10.351s-.188-.623.023-.77.387.07.287.412S133.046,10.659,133.005,10.351Z"/><path class="cls-12" d="M132.168,7.977s-.007-.461.167-.523.252.126.114.343S132.139,8.206,132.168,7.977Z"/><path class="cls-12" d="M135.6,8.044s-.329-.33-.244-.5.27-.082.328.165S135.736,8.23,135.6,8.044Z"/><path class="cls-12" d="M133.79,8.035s-.227-.41-.1-.544.282-.007.262.25S133.868,8.249,133.79,8.035Z"/><path class="cls-12" d="M135,10.351s-.4-.517-.246-.731.392-.07.415.288S135.151,10.623,135,10.351Z"/><path class="cls-12" d="M137.073,10.519s-.468-.456-.346-.685.376-.119.447.224S137.252,10.772,137.073,10.519Z"/><path class="cls-12" d="M131.519,15.422s-.39-.638-.2-.867.457-.028.438.382S131.659,15.759,131.519,15.422Z"/><path class="cls-12" d="M134.209,15.419s-.3-.69-.064-.886.452.033.372.444S134.293,15.771,134.209,15.419Z"/><path class="cls-12" d="M136.849,15.432s-.262-.7-.019-.886.45.058.355.461S136.915,15.792,136.849,15.432Z"/><path class="cls-12" d="M138.9,15.429s-.195-.728.055-.893.443.1.316.486S138.941,15.786,138.9,15.429Z"/><path class="cls-13" d="M133.436,6.306a1.52,1.52,0,0,1,.451-.095,1.563,1.563,0,0,1,.447.095Z"/><path class="cls-14" d="M136.044,18.093h-4.32a4.674,4.674,0,0,1-2.635-.691,3.127,3.127,0,0,1,2.224-.251s-1.074-1.081.216-1.105a4.834,4.834,0,0,1,2.307.568s-.269-.73.616-.568a1.647,1.647,0,0,1,1.176,1.026A3.56,3.56,0,0,0,138.1,12.92c-.377-3.48-3.164-5.719-4.528-5.772-1.013-.039-2.933,1.028-4.393,2.745,1.332-2.166,3.3-3.771,4.713-3.682a1.52,1.52,0,0,0-.451.095h.9a1.563,1.563,0,0,0-.447-.095c2.262-.141,5.991,4.1,6.157,8C140.22,18.383,136.044,18.093,136.044,18.093Z"/><path class="cls-15" d="M134.583,18.145c0-.125-.249-.233-.553-.233s-.553.108-.553.233.248.238.553.238S134.583,18.279,134.583,18.145Z"/><path class="cls-16" d="M126.138,16.333A3.532,3.532,0,0,0,128.4,18.41a13.661,13.661,0,0,0,4.793.972,8.967,8.967,0,0,0,2.662-.323c1.394-.408,3.876-.917,4.483-2.442.983-2.466-1.968-3.269-3.78-2.839-2.2.514-4.323,1.476-6.6,1.654a7.456,7.456,0,0,1-1.164-.1C127.5,15.2,125.784,15.08,126.138,16.333Z"/><path class="cls-17" d="M137.84,16.492a9.648,9.648,0,0,1-1.17.1c-2.28-.184-4.4-1.14-6.6-1.659-1.814-.428-4.765.376-3.781,2.841.607,1.521,3.094,2.038,4.49,2.444a8.758,8.758,0,0,0,2.655.318,13.67,13.67,0,0,0,4.794-.971,3.517,3.517,0,0,0,2.264-2.073C140.843,16.232,139.131,16.352,137.84,16.492Z"/><path class="cls-11" d="M44.192,17.824c.179,4.17-4,3.88-4,3.88H35.872s-4.177.29-4-3.88c.166-3.884,3.859-8.1,6.127-8a.078.078,0,0,1,.035-.006.05.05,0,0,1,.025.006C40.332,9.722,44.027,13.94,44.192,17.824Z"/><path class="cls-12" d="M33.134,19.052s-.547-.51-.418-.785.431-.15.521.248S33.356,19.339,33.134,19.052Z"/><path class="cls-12" d="M33.867,16.434s-.223-.721.022-.893.452.083.331.483S33.919,16.788,33.867,16.434Z"/><path class="cls-12" d="M36.764,16.59s-.343-.67-.132-.883.457.006.41.412S36.874,16.932,36.764,16.59Z"/><path class="cls-12" d="M39.514,16.571s-.346-.666-.13-.88.453.006.406.41S39.625,16.913,39.514,16.571Z"/><path class="cls-12" d="M42.129,16.522s-.534-.525-.4-.8.438-.141.517.269S42.337,16.815,42.129,16.522Z"/><path class="cls-12" d="M35.1,13.754s-.2-.623.016-.77.388.074.29.41S35.144,14.066,35.1,13.754Z"/><path class="cls-12" d="M37.157,13.959s-.191-.62.022-.77.384.074.283.416S37.2,14.268,37.157,13.959Z"/><path class="cls-12" d="M36.319,11.591s-.015-.464.163-.528.255.125.119.341S36.29,11.814,36.319,11.591Z"/><path class="cls-12" d="M39.753,11.652s-.331-.33-.239-.495.265-.085.317.165S39.884,11.836,39.753,11.652Z"/><path class="cls-12" d="M37.938,11.647s-.227-.407-.1-.544.287-.007.265.247S38.019,11.854,37.938,11.647Z"/><path class="cls-12" d="M39.149,13.959s-.4-.514-.25-.728.391-.07.416.288S39.294,14.237,39.149,13.959Z"/><path class="cls-12" d="M41.222,14.127s-.462-.452-.346-.685.375-.122.447.23S41.405,14.381,41.222,14.127Z"/><path class="cls-12" d="M35.667,19.033s-.391-.64-.192-.87.45-.03.432.382S35.8,19.367,35.667,19.033Z"/><path class="cls-12" d="M38.356,19.027s-.3-.69-.064-.885.451.04.379.443S38.442,19.382,38.356,19.027Z"/><path class="cls-12" d="M41,19.043s-.257-.706-.022-.886.453.058.359.458S41.062,19.4,41,19.043Z"/><path class="cls-12" d="M43.053,19.033s-.2-.726.05-.888.449.1.318.492S43.093,19.4,43.053,19.033Z"/><path class="cls-13" d="M37.585,9.914a1.547,1.547,0,0,1,.451-.092,1.494,1.494,0,0,1,.445.092Z"/><path class="cls-14" d="M40.193,21.7H35.872a4.631,4.631,0,0,1-2.637-.693,3.15,3.15,0,0,1,2.231-.251s-1.072-1.078.213-1.1a4.832,4.832,0,0,1,2.3.566s-.267-.734.618-.566a1.635,1.635,0,0,1,1.177,1.024,3.559,3.559,0,0,0,2.467-4.153c-.379-3.476-3.159-5.713-4.529-5.771-1.009-.036-2.929,1.026-4.388,2.741,1.331-2.157,3.3-3.768,4.708-3.676a1.547,1.547,0,0,0-.451.092h.9a1.494,1.494,0,0,0-.445-.092c2.263-.143,5.991,4.107,6.156,8C44.371,21.994,40.193,21.7,40.193,21.7Z"/><path class="cls-15" d="M38.734,21.756c0-.128-.247-.233-.555-.233s-.551.105-.551.233.244.238.551.238S38.734,21.891,38.734,21.756Z"/><path class="cls-16" d="M30.286,19.944a3.522,3.522,0,0,0,2.271,2.075,13.566,13.566,0,0,0,4.788.971,8.58,8.58,0,0,0,2.66-.324c1.392-.4,3.879-.913,4.485-2.44.987-2.466-1.964-3.267-3.776-2.842-2.209.516-4.322,1.478-6.6,1.659a8.009,8.009,0,0,1-1.173-.1C31.651,18.805,29.935,18.688,30.286,19.944Z"/><path class="cls-17" d="M41.988,20.1a8.73,8.73,0,0,1-1.171.093c-2.277-.176-4.392-1.138-6.6-1.655-1.812-.431-4.767.372-3.78,2.838.61,1.528,3.092,2.038,4.489,2.444a8.687,8.687,0,0,0,2.657.321,13.549,13.549,0,0,0,4.788-.975A3.5,3.5,0,0,0,44.639,21.1C45,19.847,43.276,19.963,41.988,20.1Z"/><path class="cls-11" d="M101.706,25c.178,4.171-4,3.884-4,3.884H93.384s-4.176.287-4-3.884c.167-3.88,3.863-8.1,6.131-8h.06C97.843,16.9,101.539,21.117,101.706,25Z"/><path class="cls-12" d="M90.645,26.229s-.546-.51-.418-.786.431-.149.522.251S90.866,26.516,90.645,26.229Z"/><path class="cls-12" d="M91.38,23.607s-.224-.717.023-.888.447.082.328.479S91.431,23.968,91.38,23.607Z"/><path class="cls-12" d="M94.275,23.764s-.344-.67-.137-.881.461,0,.412.413S94.386,24.105,94.275,23.764Z"/><path class="cls-12" d="M97.023,23.745s-.344-.663-.126-.88.454,0,.405.412S97.129,24.087,97.023,23.745Z"/><path class="cls-12" d="M99.638,23.7s-.531-.526-.4-.792.438-.143.519.26S99.849,23.986,99.638,23.7Z"/><path class="cls-12" d="M92.616,20.928s-.2-.62.018-.77.385.073.285.412S92.656,21.242,92.616,20.928Z"/><path class="cls-12" d="M94.669,21.133s-.195-.617.019-.768.383.074.286.413S94.708,21.441,94.669,21.133Z"/><path class="cls-12" d="M93.833,18.768s-.016-.471.158-.532.257.125.122.346S93.8,18.988,93.833,18.768Z"/><path class="cls-12" d="M97.269,18.829s-.334-.333-.249-.5.272-.089.323.162S97.4,19.016,97.269,18.829Z"/><path class="cls-12" d="M95.448,18.82s-.225-.41-.1-.544.286-.009.266.247S95.532,19.033,95.448,18.82Z"/><path class="cls-12" d="M96.657,21.133s-.392-.511-.243-.728.387-.063.415.29S96.81,21.407,96.657,21.133Z"/><path class="cls-12" d="M98.733,21.3s-.463-.452-.345-.685.371-.122.445.227S98.911,21.558,98.733,21.3Z"/><path class="cls-12" d="M93.182,26.211s-.394-.643-.2-.874.451-.031.433.385S93.315,26.547,93.182,26.211Z"/><path class="cls-12" d="M95.867,26.2s-.294-.69-.061-.888.448.042.375.442S95.954,26.556,95.867,26.2Z"/><path class="cls-12" d="M98.507,26.22s-.255-.709-.02-.89.453.065.36.462S98.577,26.574,98.507,26.22Z"/><path class="cls-12" d="M100.564,26.211s-.2-.728.051-.89.447.1.32.49S100.6,26.568,100.564,26.211Z"/><path class="cls-13" d="M95.1,17.091A1.445,1.445,0,0,1,95.545,17a1.422,1.422,0,0,1,.448.089Z"/><path class="cls-14" d="M97.705,28.881H93.384a4.684,4.684,0,0,1-2.639-.691,3.122,3.122,0,0,1,2.231-.253s-1.071-1.082.213-1.11A4.877,4.877,0,0,1,95.5,27.4s-.271-.729.613-.571a1.662,1.662,0,0,1,1.18,1.03,3.559,3.559,0,0,0,2.47-4.152c-.384-3.476-3.164-5.717-4.534-5.771-1.01-.037-2.927,1.029-4.385,2.74,1.33-2.159,3.3-3.767,4.7-3.672a1.445,1.445,0,0,0-.448.089h.9A1.422,1.422,0,0,0,95.545,17c2.268-.149,5.994,4.1,6.161,8C101.884,29.168,97.705,28.881,97.705,28.881Z"/><path class="cls-15" d="M96.247,28.933c0-.128-.252-.233-.556-.233s-.552.105-.552.233.245.235.552.235S96.247,29.064,96.247,28.933Z"/><path class="cls-16" d="M87.8,27.124a3.513,3.513,0,0,0,2.27,2.068,13.409,13.409,0,0,0,4.786.969,8.58,8.58,0,0,0,2.662-.318c1.393-.4,3.883-.913,4.483-2.441.984-2.468-1.961-3.269-3.773-2.844-2.212.522-4.323,1.481-6.6,1.662a8.02,8.02,0,0,1-1.174-.1C89.164,25.981,87.445,25.868,87.8,27.124Z"/><path class="cls-17" d="M99.5,27.276a8.432,8.432,0,0,1-1.166.095c-2.277-.177-4.395-1.14-6.6-1.655-1.812-.428-4.767.376-3.781,2.838.61,1.527,3.1,2.041,4.491,2.444a8.86,8.86,0,0,0,2.656.324,13.674,13.674,0,0,0,4.789-.971,3.513,3.513,0,0,0,2.265-2.079C102.5,27.02,100.788,27.136,99.5,27.276Z"/><path class="cls-11" d="M120.872,22.858c.183,4.168-4,3.878-4,3.878h-4.314s-4.18.29-4-3.878c.167-3.882,3.863-8.1,6.132-8h.05C117.013,14.756,120.706,18.976,120.872,22.858Z"/><path class="cls-12" d="M109.82,24.084s-.55-.507-.427-.782.434-.153.527.247S110.038,24.374,109.82,24.084Z"/><path class="cls-12" d="M110.546,21.472s-.22-.728.025-.9.448.086.329.484S110.6,21.823,110.546,21.472Z"/><path class="cls-12" d="M113.444,21.625s-.345-.673-.132-.884.455,0,.41.413S113.556,21.964,113.444,21.625Z"/><path class="cls-12" d="M116.192,21.6s-.341-.67-.129-.884.455.007.411.413S116.307,21.948,116.192,21.6Z"/><path class="cls-12" d="M118.811,21.555s-.529-.527-.4-.795.434-.141.517.26S119.019,21.848,118.811,21.555Z"/><path class="cls-12" d="M111.782,18.786s-.194-.62.023-.769.383.073.284.415S111.831,19.1,111.782,18.786Z"/><path class="cls-12" d="M113.837,18.991s-.192-.62.019-.767.387.07.288.413S113.88,19.3,113.837,18.991Z"/><path class="cls-12" d="M113,16.623s-.012-.468.167-.525.249.125.119.341S112.968,16.846,113,16.623Z"/><path class="cls-12" d="M116.435,16.688s-.331-.331-.243-.5.269-.086.319.165S116.566,16.871,116.435,16.688Z"/><path class="cls-12" d="M114.623,16.678s-.228-.406-.1-.55.278,0,.258.254S114.7,16.889,114.623,16.678Z"/><path class="cls-12" d="M115.831,18.991s-.394-.511-.247-.727.388-.071.409.29S115.981,19.266,115.831,18.991Z"/><path class="cls-12" d="M117.9,19.162s-.456-.455-.338-.684.374-.123.447.226S118.083,19.416,117.9,19.162Z"/><path class="cls-12" d="M112.352,24.068s-.393-.644-.2-.867.457-.031.446.379S112.483,24.4,112.352,24.068Z"/><path class="cls-12" d="M115.042,24.06s-.3-.691-.07-.89.453.04.377.446S115.124,24.411,115.042,24.06Z"/><path class="cls-12" d="M117.677,24.081s-.258-.712-.018-.895.45.061.358.461S117.741,24.433,117.677,24.081Z"/><path class="cls-12" d="M119.735,24.072s-.2-.727.051-.892.445.1.322.488S119.774,24.43,119.735,24.072Z"/><path class="cls-13" d="M114.263,14.949a1.393,1.393,0,0,1,.453-.089,1.368,1.368,0,0,1,.447.089Z"/><path class="cls-14" d="M116.868,26.736h-4.314a4.6,4.6,0,0,1-2.634-.691,3.1,3.1,0,0,1,2.227-.25s-1.078-1.082.213-1.107a4.861,4.861,0,0,1,2.305.566s-.27-.727.613-.566a1.646,1.646,0,0,1,1.183,1.025,3.553,3.553,0,0,0,2.462-4.15c-.373-3.479-3.158-5.716-4.528-5.768-1-.046-2.929,1.026-4.388,2.737,1.329-2.159,3.3-3.766,4.709-3.672a1.393,1.393,0,0,0-.453.089h.9a1.368,1.368,0,0,0-.447-.089c2.265-.149,5.99,4.094,6.156,8C121.055,27.026,116.868,26.736,116.868,26.736Z"/><path class="cls-15" d="M115.416,26.794c0-.132-.251-.238-.556-.238s-.552.106-.552.238.248.226.552.226S115.416,26.919,115.416,26.794Z"/><path class="cls-16" d="M106.972,24.98a3.5,3.5,0,0,0,2.263,2.071,13.6,13.6,0,0,0,4.791.971,8.552,8.552,0,0,0,2.655-.324c1.4-.4,3.881-.91,4.49-2.438.983-2.462-1.967-3.266-3.777-2.841-2.206.513-4.328,1.481-6.605,1.662a9.168,9.168,0,0,1-1.165-.1C108.333,23.837,106.616,23.724,106.972,24.98Z"/><path class="cls-17" d="M118.669,25.135a8.949,8.949,0,0,1-1.171.1c-2.277-.179-4.4-1.142-6.6-1.662-1.812-.423-4.759.379-3.779,2.842.607,1.527,3.092,2.038,4.488,2.444a8.787,8.787,0,0,0,2.657.324,13.662,13.662,0,0,0,4.8-.975,3.513,3.513,0,0,0,2.265-2.071C121.678,24.875,119.959,24.994,118.669,25.135Z"/><path class="cls-11" d="M63.366,23.986c.177,4.174-4,3.883-4,3.883H55.04s-4.176.291-4-3.883c.171-3.88,3.869-8.1,6.13-7.992a.067.067,0,0,1,.033-.007c.012,0,.02,0,.027.007C59.5,15.884,63.2,20.106,63.366,23.986Z"/><path class="cls-12" d="M52.306,25.221s-.55-.514-.422-.788.432-.148.527.25S52.524,25.508,52.306,25.221Z"/><path class="cls-12" d="M53.039,22.6s-.226-.722.021-.9.449.086.329.482S53.087,22.957,53.039,22.6Z"/><path class="cls-12" d="M55.933,22.758s-.346-.669-.132-.886.457.009.409.419S56.042,23.094,55.933,22.758Z"/><path class="cls-12" d="M58.683,22.739s-.346-.672-.132-.885.458.005.409.412S58.8,23.082,58.683,22.739Z"/><path class="cls-12" d="M61.3,22.688s-.532-.526-.4-.794.435-.141.519.262S61.51,22.981,61.3,22.688Z"/><path class="cls-12" d="M54.273,19.92s-.2-.62.019-.771.387.074.285.414S54.317,20.231,54.273,19.92Z"/><path class="cls-12" d="M56.326,20.124s-.192-.617.019-.767.388.074.289.41S56.369,20.433,56.326,20.124Z"/><path class="cls-12" d="M55.487,17.76s-.01-.471.167-.531.251.125.116.344S55.457,17.977,55.487,17.76Z"/><path class="cls-12" d="M58.923,17.817s-.326-.327-.244-.5.269-.085.32.168S59.055,18.007,58.923,17.817Z"/><path class="cls-12" d="M57.112,17.812s-.228-.41-.1-.544.281-.009.259.248S57.188,18.022,57.112,17.812Z"/><path class="cls-12" d="M58.323,20.124s-.4-.513-.249-.724.385-.067.409.285S58.468,20.4,58.323,20.124Z"/><path class="cls-12" d="M60.394,20.3s-.469-.462-.343-.694.372-.122.446.229S60.57,20.549,60.394,20.3Z"/><path class="cls-12" d="M54.839,25.2s-.391-.641-.2-.868.457-.03.443.379S54.974,25.532,54.839,25.2Z"/><path class="cls-12" d="M57.53,25.2s-.3-.693-.068-.889.45.034.377.443S57.612,25.547,57.53,25.2Z"/><path class="cls-12" d="M60.163,25.211s-.253-.708-.015-.892.451.062.352.461S60.232,25.563,60.163,25.211Z"/><path class="cls-12" d="M62.226,25.2s-.2-.727.055-.889.442.1.315.489S62.266,25.56,62.226,25.2Z"/><path class="cls-13" d="M56.756,16.079a1.559,1.559,0,0,1,.448-.092,1.531,1.531,0,0,1,.447.092Z"/><path class="cls-14" d="M59.363,27.869H55.04a4.608,4.608,0,0,1-2.632-.693,3.138,3.138,0,0,1,2.226-.25s-1.074-1.076.215-1.107a4.845,4.845,0,0,1,2.3.569s-.264-.731.618-.569a1.65,1.65,0,0,1,1.182,1.027A3.551,3.551,0,0,0,61.413,22.7c-.375-3.477-3.162-5.717-4.529-5.768-1.006-.04-2.928,1.026-4.391,2.734C53.827,17.5,55.8,15.9,57.2,15.987a1.559,1.559,0,0,0-.448.092h.9a1.531,1.531,0,0,0-.447-.092c2.264-.14,5.992,4.1,6.162,8C63.543,28.16,59.363,27.869,59.363,27.869Z"/><path class="cls-15" d="M57.9,27.925c0-.126-.248-.236-.559-.236s-.547.11-.547.236.247.235.547.235S57.9,28.056,57.9,27.925Z"/><path class="cls-16" d="M49.458,26.112a3.513,3.513,0,0,0,2.264,2.072,13.665,13.665,0,0,0,4.794.974,8.63,8.63,0,0,0,2.655-.323c1.4-.406,3.88-.917,4.49-2.441.984-2.466-1.97-3.266-3.781-2.845-2.205.519-4.32,1.482-6.6,1.662a7.9,7.9,0,0,1-1.167-.1C50.821,24.977,49.106,24.854,49.458,26.112Z"/><path class="cls-17" d="M61.157,26.272a9.843,9.843,0,0,1-1.168.091c-2.28-.177-4.4-1.139-6.6-1.659-1.811-.425-4.762.376-3.78,2.842.608,1.527,3.1,2.034,4.489,2.444a8.783,8.783,0,0,0,2.656.323,13.732,13.732,0,0,0,4.794-.974,3.522,3.522,0,0,0,2.265-2.074C64.166,26.012,62.448,26.128,61.157,26.272Z"/><path class="cls-11" d="M82.537,25.887c.177,4.167-4.005,3.88-4.005,3.88H74.215s-4.179.287-4-3.88c.164-3.887,3.861-8.1,6.131-8H76.4C78.673,17.787,82.363,22,82.537,25.887Z"/><path class="cls-12" d="M71.477,27.111s-.546-.509-.418-.781.427-.15.522.25S71.7,27.4,71.477,27.111Z"/><path class="cls-12" d="M72.208,24.5s-.224-.722.023-.893.446.08.33.477S72.258,24.851,72.208,24.5Z"/><path class="cls-12" d="M75.1,24.652s-.342-.672-.131-.88.455,0,.409.413S75.214,24.994,75.1,24.652Z"/><path class="cls-12" d="M77.853,24.634s-.342-.666-.131-.88.455,0,.406.409S77.964,24.977,77.853,24.634Z"/><path class="cls-12" d="M80.466,24.585s-.531-.525-.4-.8.439-.134.515.267S80.68,24.875,80.466,24.585Z"/><path class="cls-12" d="M73.443,21.814s-.2-.617.015-.764.391.067.293.409S73.491,22.129,73.443,21.814Z"/><path class="cls-12" d="M75.5,22.022s-.194-.621.015-.77.391.073.291.415S75.539,22.327,75.5,22.022Z"/><path class="cls-12" d="M74.661,19.65s-.017-.461.158-.521.257.122.123.339S74.629,19.877,74.661,19.65Z"/><path class="cls-12" d="M78.1,19.715s-.334-.33-.246-.492.268-.085.322.162S78.229,19.9,78.1,19.715Z"/><path class="cls-12" d="M76.282,19.709s-.228-.409-.1-.547.283-.006.262.25S76.356,19.92,76.282,19.709Z"/><path class="cls-12" d="M77.491,22.022s-.395-.516-.246-.724.387-.07.413.284S77.638,22.3,77.491,22.022Z"/><path class="cls-12" d="M79.559,22.192s-.46-.452-.339-.686.375-.123.442.225S79.741,22.443,79.559,22.192Z"/><path class="cls-12" d="M74.012,27.094s-.4-.639-.2-.865.456-.031.44.376S74.144,27.433,74.012,27.094Z"/><path class="cls-12" d="M76.7,27.09s-.3-.688-.066-.889.453.04.38.446S76.781,27.444,76.7,27.09Z"/><path class="cls-12" d="M79.335,27.105s-.26-.7-.017-.885.45.06.353.458S79.405,27.463,79.335,27.105Z"/><path class="cls-12" d="M81.4,27.1s-.2-.728.051-.893.448.1.321.492S81.431,27.463,81.4,27.1Z"/><path class="cls-13" d="M75.926,17.977a1.139,1.139,0,0,1,.9,0Z"/><path class="cls-14" d="M78.532,29.767H74.215a4.668,4.668,0,0,1-2.636-.691,3.094,3.094,0,0,1,2.227-.25s-1.073-1.079.216-1.109a4.82,4.82,0,0,1,2.3.568s-.272-.73.615-.568a1.637,1.637,0,0,1,1.175,1.026,3.558,3.558,0,0,0,2.469-4.149c-.379-3.48-3.162-5.716-4.531-5.774-1.011-.037-2.927,1.033-4.385,2.743,1.33-2.163,3.3-3.77,4.707-3.678a1.613,1.613,0,0,0-.45.092h.9a1.622,1.622,0,0,0-.447-.092c2.263-.144,5.987,4.1,6.161,8C82.714,30.054,78.532,29.767,78.532,29.767Z"/><path class="cls-15" d="M77.073,29.821c0-.131-.25-.235-.553-.235s-.554.1-.554.235.246.23.554.23S77.073,29.95,77.073,29.821Z"/><path class="cls-16" d="M68.633,28.01a3.5,3.5,0,0,0,2.261,2.071,13.723,13.723,0,0,0,4.792.972,8.84,8.84,0,0,0,2.659-.321c1.4-.406,3.878-.919,4.487-2.444.987-2.463-1.966-3.266-3.784-2.839-2.2.514-4.321,1.477-6.6,1.656a8.543,8.543,0,0,1-1.165-.094C69.993,26.87,68.272,26.751,68.633,28.01Z"/><path class="cls-17" d="M80.325,28.163a9.008,9.008,0,0,1-1.17.1c-2.276-.184-4.39-1.146-6.6-1.665-1.815-.422-4.765.379-3.78,2.84.605,1.529,3.093,2.041,4.486,2.452a9.115,9.115,0,0,0,2.661.317,13.533,13.533,0,0,0,4.794-.975,3.494,3.494,0,0,0,2.257-2.071C83.335,27.906,81.618,28.022,80.325,28.163Z"/></g></g></g></svg>