<svg xmlns="http://www.w3.org/2000/svg" viewBox="0 0 1121 1061"><defs><style>.cls-1{isolation:isolate;}.cls-2{fill:#ffef0a;}.cls-3{fill:#f1c621;}.cls-20,.cls-23,.cls-24,.cls-3,.cls-41,.cls-5{opacity:0.5;}.cls-23,.cls-3,.cls-34,.cls-5{mix-blend-mode:multiply;}.cls-4,.cls-5{fill:#fab90e;}.cls-6{fill:#fae60a;}.cls-7{fill:#efb617;}.cls-15,.cls-8{fill:#bdd321;}.cls-9{fill:#dd0478;}.cls-10{fill:#df4f92;}.cls-10,.cls-12,.cls-14,.cls-15,.cls-18,.cls-28,.cls-30,.cls-31,.cls-32,.cls-38,.cls-42{mix-blend-mode:screen;}.cls-11,.cls-12{fill:#5b1c7e;}.cls-13,.cls-14{fill:#d9001e;}.cls-16,.cls-18{fill:#22b4ed;}.cls-17{fill:#84cef2;}.cls-19,.cls-21,.cls-24,.cls-38{fill:#fff;}.cls-19,.cls-31{opacity:0.7;}.cls-22,.cls-23{fill:#f59817;}.cls-25{fill:#15a7e7;}.cls-26{fill:#f3bad4;}.cls-27,.cls-28{fill:#e36d1d;}.cls-29,.cls-30,.cls-31{fill:#efb62f;}.cls-30{opacity:0.9;}.cls-32{fill:#f9ea4b;}.cls-33,.cls-34{fill:#f8a30e;}.cls-35{fill:#f9e90f;}.cls-36{fill:#870008;}.cls-37{fill:#f4000b;}.cls-38{opacity:0.3;}.cls-39{fill:#e73e24;}.cls-40{fill:#ee7734;}.cls-41,.cls-42{fill:#e4b46f;}.cls-41{mix-blend-mode:color-dodge;}</style></defs><title>Asset 1</title><g class="cls-1"><g id="Layer_2" data-name="Layer 2"><g id="Layer_2-2" data-name="Layer 2"><path class="cls-2" d="M429.163,170.019c-9.182-4.622-17.878,24.821-19.445,30.667-3.462,13-4.812,27.925-10.982,39.594-2.543,4.822-6.187,8.862-11.25,8.532-17.569-1.185-27.31-41.325-44.946-43.335-21.022-2.4-32.647,29.461-39.536,47.811-17.316,46.1-25.556,96.269-25.951,146.854-.109,13.755-.755,27.36-4.522,40.459-4.513,15.663-20.04,10.634-30.135,7.884-22.434-6.134-35.626,4.749-45.24,28.682-.057.127-.1.25-.144.379-7.195,18.413-12.9,37.549-14.254,58.027-.786,11.847-.562,29.222-.271,35.034.314,6.215,15.643,26.363,19.027,14.832,2.411-8.242,2.872-23.488,3.586-32.154.87-10.476,6.417-49.182,11.025-58.171,18.353-35.812,30.545-.951,51.487-6.155,24.948-6.187,27.18-46.9,29.349-70.972,4.77-53.107,6.89-107.125,26.175-156.086,3.6-9.146,10.352-23.07,20.824-20.377,3.92,1.011,9.519,8.285,12.538,11.406,4.306,4.454,8.243,9.364,12.2,14.267,6.343,7.849,14.16,19.171,24.01,19.493,27.592.94,33.652-62.379,38.318-85.116,1.342-6.548,5.023-26.112-.723-30.808A5.729,5.729,0,0,0,429.163,170.019Z"/><path class="cls-3" d="M421.542,218.089c-4.24,15.1-8.584,35.1-18.088,46.86-16.694,20.64-31.553-4.752-42.031-19.735-5-7.151-11.578-15.428-19.945-15.313-8.123.109-15.225,4.714-20.237,12.462-10.3,15.922-14.1,36.762-17.94,56.063-5.006,25.111-9.957,49.641-12.29,75.426-1.458,16.091-2.532,32.231-4.027,48.312-1.054,11.282-1.745,22.793-4.746,33.609-5.263,19.038-18.693,23.758-33.457,17.859-9.839-3.946-23.88-12.976-32.676-1.228-5.7,7.625-8.14,17.972-9.634,27.914-3.462,23.264-1.008,48.144-6.245,70.836-2.943,12.8-9.424,11.226-15.224,5.815,4.568,7.8,13.951,17.189,16.512,8.47,2.411-8.242,2.872-23.488,3.586-32.154.87-10.476,6.417-49.182,11.025-58.171,18.353-35.812,30.545-.951,51.487-6.155,24.948-6.187,27.18-46.9,29.349-70.972,4.77-53.107,6.89-107.125,26.175-156.086,3.6-9.146,10.352-23.07,20.824-20.377,3.92,1.011,9.519,8.285,12.538,11.406,4.306,4.454,8.243,9.364,12.2,14.267,6.343,7.849,14.16,19.171,24.01,19.493,27.592.94,33.652-62.379,38.318-85.116,1.152-5.594,3.969-20.626,1.21-27.844C430.7,188.867,425.407,204.38,421.542,218.089Z"/><path class="cls-4" d="M789.753,809.922c-13.177-13.11-28.839-20.483-45.746-15.558C724.983,799.905,708.09,820,692.719,833.63c-12.405,11.006-40.182,48.449-56.8,31.9-6.976-6.937-8.33-18.3-13-27-8.791-16.378-22.411-29.958-38.4-33.935-37.748-9.393-74.931,31.712-95.087,65.963-9.415,16.042-19.081,32.919-32.379,44.556-6.267,5.471-14.8,14.692-23.206,12.4-8.767-2.4-10.763-15.73-12.177-24.75-3.745-23.912-11.87-43.371-29.888-55.751-17.618-12.107-38.538-9.757-55.145,3.535-11.584,9.273-26.5,24.368-28.234,41.862-.827,8.264,3.436,16.919,7.134,23.948,2.048,3.893,9.516,14.123,14.009,13.324,4.77-.828,8.848-12.23,11.752-16.5,7.315-10.753,14.049-25.329,25.564-30.169,6.3-2.651,12.616-.68,18.036,3.865,13.782,11.518,10.162,39.884,19.767,55.523,16.835,27.433,43.851,28.85,68.313,16.568,27.405-13.769,42.848-42.336,59.991-69.86,10.8-17.34,27.858-35.577,44.517-43.735,22.137-10.83,27.742,12.338,37.811,30.246,8.223,14.632,22.025,29.047,36.778,31.572,15.625,2.694,30.1-7.043,42.541-17.417,6.926-5.78,13.5-12.135,20.256-18.167,11.973-10.7,23.474-21.885,34.787-33.572,13.094-13.523,24.675-17.571,41.115-13.13C801.392,827.773,793.445,813.59,789.753,809.922Z"/><path class="cls-5" d="M780.755,814.874c-19.055-5.843-38.067,6.341-53.652,18.6-16.089,12.661-30.738,28.921-47.527,40.137-14.582,9.729-31.938,14-46.043.484-12.413-11.9-18.609-30.836-30.988-42.585-18.589-17.641-42.077-4.749-57.057,12.809-6.18,7.245-12.022,14.933-17.793,22.67-2.489,3.57-4.972,7.141-7.432,10.655-19.032,27.174-46.679,72.175-80.565,66.816-17.431-2.757-26.774-19.882-32.154-38.828-3.339-11.771-6.164-25.687-14.05-34.371-11.426-12.591-24.315-12.591-37-2.644-8.883,6.972-16.607,15.7-25.136,23.245-5.319,4.7-11.262,9.435-18.076,9.028a10.107,10.107,0,0,1-4.409-1.242c1.172,5.914,4.046,11.722,6.673,16.709,2.048,3.893,9.516,14.123,14.009,13.324,4.77-.828,8.848-12.23,11.752-16.5,7.315-10.753,14.049-25.329,25.564-30.169,6.3-2.651,12.616-.68,18.036,3.865,13.782,11.518,10.162,39.884,19.767,55.523,16.835,27.433,43.851,28.85,68.313,16.568,27.405-13.769,42.848-42.336,59.991-69.86,10.8-17.34,27.858-35.577,44.517-43.735,22.137-10.83,27.742,12.338,37.811,30.246,8.223,14.632,22.025,29.047,36.778,31.572,15.625,2.694,30.1-7.043,42.541-17.417,6.926-5.78,13.5-12.135,20.256-18.167,11.973-10.7,23.474-21.885,34.787-33.572,13.094-13.523,24.675-17.571,41.115-13.13,2.134.582,3.494.441,4.306-.141C790.951,820.24,786.2,816.536,780.755,814.874Z"/><polygon class="cls-6" points="920.373 502.244 904.633 536.397 926.785 538.67 920.373 502.244"/><path class="cls-7" d="M921.01,505.9c-.219.838-.478,1.673-.7,2.522a110.753,110.753,0,0,1-3.22,15.4c-.824,4.518-1.587,9.063-2.33,13.605l12.025,1.238Z"/><path class="cls-8" d="M1006.67,547.845l2.52,22.73,28.831,7.372-.057-19.566A80.456,80.456,0,0,0,1006.67,547.845Z"/><path class="cls-9" d="M816.876,470.784s36.475-60.285,39.177-97.942l15.794,12.8s-6.9,54.744-38.059,92.839Z"/><path class="cls-10" d="M851.254,426.123c6.377-16.561,10.133-27.619,12.748-46.842l-7.949-6.439c-2.7,37.657-39.177,97.942-39.177,97.942l5.648,2.567C834.292,461.6,844.693,443.168,851.254,426.123Z"/><polygon class="cls-11" points="498.913 46.407 518.417 87.449 568.49 51.311 551.689 0 498.913 46.407"/><path class="cls-12" d="M539.987,36.5c6.147-5.184,12.428-10.122,18.7-15.095L551.689,0,498.913,46.407l9.343,19.662C518.7,55.989,529.051,45.759,539.987,36.5Z"/><polygon class="cls-11" points="1051.423 513.288 1070.927 554.33 1121 518.191 1104.2 466.881 1051.423 513.288"/><path class="cls-12" d="M1092.5,503.384c6.147-5.184,12.429-10.122,18.7-15.1l-7-21.408-52.777,46.407,9.343,19.662C1071.21,522.87,1081.561,512.639,1092.5,503.384Z"/><path class="cls-12" d="M41.075,831.7c6.146-5.184,12.428-10.122,18.7-15.1l-7-21.409L0,841.606l9.343,19.661C19.787,851.188,30.139,840.957,41.075,831.7Z"/><path class="cls-13" d="M764.26,226.457c.565,2.189.539,38.531.539,38.531l20.288,10.8,5.377-48.477Z"/><path class="cls-14" d="M764.81,263.9q5.678-8.953,11.374-17.9c3.808-6,7.305-12.732,11.282-18.785l-23.206-.758C764.77,228.421,764.8,257.847,764.81,263.9Z"/><polygon class="cls-8" points="697.736 181.628 696.693 215.813 707.658 223.939 720.291 182.747 697.736 181.628"/><path class="cls-15" d="M1016.267,559.306A52.4,52.4,0,0,1,1038,569.5l-.034-11.121a80.456,80.456,0,0,0-31.294-10.536l1.2,10.806A28.477,28.477,0,0,1,1016.267,559.306Z"/><path class="cls-15" d="M710.049,182.245l-12.313-.617-1.043,34.185,3.486,2.578C703.1,206.207,706.547,194.216,710.049,182.245Z"/><polygon class="cls-9" points="633.859 197.839 626.71 237.203 654.069 228.165 633.859 197.839"/><path class="cls-10" d="M633.507,199.718l-6.8,37.485,14.732-4.868A274.006,274.006,0,0,1,633.507,199.718Z"/><path class="cls-11" d="M508.363,205.972l26.742,2.395s3.609,86.755-23.914,116.531l-14.4-5.065S513.279,261.081,508.363,205.972Z"/><path class="cls-12" d="M505.039,322.737c11.451-36.6,15.25-76.089,15.452-115.675l-12.128-1.09c4.916,55.109-11.573,113.861-11.573,113.861Z"/><polygon class="cls-16" points="333.69 92.952 352.077 81.252 355.925 114.844 344.461 116.79 333.69 92.952"/><path class="cls-17" d="M346.967,116.366c1.017-11.641,2.618-23.207,4.542-34.75L333.69,92.952l10.771,23.838Z"/><path class="cls-9" d="M177.888,246.4l25.043-1.2s.245,67.65-9.13,88.925l-18.655.947S184.633,266.931,177.888,246.4Z"/><path class="cls-10" d="M187.061,334.466c3.747-15.145,4.79-31.229,5.256-47.025.384-12.9,1.3-28.265-1.109-41.68l-13.32.642c6.745,20.528-2.742,88.673-2.742,88.673Z"/><polygon class="cls-8" points="132.063 257.219 117.173 268.842 133.734 297.84 143.878 284.817 132.063 257.219"/><path class="cls-15" d="M139.137,290.9l4.741-6.082-11.815-27.6-6.808,5.324C130.6,271.255,134.978,281.054,139.137,290.9Z"/><polygon class="cls-8" points="311.909 573.861 332.451 596.29 305.296 638.299 288.879 626.382 311.909 573.861"/><path class="cls-15" d="M304.45,615.664C310.037,605,314.622,593.583,320.279,583l-8.37-9.137-23.03,52.521,7.61,5.527C299.127,626.361,301.731,620.841,304.45,615.664Z"/><path class="cls-16" d="M256.9,845.415l12.831,7.225s-7.842,15.775-15.44,17.213l-3.837-4.679S256.926,855.635,256.9,845.415Z"/><path class="cls-18" d="M256.4,863.3c2.592-3.9,6.4-8.663,7.541-13.924l-7.034-3.956c.023,10.22-6.446,19.759-6.446,19.759l2.569,3.122C254.219,866.634,255.325,864.9,256.4,863.3Z"/><path class="cls-13" d="M285.463,754.83l5.781,24.383s-20.208,22.818-34.779,14.26-21.982-36.623-32.442-15.692l-4.712-12.794s3.37-18.939,13.83-25.561,15.663,6.426,22.023,23.19S268.421,778.574,285.463,754.83Z"/><path class="cls-14" d="M243.366,763.2c9.188,16.483,21.919,25.237,33.554,6.123a87.615,87.615,0,0,0,5.185-9.946c-14.617,19.2-21.028,18.848-26.941,3.24-6.36-16.764-11.562-29.8-22.023-23.19s-13.83,25.561-13.83,25.561l.19.533C226.37,755.42,234.593,747.458,243.366,763.2Z"/><path class="cls-9" d="M320.132,1006.168c-1.034-.28-6.834,17.319-6.834,17.319s37.315,18.272,46.532,32.47l11.106-17.011S350.026,1013.982,320.132,1006.168Z"/><path class="cls-10" d="M365.66,1047.027l5.276-8.081s-20.91-24.964-50.8-32.778c-.527-.147-2.3,4.384-3.908,8.859C333.468,1021.4,352.249,1031.476,365.66,1047.027Z"/><path class="cls-8" d="M827.043,1035.278s32.319,13.377,43.01,25.722l8.338-20.321-41.751-29.32Z"/><path class="cls-15" d="M859.275,1039.066c4.424,3.577,10.047,7.975,14.344,13.243l4.772-11.63-41.751-29.32-4.79,11.959C841.326,1027.5,850.96,1032.346,859.275,1039.066Z"/><path class="cls-9" d="M945.722,898.149s57.253,8.453,91.89,32.172l4.084-26.153s-61.3-24.8-95.977-20.469Z"/><path class="cls-10" d="M1004.853,904.287c8.888,3.591,19.585,5.366,27.822,10.942a68.625,68.625,0,0,1,6.507,5.051l2.514-16.112s-61.3-24.8-95.977-20.469v7.232C964.985,888.189,987.036,897.1,1004.853,904.287Z"/><path class="cls-11" d="M429.266,800.193l-.472-1.761c-1.475-5.513-6.573-8.894-11.152-8.34-4.873.589-8.652,5.12-9.58,10.879-.092.617-.2,1.235-.291,1.838-1.4,8.747,5.044,16.744,12.164,15.874a10.854,10.854,0,0,0,7.545-4.938C430.124,809.823,430.516,804.892,429.266,800.193Z"/><path class="cls-12" d="M425.453,792.912a9.941,9.941,0,0,0-7.811-2.82c-4.873.589-8.652,5.12-9.58,10.879-.092.617-.2,1.235-.291,1.838a15.015,15.015,0,0,0,2.319,10.732C415.061,806.471,420.139,799.54,425.453,792.912Z"/><polygon class="cls-11" points="133.596 444.277 144.342 432.591 145.419 450.085 157.87 458.919 144.538 465.576 141.482 482.709 132.173 469.339 117.841 471.107 125.41 456.173 119.598 440.124 133.596 444.277"/><path class="cls-12" d="M131.513,469.416c.936-2.932,1.87-5.85,2.814-8.7,3.025-9.1,7.132-17.957,10.081-27.1l-.066-1.024L133.6,444.277l-14-4.153,5.812,16.049-7.569,14.934Z"/><path class="cls-17" d="M1107.276,754.518c.613-4.5,6.457-56.824,8.8-65.529l-13.537,23.569-24.185-.246,14.556,23.52-7.653,27.917Z"/><path class="cls-19" d="M423.3,173.614c-6.53,8.372-10.072,22-13.379,32.642-4.107,13.208-5.3,28.2-11.8,40.147-.323.593.224,1.469.743.961,7.575-7.341,9.931-18.662,12.523-29.52a438.993,438.993,0,0,1,12.46-43.809C424,173.6,423.558,173.291,423.3,173.614Z"/><path class="cls-19" d="M334.576,210.38C321.7,215.7,311.9,232.89,306.12,247.031c-7.362,18-12,37.709-16.624,56.953-4.767,19.883-6.936,40.428-7.909,61.058-.911,19.381-2.662,38.519-2.567,57.984,0,.565.706.555.792.032,5.7-34.876,4.418-70.958,10.965-105.669,3.687-19.553,9.139-38.6,14.779-57.416,6.134-20.5,16.411-34.175,29.516-48.505C335.492,211.005,335.153,210.138,334.576,210.38Z"/><path class="cls-19" d="M231.085,450.242c-8.289,1.091-15.173,3.132-21.567,9.993-6.858,7.358-12.362,19.2-15.9,29.327-4.147,11.9-5.368,25.262-7.085,37.885a131.844,131.844,0,0,0,.7,40.484c.081.438.636.4.582-.067-2.6-22.818,1.042-46.681,5.956-68.685,2.892-12.928,8.255-22.973,14.8-33.582,5.628-9.108,14.338-11.24,22.676-14.537C231.618,450.912,231.459,450.193,231.085,450.242Z"/><g class="cls-20"><path class="cls-21" d="M785.228,809.823c-17.134-20.594-42.359-16.855-60.887-.546-10.821,9.511-20.821,20.53-31.605,30.182a421.335,421.335,0,0,1-35.225,27.792c-.443.315-.023,1.066.406.9,10.53-3.738,19.925-11,28.935-18.4,10.345-8.509,20.6-17.087,30.438-26.473,10.449-9.981,19.669-19.149,33.387-21.436,12.834-2.139,22.693,2.308,33.952,9.154C785.243,811.367,785.663,810.35,785.228,809.823Z"/><path class="cls-21" d="M604.993,818.037c-17.626-18.84-46.817-11.384-65.184,1.663-10.888,7.751-20.009,17.971-28.48,29.25-8.015,10.662-13.658,23.3-20.965,34.6-.9,1.389.717,2.9,1.708,1.691,6.668-8.137,11.8-17.978,17.664-26.957,6.907-10.55,15.574-19.57,24.329-27.679,19.335-17.844,48.117-25.736,70.459-11.651C604.985,819.251,605.356,818.437,604.993,818.037Z"/><path class="cls-21" d="M488.489,887.452c-.069.007-.063.147.015.141S488.57,887.445,488.489,887.452Z"/><path class="cls-21" d="M406.956,869.06c-4.424-10.395-13.609-20.706-23.079-23.526-24.119-7.183-49.041,10.88-63.777,32.806-.305.443.208,1.137.582.744,16.349-16.61,37.835-33.585,60.26-28.331,20.9,4.9,31.685,39.365,36.288,61.25.164.764,1.178.435,1.109-.323C417.057,897.342,412.354,881.792,406.956,869.06Z"/></g><path class="cls-22" d="M1066.576,627.518a86.268,86.268,0,0,0-13.056-2.9c-6.086-.975-8,.449-7.9,8.537.228,17.76,5.179,35.57,1.118,53.2-2.886,12.486-8.165,23.99-16.616,32.141-11.786,11.356-27.474,18.679-42.547,14.33-22.169-6.4-40.4-10.9-62.137,1.1-8.033,4.433-14.2,13.279-18.439,22.446a78.055,78.055,0,0,0-5.5,16.316c-.758,3.556-2.117,7.709-1.469,11.434.916,5.373,4.68,4.833,8.09,6.818,4.571,2.665,7.794,8.151,12.512,10.563,7.028,3.592,9.47-5.19,11.855-11.517a45.176,45.176,0,0,1,8.015-14.205c5.844-6.712,13.4-9.876,21.066-12.2,23.946-7.211,46.979,11.357,71.225,8.263,18.983-2.427,40.876-24.312,47.471-45.748,7.9-25.694,14.71-56.824,4.707-83.114C1081.688,634.4,1074.3,630.022,1066.576,627.518Z"/><path class="cls-23" d="M1084.963,642.992c-3.275-8.593-10.66-12.97-18.387-15.474-.447-.14-.9-.259-1.346-.385,28.538,30.961,14.661,111.915-22.048,127.255-18.441,7.7-34.954.442-53.024-5.141-10.919-3.367-22.984-6.25-33.923-1.277-11.53,5.254-16.694,14.043-22.984,25.792-.853,1.859-1.674,3.739-2.454,5.661a106.282,106.282,0,0,1-5.392,12.24,22.727,22.727,0,0,1-7.2,8.27,15.388,15.388,0,0,0,2.417,1.578c7.028,3.592,9.47-5.19,11.855-11.517a45.176,45.176,0,0,1,8.015-14.205c5.844-6.712,13.4-9.876,21.066-12.2,23.946-7.211,46.979,11.357,71.225,8.263,18.983-2.427,40.876-24.312,47.471-45.748C1088.154,700.412,1094.966,669.282,1084.963,642.992Z"/><path class="cls-24" d="M1025.688,727.768c-12.35,6.854-26.308,10.5-39.813,8.032-11.267-2.076-22.561-8.7-33.981-8.445-19.634.435-37.944,13.411-43.813,37.085a.239.239,0,0,0,.446.169c6.247-13.216,14.055-23.359,26.193-28.5,11.273-4.8,21.826-3.213,33.033.6,20.317,6.888,40.942,8.628,58.295-8.116C1026.379,728.267,1026.1,727.551,1025.688,727.768Z"/><path class="cls-24" d="M182.551,256.058c-.064-.638-.8-.519-.8.1-.063,24.848-3.917,49.241-5.234,73.942-.049,1.021,1.184,1.68,1.515.572,3.506-11.735,3.727-24.414,4.4-36.756C183.118,281.394,183.841,268.516,182.551,256.058Z"/><path class="cls-24" d="M511.637,220.706c-1.641,15.4-2.1,30.919-3.672,46.316-1.515,14.716-4.269,28.878-7.223,43.188a.542.542,0,0,0,1.013.386c11.812-27.146,9.626-59.806,10.683-89.729C512.464,220.257,511.709,220.057,511.637,220.706Z"/><path class="cls-24" d="M632.373,211.629c-.913,3.893-1.769,7.8-2.4,11.763-.608,3.862-2.04,7.453-2.04,11.437a.635.635,0,0,0,1.239.249c2.618-7.246,2.716-15.628,4.041-23.267C633.323,211.138,632.522,211.005,632.373,211.629Z"/><path class="cls-24" d="M699.044,185.325c-1.383,8.95-2.791,18.637-1.864,27.781a.8.8,0,1,0,1.6.073c1.031-5.162.481-10.851.7-16.137.158-3.917.513-7.758.507-11.682A.469.469,0,1,0,699.044,185.325Z"/><path class="cls-24" d="M770.844,228.429c-3.922-.2-4.4,2.111-4.622,6.39-.334,6.484.118,12.962.008,19.426a.614.614,0,0,0,1.2.242c1.042-2.869.437-7.267.512-10.283.116-4.573-1.114-12.2,3.039-14.152C771.573,229.775,771.568,228.463,770.844,228.429Z"/><path class="cls-24" d="M856.87,380.239c-4.17,15.077-8.634,29.821-13.741,44.481-5.253,15.131-13.851,28.185-21.59,41.449-.524.905.38,2.286,1.152,1.494,8.86-9.287,15.144-23.927,20.611-36.3a231.567,231.567,0,0,0,8.744-24.874c2.566-8.287,3.347-17.388,5.507-25.872C857.7,380.063,857.017,379.667,856.87,380.239Z"/><path class="cls-24" d="M994.089,337.068c-5.979,6.8-13.367,11.518-19.712,17.8-6.846,6.765-15.651,10.588-22.1,17.774-.865.968-.156,3.178,1.077,2.4,15.006-9.3,30.357-21.443,41.2-37.38C994.789,337.317,994.38,336.749,994.089,337.068Z"/><path class="cls-24" d="M918.34,508.732c-3.816,7.962-7.742,15.7-10.677,24.228-.32.926.613,1.529,1.149.877,2.373-2.855,3.69-7.1,5.28-10.6,2.024-4.465,3.257-9.452,5-14.092C919.322,508.55,918.6,508.178,918.34,508.732Z"/><path class="cls-24" d="M1033.9,558.051c-6.006-6.45-14.059-5.535-21.325-7.863-.458-.148-.628.7-.237.94a35.815,35.815,0,0,0,9.83,4.015c3.88.909,7.3,3.939,11.124,4.521C1034.044,559.776,1034.47,558.668,1033.9,558.051Z"/><path class="cls-24" d="M312,580.4c-6.461,13.075-12.745,26.311-18.572,39.814-.527,1.221,1.092,2.469,1.7,1.284a420.874,420.874,0,0,0,18.332-40.27C313.92,580.052,312.514,579.35,312,580.4Z"/><path class="cls-24" d="M274.337,771.693c-5.274,4.412-9.977,5.254-15.953,3-3.474-1.291-5.3-7.765-6.573-11.489-2.293-6.783-2.417-13.124-6.619-18.813-6.276-8.516-16.3,2.146-20.063,8.473-.553.926.478,1.936,1.106,1.109,3.416-4.384,13.37-15.523,18.367-4.286,1.489,3.339,1.978,6.7,2.768,10.367a54.489,54.489,0,0,0,5.466,15.243c5.058,8.943,17.518,3.633,22.512-1.881C276.16,772.514,275.27,770.908,274.337,771.693Z"/><path class="cls-24" d="M420.821,792.056c-6.8-3.311-15.011,6.453-13.577,14.842.326,1.845,2.552,2.175,2.857.12a22.483,22.483,0,0,1,3.053-9.077c1.734-2.9,4.566-3.788,7.4-3.914C421.392,793.992,421.591,792.428,420.821,792.056Z"/><path class="cls-24" d="M1038,908.264c-11.541-9.4-27.23-12.247-40.479-16.238-14.455-4.342-31.7-10.339-46.639-7.435-.662.133-.78,1.437-.04,1.508,29.822,3.387,57.858,14.077,86.521,23.849C1038.122,910.207,1038.64,908.783,1038,908.264Z"/><path class="cls-24" d="M872.585,1038.736c-4.309-4.763-10.015-8.368-14.977-12-6.086-4.441-11.962-9.175-18.955-11.175-.466-.126-.631.681-.236.94,11.61,7.148,21.959,16.288,33.166,24.186C872.568,1041.381,873.348,1039.571,872.585,1038.736Z"/><path class="cls-24" d="M366.109,1039.066c-3.531-8.088-12.056-14.836-18.58-18.89-7.661-4.742-16.72-10.816-25.484-11.483-.464-.035-.746.772-.262,1.01,6.843,3.374,13.767,6.5,20.253,10.8,8.359,5.548,14.715,13.579,22.437,20A1.121,1.121,0,0,0,366.109,1039.066Z"/><path class="cls-24" d="M338.139,92.384c-.832-.926-2.2.617-1.443,1.655,3.431,4.668,4.266,11.2,7.281,16.154.611,1.017,1.942.126,1.579-1.052C343.8,103.361,341.985,96.652,338.139,92.384Z"/><path class="cls-24" d="M138.452,278.711c-1.809-6.232-3.468-12.78-6.475-18.342-.616-1.144-2.218-.106-1.74,1.157,2.287,6.033,3.7,12.6,6.406,18.378C137.254,281.184,138.82,280,138.452,278.711Z"/><path class="cls-25" d="M645.74,27.837c-9.188.68-7.725,17.974,1.44,17.29C656.368,44.447,654.913,27.153,645.74,27.837Z"/><path class="cls-25" d="M916.485,147.924c-9.191.677-7.728,17.964,1.432,17.29C927.1,164.534,925.653,147.243,916.485,147.924Z"/><path class="cls-25" d="M266.863,967.392c-8.756.653-7.365,17.123,1.362,16.47C276.981,983.217,275.6,966.74,266.863,967.392Z"/><path class="cls-25" d="M237.98,648.457c-1.146-2.638-2.341-4.791-4.957-5.374-2.961-.652-5.561,1.7-6.572,4.959-1.432,4.546.458,9.821,4.634,10.691a5.783,5.783,0,0,0,5.907-2.7C238.28,654.117,238.988,650.785,237.98,648.457Z"/><path class="cls-25" d="M131.205,708.43c-6.676.5-5.622,13.068,1.028,12.577C138.924,720.5,137.861,707.946,131.205,708.43Z"/><path class="cls-25" d="M88.163,497.762c-8.5.628-7.148,16.61,1.319,15.986C97.991,513.116,96.643,497.13,88.163,497.762Z"/><path class="cls-25" d="M186.7,793.333c-2.742-.463-4.873.645-6.789,2.974-1.76,2.139-1.477,5.4-.959,8.031a5.447,5.447,0,0,0,5.634,4.223,5.829,5.829,0,0,0,4.507-4.37C192.05,800.978,191.249,794.111,186.7,793.333Z"/><path class="cls-25" d="M812.541,908.853c-10.59.779-8.911,20.682,1.642,19.9C824.765,927.971,823.089,908.068,812.541,908.853Z"/><path class="cls-25" d="M1028.329,465.566c-7.889.585-6.642,15.424,1.233,14.842C1037.454,479.819,1036.2,464.98,1028.329,465.566Z"/><path class="cls-25" d="M1010.034,856.476c-.138-.666-.27-1.332-.415-1.992a6.6,6.6,0,0,0-6.872-5.134c-2.851.351-5.544,3.142-5.913,6.7-.066.687-.135,1.374-.2,2.062-.565,5.45,2.911,10.465,7.583,9.89a6.74,6.74,0,0,0,4.7-3.079C1010.645,862.354,1010.65,859.528,1010.034,856.476Z"/><path class="cls-25" d="M254.8,227.355c-9.2.681-7.739,17.968,1.417,17.291C265.4,243.962,263.954,226.668,254.8,227.355Z"/><path class="cls-26" d="M543.078,118.709c-.13-.232-.142-.214,0,0Z"/><path class="cls-26" d="M544.584,123.331A7.181,7.181,0,0,0,543.265,119a1.6,1.6,0,0,1-.187-.287,10.568,10.568,0,0,1,.659,1.669c-1.342-4.279-5.017-6.993-8.744-6.537-3.747.456-6.872,4.005-7.5,8.522-.64,4.566,1.374,9.193,4.821,11.111a7.079,7.079,0,0,0,3.1.877,5.984,5.984,0,0,0,3.061.5,6.848,6.848,0,0,0,4.77-3.122c1.313-1.943,1.5-3.9,1.564-6.3A9.98,9.98,0,0,0,544.584,123.331Z"/><path class="cls-26" d="M779.7,98.581c-10.323.768-8.689,20.173,1.6,19.416C791.628,117.229,789.986,97.816,779.7,98.581Z"/><path class="cls-26" d="M703.779,305.931c-9.456.7-7.961,18.476,1.46,17.775C714.7,323.018,713.2,305.229,703.779,305.931Z"/><path class="cls-26" d="M927.136,239.017a22.289,22.289,0,0,0-2.961-.207,7.039,7.039,0,0,0-3.26.589c-.109.046-.21.056-.32.1s-.2.12-.3.169c-.078.049-.159.091-.228.133a9.3,9.3,0,0,0-4.372,5.524,11.994,11.994,0,0,0-.608,2.374,12.857,12.857,0,0,0,0,3.227,6.271,6.271,0,0,0,.087.684c.046.312.115.6.19.908.069.284.1.586.193.863.046.161.123.287.178.445.035.084.075.151.1.228a9.749,9.749,0,0,0,3.208,4.423,2.8,2.8,0,0,0,.3.207,7.583,7.583,0,0,0,.945.6,8.056,8.056,0,0,0,2,.8,7.535,7.535,0,0,0,4.248-.288,7.643,7.643,0,0,0,4.211-1.95,11.09,11.09,0,0,0,3.436-6.72C934.93,245.757,931.814,239.631,927.136,239.017Z"/><path class="cls-26" d="M926.949,434.912c-11.187.825-9.41,21.871,1.737,21.044C939.872,455.121,938.1,434.078,926.949,434.912Z"/><path class="cls-26" d="M962.3,641.919c-9.37.7-7.886,18.308,1.445,17.62C973.116,658.845,971.63,641.231,962.3,641.919Z"/><path class="cls-26" d="M1048.7,797.639c-10.85.807-9.127,21.2,1.682,20.4C1061.218,817.231,1059.5,796.84,1048.7,797.639Z"/><path class="cls-26" d="M884.615,890.532c-2.5-4.041-6.679-5-10.2-2.343-1.881,1.41-2.523,4.91-1.627,7.407.233,4.244,3.513,7.983,7.2,7.526C884.843,902.526,887.605,895.372,884.615,890.532Z"/><path class="cls-26" d="M855.344,736.116c-3.715-3.7-9.519-2.077-11.515,3.262a12.826,12.826,0,0,0-.956,6.986c.533,3.03,2.1,6.124,4.939,6.46a8.2,8.2,0,0,0,4.344-.372,14.583,14.583,0,0,0,2.86-1.928C859.18,747.416,858.867,739.609,855.344,736.116Z"/><path class="cls-26" d="M703.465,757.5a.331.331,0,0,1-.1-.063c-2.275-1.6-5.59-.884-7.609.926l-.118.105a10.352,10.352,0,0,0-3.174,8.628q.15,1.072.308,2.146c.573,4.1,2.773,7.491,6.282,8.207,3.709.772,8.577-2.511,8.784-7.569.029-.715.055-1.424.081-2.132C708.1,763.093,706.838,759.867,703.465,757.5Z"/><path class="cls-26" d="M273.781,534.286a4.966,4.966,0,0,0-1.981-.926,6.107,6.107,0,0,0-6.752,4.346c-.2.634-.414,1.28-.61,1.918-1.351,4.174-.236,9.627,3.491,11.412,1.843.891,3.652.807,5.576.828,3.968.081,6.872-5.3,6.5-9.687C279.685,538.211,277,534.8,273.781,534.286Z"/><path class="cls-26" d="M234.674,368.149A10.281,10.281,0,0,0,228.81,378.5a10.548,10.548,0,0,0,2.9,6.5,10,10,0,0,0,4.551,2.35c5.236,1.627,10.052-4.784,9.548-10.866C245.279,370.022,239.657,365.785,234.674,368.149Z"/><path class="cls-26" d="M391.4,741.84c-.343-4.2-3.934-8.656-7.667-7.632-2.273.631-4.729,1.557-6.051,4.139a14.582,14.582,0,0,0-1.74,7.392,7.7,7.7,0,0,0,5.57,7.268,6.081,6.081,0,0,0,6.112-2.673C390.087,748.777,391.685,745.2,391.4,741.84Z"/><path class="cls-26" d="M184.731,972.085c-5.3.386-4.459,10.332.806,9.953C190.831,981.653,189.99,971.685,184.731,972.085Z"/><path class="cls-26" d="M464.687,1010.545c-9.366.688-7.886,18.308,1.446,17.606C475.511,1027.457,474.025,1009.844,464.687,1010.545Z"/><path class="cls-26" d="M587.822,903.831c-11.279.827-9.479,22.039,1.742,21.2C600.846,924.2,599.066,902.989,587.822,903.831Z"/><path class="cls-26" d="M754.868,982.172c-9.2.68-7.733,17.978,1.426,17.3C765.482,998.775,764.03,981.491,754.868,982.172Z"/><path class="cls-26" d="M1054.355,587.052c-9.2.681-7.745,17.964,1.42,17.284C1064.966,603.655,1063.514,586.371,1054.355,587.052Z"/><path class="cls-26" d="M291.736,158.993c-6.941.511-5.847,13.562,1.072,13.05S298.649,158.481,291.736,158.993Z"/><path class="cls-26" d="M153.463,632.646c-7.9.582-6.636,15.424,1.233,14.842C162.582,646.9,161.332,632.056,153.463,632.646Z"/><path class="cls-26" d="M139.771,803.293c-5.035.365-4.234,9.827.777,9.47C145.583,812.384,144.782,802.914,139.771,803.293Z"/><path class="cls-26" d="M111.6,685.78c-4.237.316-3.575,8.312.659,8C116.51,693.454,115.834,685.472,111.6,685.78Z"/><path class="cls-26" d="M182.709,724.36c-1.572-2.406-3.255-3.465-5.726-3.662-3.185-.246-6.192,1.705-6.774,5.822-.588,4.279,2.569,9.175,6.365,8.312,2.466-.561,4.571-1.206,5.977-3.97C183.579,728.877,184.037,726.4,182.709,724.36Z"/><path class="cls-2" d="M460.972,152.567c-9.113.674-7.668,17.8,1.411,17.126C471.49,169.023,470.044,151.894,460.972,152.567Z"/><path class="cls-2" d="M343.966,160.29a13.135,13.135,0,0,0,.686,4.64c.91,2.154,3.856,2.971,4.723.172a15.454,15.454,0,0,0,.352-5.506C349.5,155.044,343.741,155.766,343.966,160.29Z"/><path class="cls-2" d="M273.292,316.979c-3.906.287-3.284,7.631.6,7.344C277.8,324.035,277.18,316.691,273.292,316.979Z"/><path class="cls-2" d="M188.55,440.18c-5.467.407-4.6,10.683.841,10.284C194.864,450.06,194,439.781,188.55,440.18Z"/><path class="cls-2" d="M234.132,618.848c-5.9.428-4.965,11.525.91,11.1C240.941,629.5,240.005,618.413,234.132,618.848Z"/><path class="cls-2" d="M285.676,499.2c-1.129.077-.947,2.2.179,2.118S286.8,499.115,285.676,499.2Z"/><path class="cls-2" d="M978.905,502.489c-11.011.814-9.272,21.535,1.705,20.721C991.633,522.4,989.881,501.676,978.905,502.489Z"/><path class="cls-2" d="M816.438,566.349c-7.552.554-6.351,14.748,1.161,14.186C825.157,579.981,823.956,565.788,816.438,566.349Z"/><path class="cls-2" d="M816.767,699.62c-6.158.463-5.188,12.044.95,11.587C823.875,710.752,822.9,699.171,816.767,699.62Z"/><path class="cls-2" d="M641.814,801.659c-4.341.33-3.652,8.487.668,8.157C646.82,809.5,646.134,801.343,641.814,801.659Z"/><path class="cls-2" d="M494.877,797.092c-6.333.456-5.328,12.374.985,11.9S501.185,796.622,494.877,797.092Z"/><path class="cls-2" d="M453.688,744.519c-.6-.554-1.207-1.094-1.818-1.627-1.221-1.1-3.185.848-2.03,2.342.51.646,1.011,1.3,1.518,1.965C453.028,749.345,455.493,746.14,453.688,744.519Z"/><path class="cls-2" d="M351.345,795.037c-5.38.407-4.522,10.522.835,10.122C357.561,804.759,356.708,794.644,351.345,795.037Z"/><path class="cls-2" d="M403.431,992.16c-.1-.442-.2-.89-.294-1.333a5.419,5.419,0,0,0-5.6-4.187c-2.345.288-4.459,2.553-4.8,5.45-.06.47-.115.926-.164,1.389-.518,4.419,2.405,8.459,6.135,8A5.419,5.419,0,0,0,402.532,999,8.513,8.513,0,0,0,403.431,992.16Z"/><path class="cls-2" d="M586.67,978.005c-11.023.821-9.272,21.527,1.7,20.714C599.394,997.9,597.64,977.191,586.67,978.005Z"/><path class="cls-2" d="M80.047,905.816c-7.454.554-6.279,14.576,1.152,14.022C88.659,919.3,87.484,905.262,80.047,905.816Z"/><path class="cls-2" d="M963.622,800.158c-7.378.561-6.2,14.414,1.135,13.867C972.134,813.471,970.964,799.617,963.622,800.158Z"/><path class="cls-2" d="M1051.5,397.539c-8.33.625-7.014,16.274,1.278,15.664C1061.109,412.585,1059.793,396.929,1051.5,397.539Z"/><path class="cls-2" d="M918.622,345.366c-2.621.326-4.556,3.837-3.473,6.9.2.565.391,1.133.6,1.7.634,1.824,2.1,3.016,3.755,2.805,1.743-.21,2.757-1.736,3.22-3.654.142-.61.292-1.206.433-1.831C923.925,348.046,921.088,345.075,918.622,345.366Z"/><path class="cls-2" d="M812.9,397.722c-3.465.256-2.912,6.779.545,6.516C816.916,403.993,816.366,397.469,812.9,397.722Z"/><path class="cls-2" d="M824.707,286.5c-3.655-.515-7.131,2.778-6.731,7.657.441,5.31,5.62,8.137,9.168,4.994C831.035,295.7,829.8,287.213,824.707,286.5Z"/><path class="cls-2" d="M765.453,150.1c-1.97-1.95-4.721-1.459-6.357.772-.415.579-.838,1.157-1.256,1.725a6.4,6.4,0,0,0,.637,7.737c1.956,1.943,4.724,1.459,6.348-.778.423-.572.841-1.151,1.259-1.729A6.38,6.38,0,0,0,765.453,150.1Z"/><path class="cls-2" d="M633.94,104.266c-7.642.561-6.426,14.913,1.172,14.344C642.747,118.049,641.538,103.7,633.94,104.266Z"/><path class="cls-2" d="M597.911,276.13c-7.29.537-6.138,14.236,1.129,13.7C606.324,289.286,605.169,275.586,597.911,276.13Z"/><path class="cls-2" d="M219.936,915.237c-1.806-3.01-6.115-3.585-8-.274-.414.743-.829,1.48-1.256,2.217a7.045,7.045,0,0,0-.166,7.119c1.422,2.371,4.732,3.391,6.679,1.291.55-.6,1.086-1.179,1.627-1.761A7.218,7.218,0,0,0,219.936,915.237Z"/><path class="cls-2" d="M110.35,568.779c-3.992.295-3.353,7.8.61,7.506C114.958,575.983,114.324,568.485,110.35,568.779Z"/><path class="cls-27" d="M976.952,946.394c-1.374-7.607-4.271-9.045-11.071-11.738v-.007l-26.15-10.644L932.1,891.724h0c-1.984-8.351-3.053-11.942-9.257-13.871-7.382-2.3-12.626,6.225-12.716,6.365L892.291,913.6l-27.768-1.147c-7.2-.007-10.369.277-13.675,6.955-3.211,6.471-.314,13.289.933,15.684l17.725,30.24-10.2,34.247c-1.463,7.706-1.722,11.374,2.7,16.519,3.793,4.406,8.768,3.743,11.55,2.873l1.777-.691c.213-.1.337-.158.337-.158l-.009.039,27.215-10.466,22.478,21.331-.006-.018a1,1,0,0,0,.095.106l1.832,1.75c2.4,1.978,6.76,4.514,11.451,2.062,5.709-2.991,6.452-6.611,7.305-14.7l.242-36.068,25.72-21.173C973.781,959.157,978.28,953.756,976.952,946.394Z"/><g class="cls-20"><path class="cls-28" d="M917.793,917.3c-2.181,14.762-5.087,29.422-6.893,44.261,8.14-14.229,18.206-26.339,28.739-37.937L932.1,891.724c-1.9-8-2.975-11.626-8.516-13.608Z"/><path class="cls-28" d="M926.989,988.232a47.235,47.235,0,0,0-13.825-1.01,38.477,38.477,0,0,1-7.108-.13c-.45,1.544-.847,3.122-1.2,4.707-.833,5.366-1.7,10.725-2.509,16.1l.518-.2,22.478,21.331-.006-.018a1,1,0,0,0,.095.106l1.832,1.75c2.148,1.761,5.846,3.96,9.948,2.676-1.342-5.468-2.9-10.873-4.07-16.361C931.085,1007.532,929.092,997.863,926.989,988.232Z"/><path class="cls-28" d="M893.636,979.727c-12.379,9.375-23.208,21.166-33.813,33.291A18.316,18.316,0,0,0,862,1016.1a9.6,9.6,0,0,0,5.723,3.336c2.227-3.97,4.465-7.93,6.953-11.686C880.906,998.319,887.611,989.355,893.636,979.727Z"/><path class="cls-28" d="M861.729,929.9c2.33,1.684,4.747,3.2,7.178,4.693-1.573-1.768-3.111-3.574-4.649-5.331-3.8-4.346-7.716-8.607-11.708-12.724a20.067,20.067,0,0,0-1.7,2.872,13.721,13.721,0,0,0-1.074,3.037C853.6,925.453,858.417,927.522,861.729,929.9Z"/><path class="cls-28" d="M897.908,904.354l-5.617,9.248c4.349,4.787,11.086,15.6,13.166,22.674C904.2,927.266,899.863,913.627,897.908,904.354Z"/><path class="cls-28" d="M956.269,953.658c-5.046,1.077-10.089,2.125-15.08,3.476-3.3.894-7.21,1.322-10.64,2.563,4.105-.326,9.208-1.9,11.417,1.961a2.626,2.626,0,0,1-1.1,3.412c-1.483,1.084-3.03,2.185-4.519,3.388a152.7,152.7,0,0,0,10.539,13.188l25.1-20.658a17.989,17.989,0,0,0,5.124-10.423C970.155,951.543,963.17,952.188,956.269,953.658Z"/></g><path class="cls-29" d="M967.733,944.858c-1.176-6.509-3.658-7.729-9.459-10.03v-.014l-22.356-9.095L929.4,898.132h0c-1.691-7.145-2.613-10.2-7.909-11.855-6.311-1.964-10.8,5.321-10.867,5.447l-15.251,25.1-23.727-.972c-6.155-.014-8.854.232-11.691,5.938-2.745,5.527-.268,11.349.8,13.405l15.147,25.837-8.721,29.278c-1.248,6.577-1.472,9.723,2.3,14.113,3.243,3.767,7.5,3.2,9.873,2.452l1.518-.586c.179-.084.285-.136.285-.136l-.012.031,23.258-8.94,19.214,18.227-.006-.01a.806.806,0,0,0,.081.087l1.567,1.491c2.053,1.69,5.777,3.858,9.784,1.764,4.882-2.553,5.518-5.646,6.247-12.559l.2-30.829,21.991-18.093C965.028,955.762,968.867,951.15,967.733,944.858Z"/><path class="cls-30" d="M941.949,1006.294l-.006-.035-.011-30.569,21.561-18.363L941.275,975l-.187.14-.009.281-.435,30.761c-.152,1.249-.291,2.508-.5,3.708a16.918,16.918,0,0,1-.9,3.465,8.662,8.662,0,0,1-.74,1.487c-.291.452-.657.817-.988,1.238l-1.172.982-1.423.838c-.392.225-.9.372-1.339.568a13.324,13.324,0,0,1-1.432.284,13.177,13.177,0,0,1-1.446-.042,10.222,10.222,0,0,1-1.434-.357,11.21,11.21,0,0,1-2.7-1.4l-.668-.5-.164-.123-.031-.025-.067-.066-.317-.3-1.146-1.094-1.238-1.182h0l-18.013-17.2-.346-.323-.415.162-21.9,8.5.075-.309-1.474.821c-.34.2-.951.389-1.406.578a9.028,9.028,0,0,1-1.429.4,9.574,9.574,0,0,1-2.926.179,9.4,9.4,0,0,1-1.434-.263c-.461-.151-.922-.35-1.368-.536-.395-.278-.8-.488-1.207-.807-.38-.372-.882-.831-1.164-1.136l-1.025-1.316c-.32-.466-.573-.961-.864-1.424-.236-.508-.415-1.034-.614-1.546a14.444,14.444,0,0,1-.3-1.68,12.693,12.693,0,0,1-.038-1.761,16.572,16.572,0,0,1,.15-1.813c.138-1.21.357-2.424.565-3.644l8.49-29.324.075-.253-.132-.213L860.759,935.2l14.675,25.914-8.86,28.931-.017.049-.006.046c-.231,1.252-.478,2.5-.645,3.791a18.954,18.954,0,0,0-.193,1.971,14.534,14.534,0,0,0,.02,2.042,16,16,0,0,0,.357,2.048,19.87,19.87,0,0,0,.734,1.88c.323.55.634,1.136.983,1.645l1.117,1.469c.5.53.841.831,1.27,1.249a18.4,18.4,0,0,0,1.518,1.045c.533.249,1.069.477,1.607.666a13.54,13.54,0,0,0,1.657.316,11.139,11.139,0,0,0,3.306-.179,9.516,9.516,0,0,0,1.622-.453c.051-.02.086-.031.129-.052v.014l.481-.182a1.378,1.378,0,0,0,.15-.064l.717-.266,22.866-8.712,18.906,17.845.164.154.141.133.311.295.184.172.355.333h0l.089.088.311.291.078.073c.15.134.092.074.147.123l.17.13.68.5a11.945,11.945,0,0,0,3.1,1.589,10.13,10.13,0,0,0,1.665.4c.562.049,1.138.045,1.705.042a13.21,13.21,0,0,0,1.688-.354,14.118,14.118,0,0,0,1.636-.708l1.411-.863,1.44-1.189a18.313,18.313,0,0,0,1.2-1.526,10.562,10.562,0,0,0,.89-1.8,17.739,17.739,0,0,0,.953-3.882c.211-1.294.329-2.578.467-3.861Z"/><path class="cls-31" d="M912.355,948.4c17.984,3.3,38.116,3.974,54.96-5.4-1.319-4.893-3.839-6.11-9.041-8.165v-.014l-22.356-9.095L929.4,898.132c-1.691-7.145-2.613-10.2-7.909-11.855-6.311-1.964-10.8,5.321-10.867,5.447l-15.251,25.1-23.727-.972c-5.72-.007-8.456.2-11.089,4.809C873.435,937.823,894,945.027,912.355,948.4Z"/><path class="cls-30" d="M920.244,897.729c.011-3.592-1.432-6.913-4.669-5.426-2.829,1.29-4.888,5.113-6.659,7.891-2.6,4.068-7.422,10.785-7.152,16.291.2,3.844,3.327,3.328,5.582,2.241,3.831-1.845,6.331-4.384,8.871-8.333A25.611,25.611,0,0,0,920.244,897.729Z"/><path class="cls-30" d="M898.446,922.938a1.892,1.892,0,0,0-.973-2.437c-1.74-.835-3.888,1.136-4.856,2.686-1.2,1.936-.176,4.2,1.722,4.244a4.106,4.106,0,0,0,2.448-1.4,5.522,5.522,0,0,0,1.656-2.8A1.393,1.393,0,0,0,898.446,922.938Z"/><path class="cls-27" d="M138.312,490.211c-4.98-4.889-7.978-3.806-14.669-.73l0-.007-25.873,11.6L75.238,481.692h0c-5.835-5-8.513-7-14.346-3.778-6.941,3.827-6.658,14.471-6.655,14.65L55.4,529.078,33.143,549.325c-5.624,5.478-7.951,8.112-7.1,15.842A14.105,14.105,0,0,0,34.823,576.7l29.36,10.1L73.8,621.3c2.814,7.126,4.5,10.188,10.586,10.837,5.222.551,8.765-3.753,10.489-6.552l1.032-1.89c.117-.239.182-.382.182-.382l.012.038,15.868-28.889,28.493-.466-.014-.007a1.061,1.061,0,0,0,.128.007l2.329-.028a11.7,11.7,0,0,0,10-7.109c2.919-6.681,1.64-10.073-1.848-17.032l-18.33-28.334,9.2-36.107C142.391,502.588,143.128,494.945,138.312,490.211Z"/><g class="cls-20"><path class="cls-28" d="M77.2,512.545c5.878,13.18,11.138,26.833,17.347,39.789-.953-17.3.686-34.416,2.95-51.486L75.238,481.692c-5.587-4.8-8.292-6.808-13.633-4.135Z"/><path class="cls-28" d="M120.8,560.9a58.753,58.753,0,0,0-11.308,9.74,49.2,49.2,0,0,1-5.615,5.31c.441,1.546.942,3.083,1.484,4.583,2.105,4.823,4.181,9.663,6.3,14.471l.306-.547,28.493-.466-.014-.007a1.061,1.061,0,0,0,.128.007l2.329-.028a11.805,11.805,0,0,0,9.139-5.485c-3.857-3.245-7.846-6.279-11.579-9.67C133.908,572.848,127.387,566.819,120.8,560.9Z"/><path class="cls-28" d="M90.406,579.659c-4.848,16.743-7.244,34.188-9.3,51.724a12.766,12.766,0,0,0,3.279.751,8.811,8.811,0,0,0,6.18-1.754c-.3-4.791-.588-9.585-.575-14.414C90.017,603.862,90.646,591.762,90.406,579.659Z"/><path class="cls-28" d="M39.92,565.069c2.683-.463,5.347-1.115,8.011-1.8-2.134-.182-4.263-.421-6.365-.624-5.2-.5-10.441-.842-15.671-1.014a23.932,23.932,0,0,0,.146,3.539,14.29,14.29,0,0,0,.721,3.185C31.289,567.79,36.114,565.732,39.92,565.069Z"/><path class="cls-28" d="M55.037,517.584l.365,11.494c5.853.424,16.664,3.738,21.917,7.673C71.713,530.674,61.324,523.333,55.037,517.584Z"/><path class="cls-28" d="M125.9,511.629c-3.386,4.682-6.782,9.34-9.984,14.194-2.12,3.213-4.949,6.52-6.988,10.1,3.036-3.381,6.207-8.5,9.917-7.162,1.327.48,1.293,2.22.893,3.5-.6,1.975-1.242,4.012-1.786,6.085a111.2,111.2,0,0,0,14.994,2.269l8.981-35.233c.374-2.234.913-7.562-1.354-12.037C135.651,499.407,130.53,505.229,125.9,511.629Z"/></g><path class="cls-29" d="M130.328,496.033c-4.26-4.184-6.823-3.248-12.532-.625l-.008-.014L95.67,505.32,76.422,488.748h0c-4.988-4.286-7.278-5.973-12.261-3.226-5.933,3.272-5.691,12.369-5.683,12.524l.988,31.2-19.015,17.3c-4.811,4.675-6.791,6.924-6.076,13.535a12.056,12.056,0,0,0,7.508,9.855l25.089,8.628L75.2,608.064c2.405,6.081,3.844,8.708,9.047,9.259,4.464.47,7.49-3.216,8.963-5.605l.884-1.613.153-.323.006.032L107.81,585.13l24.356-.4-.012,0a.756.756,0,0,0,.11.007l1.987-.028a10,10,0,0,0,8.543-6.074c2.5-5.71,1.407-8.607-1.574-14.559l-15.67-24.214,7.871-30.863C133.816,506.6,134.444,500.08,130.328,496.033Z"/><path class="cls-30" d="M141.751,563.61l-.023-.025L126.022,539.74l7.4-30.748L125.154,539.7l-.074.252.137.225,15.457,24.34c.521,1.087,1.06,2.174,1.515,3.268a16.636,16.636,0,0,1,1.08,3.388,10.115,10.115,0,0,1,.186,1.726c0,.575-.094,1.136-.137,1.718l-.409,1.656-.68,1.739c-.19.474-.511.975-.755,1.463-.282.484-.658.866-.97,1.312-.37.375-.755.736-1.151,1.069a11.072,11.072,0,0,1-1.3.81,10.369,10.369,0,0,1-2.831.965l-.781.116-.19.028a.375.375,0,0,0-.037.007l-.087,0-.4.007-1.455.018-1.574.021h0l-22.89.291-.436.011-.241.441L94.4,607.878l-.1-.3-.729,1.764c-.164.41-.542,1.024-.8,1.519a12.3,12.3,0,0,1-.909,1.4,12.648,12.648,0,0,1-2.191,2.371,11.6,11.6,0,0,1-1.255.884c-.438.235-.9.427-1.345.624-.449.084-.871.228-1.354.288-.489,0-1.114.024-1.491,0l-1.476-.246c-.489-.119-.941-.312-1.405-.452-.446-.218-.855-.492-1.273-.74a10.684,10.684,0,0,1-1.1-1.084,10.07,10.07,0,0,1-.933-1.344,14.38,14.38,0,0,1-.815-1.529c-.513-1.052-.965-2.164-1.429-3.275L67.364,578.41l-.069-.256-.213-.066-25.2-8.144,24.759,9.049,7.941,29.323.013.053.017.039c.464,1.153.911,2.314,1.443,3.45a17.878,17.878,0,0,0,.863,1.688,11.908,11.908,0,0,0,1.064,1.574,11.764,11.764,0,0,0,1.331,1.329,13.469,13.469,0,0,0,1.538.905c.534.186,1.077.407,1.61.537l1.627.3c.66.035,1.083.007,1.633.007a16.649,16.649,0,0,0,1.721-.34c.543-.214,1.079-.442,1.6-.705a16.032,16.032,0,0,0,1.454-1.014,14.729,14.729,0,0,0,2.49-2.658,13.216,13.216,0,0,0,1.033-1.589c.03-.052.05-.088.073-.137l.009.011.279-.509a1.687,1.687,0,0,0,.087-.164l.422-.755,13.371-24.206,23.917-.47.208,0,.178,0,.4-.007.233-.008.447-.006h.112l.392-.011h.1c.186-.011.111-.014.177-.014l.2-.028.789-.126a11.342,11.342,0,0,0,4.744-2.08c.463-.389.91-.831,1.35-1.266a18.862,18.862,0,0,0,1.137-1.561c.307-.6.642-1.122.913-1.8l.658-1.747.513-2.027c.057-.7.162-1.4.156-2.1a12.023,12.023,0,0,0-.231-2.087,17.2,17.2,0,0,0-1.249-3.756c-.5-1.171-1.067-2.263-1.618-3.367Z"/><path class="cls-31" d="M88.927,540.957c15.73-11.115,31.787-25.919,40.117-46.061-3.543-2.816-6.135-1.844-11.248.512l-.008-.014L95.67,505.32,76.422,488.748c-4.988-4.286-7.278-5.973-12.261-3.226-5.933,3.272-5.691,12.369-5.683,12.524l.988,31.2-19.015,17.3c-4.469,4.352-6.495,6.6-6.187,12.2C53.123,562.34,72.871,552.3,88.927,540.957Z"/><path class="cls-30" d="M69.066,495.408c-1.834-2.812-4.666-4.3-6.429-.68-1.546,3.163-1.189,7.712-1.146,11.23.061,5.156-.253,14.068,2.785,18.157,2.126,2.851,4.305.066,5.507-2.5a28.426,28.426,0,0,0,2.644-13.257C72.387,504.075,71.282,498.831,69.066,495.408Z"/><path class="cls-30" d="M65,531.68c-.294-.954-.906-1.582-2.01-1.164-1.787.673-2.451,3.847-2.411,5.794.055,2.43,2.019,3.416,3.522,2a5.847,5.847,0,0,0,1.191-2.96,6.574,6.574,0,0,0-.145-3.448A1.072,1.072,0,0,0,65,531.68Z"/><path class="cls-32" d="M69.505,644.6a2.873,2.873,0,0,1-2.5-3.125,2.835,2.835,0,0,1,2.569-3.044,2.873,2.873,0,0,1,2.5,3.132A2.833,2.833,0,0,1,69.505,644.6Z"/><path class="cls-33" d="M79.505,662.727c-12.016-.189-21.624-12.212-21.469-26.848s10.029-26.349,22.045-26.16,21.642,12.223,21.487,26.858S91.527,662.92,79.505,662.727Z"/><path class="cls-34" d="M79.955,609.719c-.242,0-.5.007-.738.018,10.85.652,19.425,11.654,19.28,24.985-.152,13.643-9.357,24.558-20.556,24.382-10.959-.175-19.761-10.9-20.008-24.126-.012.291-.029.593-.029.9-.161,14.636,9.458,26.659,21.469,26.848,12.028.193,21.907-11.524,22.062-26.15C101.6,621.935,91.971,609.912,79.955,609.719Z"/><path class="cls-35" d="M76.067,650.6c-8.877-.148-15.98-9.038-15.868-19.844s7.411-19.469,16.3-19.328,15.988,9.02,15.872,19.84S84.961,650.736,76.067,650.6Z"/><path class="cls-32" d="M72.55,636.634c-5.009-.081-9.018-5.1-8.946-11.192s4.179-10.974,9.185-10.894,9.02,5.089,8.951,11.178S77.561,636.707,72.55,636.634Z"/><path class="cls-21" d="M67.55,614.847a8.887,8.887,0,0,0-.695.656c-.221.189-.469.466-.766.775-.271.336-.593.677-.921,1.1-.156.207-.329.417-.5.645s-.332.484-.5.74c-.357.484-.656,1.081-1.008,1.645a20.34,20.34,0,0,0-.892,1.908c-.133.323-.271.667-.4,1l-.322,1.063a17.311,17.311,0,0,0-.513,2.164c-.144.719-.176,1.455-.271,2.164-.057.7-.031,1.4-.057,2.048-.012.161-.012.323-.012.484s.026.309.038.47c.031.309.054.6.077.887.055.572.061,1.1.156,1.554s.147.859.2,1.2c.1.67.155,1.048.155,1.048s-.1-.364-.282-1.009c-.087-.316-.193-.719-.314-1.168a10.044,10.044,0,0,1-.285-1.554c-.041-.3-.081-.6-.133-.9-.023-.162-.04-.323-.063-.485-.006-.161-.012-.332-.018-.494-.014-.673-.086-1.392-.046-2.125.032-.369.064-.758.092-1.123a8.4,8.4,0,0,1,.139-1.154,16.986,16.986,0,0,1,.518-2.265l.346-1.108c.144-.358.288-.712.432-1.056a17.688,17.688,0,0,1,.982-1.936,16.124,16.124,0,0,1,1.115-1.645c.19-.242.38-.477.559-.709.2-.206.38-.42.561-.617a12.85,12.85,0,0,1,1.023-1.006c.328-.263.6-.512.844-.681A5.777,5.777,0,0,1,67.55,614.847Z"/><path class="cls-36" d="M933.294,583.639c0,13.643,9.1,24.712,20.305,24.712s20.3-11.069,20.3-24.712c0-13.66-9.078-24.729-20.3-24.729S933.294,569.979,933.294,583.639Z"/><path class="cls-37" d="M933.686,581.672c0,12.265,8.157,22.2,18.226,22.2s18.243-9.939,18.243-22.2-8.169-22.19-18.243-22.19S933.686,569.421,933.686,581.672Z"/><path class="cls-38" d="M935.016,579.259c0,10.146,6.757,18.374,15.087,18.374s15.086-8.228,15.086-18.374-6.751-18.378-15.086-18.378S935.016,569.119,935.016,579.259Z"/><path class="cls-38" d="M948.19,583.91c-4.585,0-8.306-4.535-8.306-10.115s3.721-10.111,8.306-10.111,8.295,4.534,8.295,10.111S952.77,583.91,948.19,583.91Z"/><path class="cls-38" d="M942.315,589.051a2.874,2.874,0,1,1,2.321-2.816A2.6,2.6,0,0,1,942.315,589.051Z"/><path class="cls-21" d="M942.758,563.48a6.34,6.34,0,0,0-.806.558c-.259.182-.542.445-.887.733a13.31,13.31,0,0,0-1.072,1.084c-.19.213-.391.441-.587.655-.19.256-.38.512-.582.768a17,17,0,0,0-1.164,1.754,17.686,17.686,0,0,0-1.019,2.083c-.15.368-.3.74-.461,1.115l-.346,1.182a22.038,22.038,0,0,0-.524,2.421,8.8,8.8,0,0,0-.127,1.216c-.023.411-.057.8-.086,1.2-.04.785.052,1.532.069,2.251.006.179.017.361.029.53.029.175.058.343.075.512.052.315.1.638.149.947a10.609,10.609,0,0,0,.323,1.652c.127.477.242.894.346,1.23.2.685.311,1.074.311,1.074s-.069-.414-.184-1.116c-.07-.347-.133-.778-.225-1.255a15.493,15.493,0,0,1-.184-1.659c-.029-.291-.058-.614-.093-.947-.011-.161-.023-.323-.046-.484,0-.175,0-.351.006-.519.029-.7-.011-1.424.04-2.171.093-.75.116-1.533.259-2.3a21.115,21.115,0,0,1,.519-2.3l.323-1.129c.149-.357.287-.719.426-1.07.253-.733.628-1.378.927-2.034.352-.606.674-1.231,1.037-1.768.19-.27.357-.539.53-.792s.357-.466.53-.694c.334-.449.685-.825.968-1.175.305-.33.564-.631.8-.853C942.482,563.715,942.758,563.48,942.758,563.48Z"/><path class="cls-39" d="M166.342,881.971c0,18.823,12.552,34.1,28.013,34.1,15.484,0,28.013-15.274,28.013-34.1,0-18.845-12.529-34.126-28.013-34.126C178.894,847.845,166.342,863.126,166.342,881.971Z"/><path class="cls-40" d="M166.884,879.266c0,16.916,11.255,30.626,25.15,30.626s25.155-13.71,25.155-30.626-11.261-30.628-25.155-30.628S166.884,862.348,166.884,879.266Z"/><path class="cls-41" d="M168.727,875.927c0,14,9.309,25.351,20.807,25.351s20.818-11.353,20.818-25.351-9.326-25.353-20.818-25.353S168.727,861.937,168.727,875.927Z"/><path class="cls-42" d="M186.9,882.339c-6.324,0-11.457-6.25-11.457-13.952s5.133-13.945,11.457-13.945,11.446,6.25,11.446,13.945S193.22,882.339,186.9,882.339Z"/><path class="cls-42" d="M178.79,889.448c-1.762,0-3.191-1.74-3.191-3.9,0-2.143,1.429-3.879,3.191-3.879,1.781,0,3.192,1.736,3.192,3.879C181.982,887.708,180.571,889.448,178.79,889.448Z"/><path class="cls-21" d="M179.4,854.148a9.5,9.5,0,0,0-1.112.768c-.351.266-.743.624-1.221,1.02a16.724,16.724,0,0,0-1.48,1.5c-.26.3-.536.61-.813.908-.253.347-.524.7-.806,1.056a23.251,23.251,0,0,0-1.607,2.423,25.1,25.1,0,0,0-1.406,2.869c-.2.512-.42,1.025-.628,1.54l-.484,1.628a27.064,27.064,0,0,0-.714,3.345,11.792,11.792,0,0,0-.184,1.673c-.035.565-.075,1.108-.115,1.649-.058,1.08.069,2.129.092,3.11.006.25.023.492.035.733.046.236.086.471.109.7.075.449.138.887.207,1.311a14.421,14.421,0,0,0,.444,2.276c.173.66.34,1.238.478,1.7.276.94.432,1.477.432,1.477s-.1-.558-.259-1.536c-.093-.484-.185-1.07-.3-1.729a17.968,17.968,0,0,1-.259-2.29c-.035-.411-.081-.842-.127-1.305-.017-.214-.04-.442-.063-.677,0-.235,0-.467.006-.708.04-.961-.018-1.968.057-3,.127-1.027.15-2.1.358-3.177a28.013,28.013,0,0,1,.714-3.174l.443-1.557c.207-.5.392-.989.594-1.48a28.955,28.955,0,0,1,1.272-2.8c.49-.845.928-1.7,1.441-2.444.247-.372.484-.74.725-1.084s.5-.653.732-.968c.461-.617.939-1.14,1.337-1.624.42-.452.771-.863,1.1-1.164C179.021,854.47,179.4,854.148,179.4,854.148Z"/></g></g></g></svg>