<svg xmlns="http://www.w3.org/2000/svg" xmlns:xlink="http://www.w3.org/1999/xlink" viewBox="0 0 54.942 90.37"><defs><style>.cls-1{isolation:isolate;}.cls-2{fill:#b65534;}.cls-3{fill:#5f2f16;}.cls-10,.cls-11,.cls-17,.cls-4,.cls-5,.cls-6{opacity:0.4;}.cls-10,.cls-11,.cls-14,.cls-15,.cls-17,.cls-21,.cls-24,.cls-4,.cls-5,.cls-6,.cls-9{mix-blend-mode:multiply;}.cls-4{fill:url(#linear-gradient);}.cls-5{fill:url(#linear-gradient-2);}.cls-7{fill:url(#linear-gradient-3);}.cls-8{fill:url(#linear-gradient-4);}.cls-14,.cls-9{opacity:0.3;}.cls-9{fill:url(#linear-gradient-5);}.cls-10{fill:url(#linear-gradient-6);}.cls-11{fill:url(#linear-gradient-7);}.cls-12{fill:url(#linear-gradient-8);}.cls-13{fill:url(#linear-gradient-9);}.cls-14{fill:url(#linear-gradient-10);}.cls-15{fill:#c8c6c4;}.cls-16{fill:url(#linear-gradient-11);}.cls-17,.cls-21{fill:#7e7f82;}.cls-18{fill:#bfc0c1;}.cls-18,.cls-24,.cls-27{opacity:0.6;}.cls-19{fill:url(#radial-gradient);}.cls-20{fill:#fff;}.cls-21{opacity:0.2;}.cls-22{fill:url(#radial-gradient-2);}.cls-23,.cls-24{fill:#843f24;}.cls-25{fill:#a54e2e;}.cls-26{fill:#cd5d39;}.cls-27{fill:#ff643c;mix-blend-mode:screen;}</style><linearGradient id="linear-gradient" x1="8.149" y1="23.138" x2="11.128" y2="23.138" gradientUnits="userSpaceOnUse"><stop offset="0" stop-color="#d3b994"/><stop offset="1" stop-color="#6c5030"/></linearGradient><linearGradient id="linear-gradient-2" x1="-634.327" y1="165.008" x2="-598.882" y2="165.008" gradientTransform="translate(-587.754 173.662) rotate(180)" xlink:href="#linear-gradient"/><linearGradient id="linear-gradient-3" x1="8.149" y1="37.623" x2="46.573" y2="37.623" xlink:href="#linear-gradient"/><linearGradient id="linear-gradient-4" x1="43.097" y1="23.171" x2="46.877" y2="23.171" xlink:href="#linear-gradient"/><linearGradient id="linear-gradient-5" x1="18.608" y1="5.477" x2="36.609" y2="41.479" gradientUnits="userSpaceOnUse"><stop offset="0" stop-color="#fff"/><stop offset="0.534" stop-color="#ca6d4c"/><stop offset="0.995" stop-color="#a05c38"/></linearGradient><linearGradient id="linear-gradient-6" x1="8.149" y1="66.848" x2="11.128" y2="66.848" xlink:href="#linear-gradient"/><linearGradient id="linear-gradient-7" x1="-634.327" y1="121.298" x2="-598.882" y2="121.298" gradientTransform="translate(-587.754 173.662) rotate(180)" xlink:href="#linear-gradient"/><linearGradient id="linear-gradient-8" x1="8.149" y1="81.333" x2="46.573" y2="81.333" xlink:href="#linear-gradient"/><linearGradient id="linear-gradient-9" x1="43.097" y1="66.879" x2="46.877" y2="66.879" xlink:href="#linear-gradient"/><linearGradient id="linear-gradient-10" x1="18.608" y1="49.188" x2="36.609" y2="85.19" xlink:href="#linear-gradient-5"/><linearGradient id="linear-gradient-11" x1="46.452" y1="46.405" x2="48.228" y2="46.405" gradientUnits="userSpaceOnUse"><stop offset="0" stop-color="#7e7f82"/><stop offset="0.011" stop-color="#838487"/><stop offset="0.087" stop-color="#9d9ea0"/><stop offset="0.164" stop-color="#b0b1b2"/><stop offset="0.243" stop-color="#bbbcbd"/><stop offset="0.328" stop-color="#bfc0c1"/><stop offset="1" stop-color="#404040"/></linearGradient><radialGradient id="radial-gradient" cx="47.496" cy="40.468" r="1.526" gradientUnits="userSpaceOnUse"><stop offset="0" stop-color="#e2e3e2"/><stop offset="0.232" stop-color="#b5b5b5"/><stop offset="0.457" stop-color="#909190"/><stop offset="0.667" stop-color="#767776"/><stop offset="0.854" stop-color="#676767"/><stop offset="1" stop-color="#616161"/></radialGradient><radialGradient id="radial-gradient-2" cx="47.496" cy="50.705" r="1.526" xlink:href="#radial-gradient"/></defs><title>Asset 11</title><g class="cls-1"><g id="Layer_2" data-name="Layer 2"><g id="Layer_1-2" data-name="Layer 1"><rect class="cls-2" x="2.742" y="2.754" width="49.407" height="87.616"/><polygon class="cls-3" points="8.149 7.282 8.149 20.811 8.149 25.469 8.149 38.993 11.128 36.252 11.128 25.469 11.128 20.811 11.128 10.025 8.149 7.282"/><polygon class="cls-4" points="8.149 7.282 10.581 10.386 10.507 35.75 8.149 38.993 11.128 36.252 11.128 25.469 11.128 20.811 11.128 10.025 8.149 7.282"/><polygon class="cls-3" points="43.595 10.025 43.595 20.811 43.595 25.469 43.595 36.252 46.573 38.993 46.573 25.469 46.573 20.811 46.573 7.282 43.595 10.025"/><polygon class="cls-3" points="43.595 10.025 46.573 7.282 8.149 7.282 11.128 10.025 43.595 10.025"/><polygon class="cls-5" points="43.595 10.025 46.573 7.282 43.123 9.496 11.128 10.025 43.595 10.025"/><polygon class="cls-3" points="11.128 36.252 8.149 38.993 46.573 38.993 43.595 36.252 11.128 36.252"/><g class="cls-6"><polygon class="cls-7" points="11.128 36.252 8.149 38.993 46.573 38.993 43.595 36.252 44.935 38.422 8.942 38.422 11.128 36.252"/></g><g class="cls-6"><polygon class="cls-8" points="46.599 39.04 46.599 7.302 43.619 10.045 45.978 8.215 45.978 38.469 46.599 39.04"/></g><rect class="cls-9" x="10.845" y="9.701" width="33.187" height="26.872"/><polygon class="cls-3" points="8.149 50.992 8.149 64.52 8.149 69.177 8.149 82.704 11.128 79.962 11.128 69.177 11.128 64.52 11.128 53.735 8.149 50.992"/><polygon class="cls-10" points="8.149 50.992 10.581 54.096 10.507 79.459 8.149 82.704 11.128 79.962 11.128 69.177 11.128 64.52 11.128 53.735 8.149 50.992"/><polygon class="cls-3" points="43.595 53.735 43.595 64.52 43.595 69.177 43.595 79.962 46.573 82.704 46.573 69.177 46.573 64.52 46.573 50.992 43.595 53.735"/><polygon class="cls-3" points="43.595 53.735 46.573 50.992 8.149 50.992 11.128 53.735 43.595 53.735"/><polygon class="cls-11" points="43.595 53.735 46.573 50.992 43.123 53.202 11.128 53.735 43.595 53.735"/><polygon class="cls-3" points="11.128 79.962 8.149 82.704 46.573 82.704 43.595 79.962 11.128 79.962"/><g class="cls-6"><polygon class="cls-12" points="11.128 79.962 8.149 82.704 46.573 82.704 43.595 79.962 44.935 82.132 8.942 82.132 11.128 79.962"/></g><g class="cls-6"><polygon class="cls-13" points="46.599 82.748 46.599 51.01 43.619 53.755 45.978 51.926 45.978 82.179 46.599 82.748"/></g><rect class="cls-14" x="10.845" y="53.412" width="33.187" height="26.872"/><path class="cls-15" d="M47.792,50.624V42.618a1.49,1.49,0,0,0-.988-2.613H46.8a1.494,1.494,0,0,0-.778,2.77v7.693a1.493,1.493,0,0,0,.778,2.769H46.8a1.49,1.49,0,0,0,.988-2.613Z"/><path class="cls-16" d="M48.228,50.933a.944.944,0,0,1-.888.991h0a.943.943,0,0,1-.888-.991V41.877a.944.944,0,0,1,.888-.991h0a.944.944,0,0,1,.888.991Z"/><path class="cls-17" d="M47.34,41.338a.878.878,0,0,0-.888.868v.933a.679.679,0,0,1,1.358,0V49.2a.679.679,0,0,1-1.358,0v.932a.888.888,0,0,0,1.776,0V42.206A.879.879,0,0,0,47.34,41.338Z"/><path class="cls-18" d="M47.506,49c0,.345-.2.624-.453.624h0c-.25,0-.452-.279-.452-.624V43.318c0-.342.2-.622.452-.622h0c.249,0,.453.28.453.622Z"/><path class="cls-19" d="M48.735,41.066a1.5,1.5,0,1,1-1.495-1.5A1.5,1.5,0,0,1,48.735,41.066Z"/><path class="cls-20" d="M47.909,40.285c-.035.115-.251.153-.481.083s-.391-.219-.355-.334.249-.154.48-.083S47.943,40.17,47.909,40.285Z"/><path class="cls-20" d="M48.307,40.507a.124.124,0,0,1-.238-.071.124.124,0,0,1,.238.071Z"/><path class="cls-21" d="M47.23,39.57a1.5,1.5,0,1,0,1.5,1.5A1.495,1.495,0,0,0,47.23,39.57Zm.07,2.568a1.271,1.271,0,1,1,1.271-1.271A1.271,1.271,0,0,1,47.3,42.138Z"/><path class="cls-21" d="M47.23,49.808a1.5,1.5,0,1,0,1.5,1.5A1.5,1.5,0,0,0,47.23,49.808Zm.07,2.568a1.271,1.271,0,1,1,1.271-1.269A1.27,1.27,0,0,1,47.3,52.376Z"/><path class="cls-22" d="M48.735,51.3a1.5,1.5,0,1,1-1.495-1.5A1.5,1.5,0,0,1,48.735,51.3Z"/><path class="cls-20" d="M47.909,50.524c-.035.115-.251.152-.481.082s-.391-.219-.355-.333.249-.154.48-.085S47.943,50.408,47.909,50.524Z"/><path class="cls-20" d="M48.307,50.745a.122.122,0,0,1-.153.079.12.12,0,1,1,.153-.079Z"/><polygon class="cls-2" points="54.942 0 0 0 0 90.37 2.793 90.37 2.793 2.757 52.149 2.757 52.149 90.37 54.942 90.37 54.942 0"/><polygon class="cls-23" points="52.149 2.757 52.149 90.37 54.942 90.37 54.942 0 52.149 2.757 52.149 2.757"/><polygon class="cls-24" points="52.149 2.757 52.149 90.37 53.075 90.37 52.369 2.549 52.149 2.757 52.149 2.757"/><polygon class="cls-2" points="0 0 0 90.37 2.793 90.37 2.793 2.757 2.793 2.757 0 0"/><polygon class="cls-25" points="2.793 2.757 2.793 2.757 2.793 2.757 52.149 2.757 54.942 0 0 0 2.793 2.757"/><polygon class="cls-26" points="54.942 0 52.149 2.757 54.925 0.53 54.942 0"/><polygon class="cls-26" points="0.105 0 2.899 2.757 0.124 0.53 0.105 0"/><polygon class="cls-27" points="2.793 90.37 2.793 2.757 51.812 2.757 1.892 1.908 2.793 90.37"/></g></g></g></svg>