<svg xmlns="http://www.w3.org/2000/svg" viewBox="0 0 791.15 637.953"><defs><style>.cls-1,.cls-7{fill:#fe9500;}.cls-2,.cls-8{fill:#ffc436;}.cls-3{fill:#9eb817;}.cls-4{fill:#c6d031;}.cls-5{fill:#c6083a;}.cls-6{fill:#f62c52;}.cls-7,.cls-8{opacity:0.68;}.cls-9{fill:#0fa5d1;}.cls-10{fill:#0feafd;}.cls-11{fill:none;stroke:#fff;stroke-miterlimit:10;stroke-width:10px;}</style></defs><title>Asset 5</title><g id="Layer_2" data-name="Layer 2"><g id="Layer_1-2" data-name="Layer 1"><path class="cls-1" d="M620.689,481.144,571.308,621.881l-5.639,16.072L538.318,499.246l-11.164-56.617S488.639,439.878,620.689,481.144Z"/><path class="cls-2" d="M597.7,512.929s-24.759,13.755-46.768-22.009,23.384,104.54,23.384,104.54Z"/><path class="cls-3" d="M345.426,353.841l-70.7,145.007-8.074,16.559-4.691-153.861-1.914-62.8S222.8,290.224,345.426,353.841Z"/><path class="cls-4" d="M317.881,384.886s-26.411,11.3-42.253-30.522,6.245,116.359,6.245,116.359Z"/><path class="cls-5" d="M492.122,425.956,442.741,566.694,437.1,582.766,409.751,444.058l-11.164-56.616S360.072,384.691,492.122,425.956Z"/><path class="cls-6" d="M469.136,457.741s-24.759,13.755-46.768-22.008,23.384,104.539,23.384,104.539Z"/><path class="cls-7" d="M239.672,283.6,141.129,395.555l-11.253,12.786L156.522,269.5,167.4,212.824S132.724,195.834,239.672,283.6Z"/><path class="cls-8" d="M206.446,304.445s-28.11,3.469-35.106-37.937S153.826,372.19,153.826,372.19Z"/><path class="cls-9" d="M150.569,192.323,26.3,274.8l-14.191,9.418L73.948,157.081,99.19,105.188S70.129,79.765,150.569,192.323Z"/><path class="cls-10" d="M113.064,203.812s-28.046-3.961-24.03-45.762-44.4,97.489-44.4,97.489Z"/><path class="cls-11" d="M4.351,2.463S284.592,497.65,791.15,497.65"/></g></g></svg>