<svg xmlns="http://www.w3.org/2000/svg" viewBox="0 0 791.15 637.953"><defs><style>.cls-1,.cls-7{fill:#fe9500;}.cls-2,.cls-8{fill:#ffc436;}.cls-3{fill:#9eb817;}.cls-4{fill:#c6d031;}.cls-5{fill:#c6083a;}.cls-6{fill:#f62c52;}.cls-7,.cls-8{opacity:0.68;}.cls-9{fill:#0fa5d1;}.cls-10{fill:#0feafd;}.cls-11{fill:none;stroke:#fff;stroke-miterlimit:10;stroke-width:10px;}</style></defs><title>Asset 2</title><g id="Layer_2" data-name="Layer 2"><g id="Layer_1-2" data-name="Layer 1"><path class="cls-1" d="M170.46,481.144l49.382,140.737,5.639,16.072,27.351-138.707L264,442.629S302.51,439.878,170.46,481.144Z"/><path class="cls-2" d="M193.447,512.929s24.759,13.755,46.767-22.009S216.83,595.46,216.83,595.46Z"/><path class="cls-3" d="M445.724,353.841l70.7,145.007,8.074,16.559,4.69-153.861,1.915-62.8S568.347,290.224,445.724,353.841Z"/><path class="cls-4" d="M473.269,384.886s26.411,11.3,42.253-30.522-6.246,116.359-6.246,116.359Z"/><path class="cls-5" d="M299.027,425.956l49.382,140.738,5.639,16.072L381.4,444.058l11.163-56.616S431.077,384.691,299.027,425.956Z"/><path class="cls-6" d="M322.014,457.741s24.759,13.755,46.767-22.008S345.4,540.272,345.4,540.272Z"/><path class="cls-7" d="M551.477,283.6,650.02,395.555l11.254,12.786L634.628,269.5l-10.876-56.672S658.426,195.834,551.477,283.6Z"/><path class="cls-8" d="M584.7,304.445s28.11,3.469,35.105-37.937S637.323,372.19,637.323,372.19Z"/><path class="cls-9" d="M640.58,192.323,764.852,274.8l14.192,9.418L717.2,157.081l-25.243-51.893S721.021,79.765,640.58,192.323Z"/><path class="cls-10" d="M678.086,203.812s28.045-3.961,24.03-45.762,44.4,97.489,44.4,97.489Z"/><path class="cls-11" d="M786.8,2.463S506.558,497.65,0,497.65"/></g></g></svg>