<svg xmlns="http://www.w3.org/2000/svg" viewBox="0 0 102.38 102.292"><defs><style>.cls-1{isolation:isolate;}.cls-2{fill:#df2854;}.cls-3{fill:#f7d245;}.cls-4{fill:#c4234a;}.cls-5{fill:#eda328;}.cls-6{fill:#ffbe32;}.cls-7{fill:#ed426b;}.cls-8{fill:#ff6389;}.cls-9{fill:#fad843;}.cls-10{fill:#dedede;mix-blend-mode:multiply;}</style></defs><title>Asset 9</title><g class="cls-1"><g id="Layer_2" data-name="Layer 2"><g id="OBJECTS"><polygon class="cls-2" points="99.847 32.055 99.847 79.865 58.913 102.292 58.913 49.998 99.847 32.055"/><polygon class="cls-3" points="66.142 46.915 65.029 49.474 62.363 50.843 64.358 51.747 63.976 54.261 66.308 52.219 68.663 52.379 68.152 50.261 69.956 47.921 67.375 48.574 66.142 46.915"/><polygon class="cls-3" points="82.846 40.655 81.881 43.011 79.572 44.219 81.299 45.11 80.968 47.44 82.99 45.599 85.034 45.808 84.59 43.821 86.157 41.684 83.916 42.23 82.846 40.655"/><polygon class="cls-3" points="99.847 36.892 98.929 38.207 99.318 40.078 97.526 39.831 95.761 41.499 96.052 39.328 94.534 38.454 96.555 37.386 97.403 35.197 98.338 36.698 99.847 36.345 99.847 36.892"/><polygon class="cls-3" points="60.625 66.759 61.375 69.423 58.913 68.903 58.913 63.97 59.804 65.073 62.188 64.693 60.625 66.759"/><polygon class="cls-3" points="76.224 55.836 75.202 58.328 72.754 59.732 74.585 60.529 74.235 62.951 76.377 60.915 78.541 60.987 78.072 58.974 79.73 56.667 77.358 57.383 76.224 55.836"/><polygon class="cls-3" points="91.615 49.23 90.724 51.529 88.591 52.773 90.186 53.567 89.881 55.818 91.748 53.977 93.638 54.105 93.227 52.21 94.677 50.099 92.604 50.705 91.615 49.23"/><polygon class="cls-3" points="66.966 73.296 65.86 75.966 63.212 77.619 65.194 78.304 64.814 80.85 67.13 78.564 69.469 78.469 68.962 76.413 70.754 73.886 68.191 74.816 66.966 73.296"/><polygon class="cls-3" points="83.56 65.249 82.602 67.701 80.307 69.156 82.023 69.857 81.694 72.216 83.703 70.162 85.734 70.149 85.293 68.216 86.851 65.917 84.623 66.703 83.56 65.249"/><polygon class="cls-3" points="99.847 60.607 99.547 61.066 99.847 62.469 99.847 62.884 98.153 62.84 96.396 64.693 96.679 62.496 95.178 61.79 97.191 60.501 98.029 58.233 98.956 59.627 99.847 59.319 99.847 60.607"/><polygon class="cls-3" points="61.49 93.669 62.028 95.752 59.539 95.349 58.913 95.993 58.913 91.701 59.372 90.597 60.669 92.071 63.396 90.924 61.49 93.669"/><polygon class="cls-3" points="76.981 81.098 75.966 83.691 73.534 85.356 75.353 85.952 75.004 88.404 77.132 86.143 79.283 85.982 78.816 84.025 80.465 81.547 78.107 82.517 76.981 81.098"/><polygon class="cls-3" points="92.276 72.848 91.39 75.236 89.27 76.707 90.855 77.327 90.552 79.604 92.408 77.566 94.286 77.49 93.878 75.645 95.318 73.384 93.258 74.212 92.276 72.848"/><polygon class="cls-4" points="58.913 49.998 58.913 102.292 3.751 90.995 3.751 38.701 58.913 49.998"/><polygon class="cls-2" points="0 37.93 58.913 49.998 58.913 33.824 0 21.755 0 37.93"/><polygon class="cls-5" points="23.83 42.811 23.83 95.105 35.965 97.591 35.965 45.297 23.83 42.811"/><polygon class="cls-6" points="23.83 26.637 23.83 42.811 35.965 45.297 35.965 29.123 23.83 26.637"/><polygon class="cls-7" points="102.38 30.943 58.913 49.998 58.913 33.824 102.38 16.239 102.38 30.943"/><polygon class="cls-6" points="85.786 38.218 85.786 87.572 76.839 92.473 76.839 42.14 85.786 38.218"/><polygon class="cls-3" points="85.786 22.952 85.786 38.218 76.839 42.14 76.839 26.572 85.786 22.952"/><polygon class="cls-8" points="102.38 16.239 85.788 22.956 85.779 22.956 76.838 26.574 76.829 26.574 58.913 33.82 35.974 29.125 35.965 29.125 23.83 26.636 0 21.755 22.938 14.315 32.047 11.359 49.646 5.648 61.817 8.093 74.782 10.697 102.38 16.239"/><polygon class="cls-9" points="85.779 22.956 76.838 26.574 76.829 26.574 52.841 21.111 52.832 21.111 40.767 18.366 22.938 14.315 32.047 11.359 48.048 14.81 60.475 17.493 85.779 22.956"/><polygon class="cls-9" points="74.782 10.697 60.475 17.493 52.841 21.111 35.974 29.125 35.965 29.125 23.83 26.636 40.767 18.366 48.048 14.81 61.817 8.093 74.782 10.697"/><polygon class="cls-3" points="50.975 51.197 52.039 53.471 54.424 54.247 52.698 55.544 53.105 57.905 50.975 56.427 48.852 57.104 49.257 54.901 47.542 52.968 49.913 53.076 50.975 51.197"/><polygon class="cls-3" points="34.892 48.231 35.934 50.48 38.27 51.244 36.579 52.531 36.978 54.867 34.892 53.407 32.812 54.082 33.209 51.9 31.529 49.99 33.851 50.093 34.892 48.231"/><polygon class="cls-3" points="19.135 45.326 20.156 47.549 22.444 48.301 20.788 49.578 21.179 51.89 19.135 50.449 17.096 51.121 17.485 48.961 15.839 47.073 18.115 47.17 19.135 45.326"/><polygon class="cls-3" points="5.313 46.689 5.693 48.975 3.751 47.598 3.751 42.611 4.695 44.676 6.937 45.418 5.313 46.689"/><polygon class="cls-3" points="41.869 62.346 42.921 64.614 45.278 65.403 43.572 66.68 43.974 69.03 41.869 67.546 39.77 68.204 40.171 66.016 38.476 64.083 40.819 64.207 41.869 62.346"/><polygon class="cls-3" points="25.971 59.284 27.001 61.527 29.31 62.303 27.639 63.571 28.033 65.896 25.971 64.43 23.914 65.086 24.307 62.92 22.646 61.009 24.942 61.128 25.971 59.284"/><polygon class="cls-3" points="10.393 56.284 11.402 58.502 13.665 59.266 12.027 60.524 12.414 62.825 10.393 61.378 8.377 62.031 8.762 59.886 7.134 57.998 9.384 58.111 10.393 56.284"/><polygon class="cls-3" points="50.975 77.278 52.039 79.569 54.424 80.385 52.698 81.653 53.105 84.021 50.975 82.507 48.852 83.149 49.257 80.953 47.542 78.992 49.913 79.139 50.975 77.278"/><polygon class="cls-3" points="34.892 74.045 35.934 76.311 38.27 77.114 36.579 78.373 36.978 80.715 34.892 79.221 32.812 79.861 33.209 77.686 31.529 75.748 33.851 75.89 34.892 74.045"/><polygon class="cls-3" points="19.135 70.878 20.156 73.119 22.444 73.909 20.788 75.158 21.179 77.476 19.135 76.002 17.096 76.639 17.485 74.486 15.839 72.571 18.115 72.706 19.135 70.878"/><polygon class="cls-3" points="5.313 72.01 5.693 74.305 3.751 72.893 3.751 67.906 4.695 69.989 6.937 70.766 5.313 72.01"/><polygon class="cls-3" points="41.869 88.276 42.921 90.562 45.278 91.389 43.572 92.638 43.974 94.995 41.869 93.475 39.77 94.099 40.171 91.918 38.476 89.956 40.819 90.119 41.869 88.276"/><polygon class="cls-3" points="25.971 84.95 27.001 87.21 29.31 88.024 27.639 89.264 28.033 91.596 25.971 90.096 23.914 90.718 24.307 88.559 22.646 86.62 24.942 86.777 25.971 84.95"/><polygon class="cls-3" points="10.393 81.691 11.402 83.926 13.665 84.727 12.027 85.958 12.414 88.266 10.393 86.786 8.377 87.405 8.762 85.267 7.134 83.351 9.384 83.501 10.393 81.691"/><polygon class="cls-3" points="58.913 63.97 58.176 65.249 55.694 65.345 57.303 66.862 56.852 69.754 58.913 68.903 58.913 63.97"/><polygon class="cls-3" points="59.372 90.597 58.672 92.473 56.576 91.929 57.974 93.915 57.624 97.591 58.893 95.956 59.61 94.995 59.372 90.597"/><polygon class="cls-10" points="99.85 32.054 99.85 38.929 58.915 56.872 58.915 49.997 99.85 32.054"/><polygon class="cls-10" points="58.915 49.997 58.915 56.784 3.753 45.487 3.753 38.7 58.915 49.997"/><path class="cls-5" d="M52.689,17.091S54.785-2.216,64.162.211s0,12.025,0,12.025,1.655-7.5-1.655-7.833S54.343,10.912,52.689,17.091Z"/><path class="cls-5" d="M71.333,18.745,65.7,22.717s-8.381-1.655-13.014-5.626L57.874,14.7S64.82,18.453,71.333,18.745Z"/><path class="cls-6" d="M52.689,17.091s20.52-13.239,24.271-6.4.662,9.267-1.545,10.039S65.7,22.717,65.7,22.717s3.507-7.584-.409-9.424a3.6,3.6,0,0,0-2.822-.012Z"/><path class="cls-6" d="M34.044,18.745l5.63,3.972s8.381-1.655,13.015-5.626L47.5,14.7S40.557,18.453,34.044,18.745Z"/><path class="cls-6" d="M52.689,17.091S50.592-2.216,41.215.211s0,12.025,0,12.025S39.56,4.734,42.87,4.4,51.034,10.912,52.689,17.091Z"/><path class="cls-5" d="M52.689,17.091s-20.521-13.239-24.272-6.4-.662,9.267,1.545,10.039,9.712,1.986,9.712,1.986-3.507-7.584.409-9.424a3.6,3.6,0,0,1,2.822-.012Z"/></g></g></g></svg>