<svg xmlns="http://www.w3.org/2000/svg" viewBox="0 0 488.382 488.869"><defs><style>.cls-1{fill:#fbffa9;}.cls-2{fill:#98f4e3;}.cls-3{fill:#fac0ff;}.cls-4{fill:#b8ffff;}.cls-5{fill:#fff;}</style></defs><title>Asset 11</title><g id="Layer_2" data-name="Layer 2"><g id="Layer_1-2" data-name="Layer 1"><polygon class="cls-1" points="13.665 38.433 16.349 43.871 22.35 44.743 18.007 48.976 19.033 54.954 13.665 52.132 8.296 54.954 9.322 48.976 4.979 44.743 10.981 43.871 13.665 38.433"/><polygon class="cls-2" points="52.39 0.369 55.074 5.807 61.075 6.679 56.733 10.913 57.758 16.89 52.39 14.068 47.022 16.89 48.047 10.913 43.704 6.679 49.706 5.807 52.39 0.369"/><polygon class="cls-3" points="84.865 46.312 87.549 51.751 93.551 52.623 89.208 56.856 90.233 62.833 84.865 60.011 79.497 62.833 80.522 56.856 76.179 52.623 82.181 51.751 84.865 46.312"/><polygon class="cls-1" points="122.667 54.312 125.351 59.751 131.352 60.623 127.009 64.856 128.035 70.833 122.667 68.011 117.299 70.833 118.324 64.856 113.981 60.623 119.983 59.751 122.667 54.312"/><polygon class="cls-4" points="173.631 50.617 176.315 56.055 182.317 56.928 177.974 61.161 178.999 67.138 173.631 64.316 168.263 67.138 169.288 61.161 164.946 56.928 170.947 56.055 173.631 50.617"/><polygon class="cls-5" points="155.958 17 153.273 22.438 147.272 23.31 151.615 27.544 150.589 33.521 155.958 30.699 161.326 33.521 160.3 27.544 164.643 23.31 158.642 22.438 155.958 17"/><polygon class="cls-2" points="123.232 0 120.548 5.438 114.547 6.31 118.889 10.544 117.864 16.521 123.232 13.699 128.6 16.521 127.575 10.544 131.918 6.31 125.916 5.438 123.232 0"/><polygon class="cls-3" points="85.105 11.511 82.421 16.949 76.419 17.821 80.762 22.054 79.736 28.032 85.105 25.21 90.473 28.032 89.447 22.054 93.79 17.821 87.789 16.949 85.105 11.511"/><polygon class="cls-1" points="47.651 38.17 44.966 43.609 38.965 44.481 43.308 48.714 42.282 54.692 47.651 51.869 53.019 54.692 51.993 48.714 56.336 44.481 50.335 43.609 47.651 38.17"/><polygon class="cls-4" points="19.033 8 16.349 13.438 10.348 14.31 14.691 18.544 13.665 24.521 19.033 21.699 24.401 24.521 23.376 18.544 27.719 14.31 21.717 13.438 19.033 8"/><polygon class="cls-5" points="43.665 114.667 46.349 120.105 52.35 120.977 48.007 125.211 49.033 131.188 43.665 128.366 38.296 131.188 39.322 125.211 34.979 120.977 40.981 120.105 43.665 114.667"/><polygon class="cls-2" points="80.042 137.241 82.726 142.68 88.728 143.552 84.385 147.785 85.41 153.763 80.042 150.941 74.674 153.763 75.699 147.785 71.356 143.552 77.358 142.68 80.042 137.241"/><polygon class="cls-3" points="121.354 137.873 124.038 143.311 130.04 144.183 125.697 148.416 126.722 154.394 121.354 151.572 115.986 154.394 117.012 148.416 112.669 144.183 118.67 143.311 121.354 137.873"/><polygon class="cls-3" points="9.354 129.873 12.038 135.311 18.04 136.183 13.697 140.416 14.722 146.394 9.354 143.572 3.986 146.394 5.012 140.416 0.669 136.183 6.67 135.311 9.354 129.873"/><polygon class="cls-4" points="145.808 160.241 148.492 165.68 154.494 166.552 150.151 170.785 151.177 176.763 145.808 173.941 140.44 176.763 141.466 170.785 137.123 166.552 143.124 165.68 145.808 160.241"/><polygon class="cls-1" points="170.773 123.873 173.457 129.311 179.459 130.183 175.116 134.416 176.141 140.394 170.773 137.572 165.405 140.394 166.43 134.416 162.087 130.183 168.089 129.311 170.773 123.873"/><polygon class="cls-5" points="164.631 85.397 161.947 90.836 155.946 91.708 160.288 95.941 159.263 101.919 164.631 99.096 169.999 101.919 168.974 95.941 173.317 91.708 167.315 90.836 164.631 85.397"/><polygon class="cls-5" points="228.631 0.397 225.947 5.836 219.946 6.708 224.288 10.941 223.263 16.919 228.631 14.096 233.999 16.919 232.974 10.941 237.317 6.708 231.315 5.836 228.631 0.397"/><polygon class="cls-5" points="231.631 94.397 228.947 99.836 222.946 100.708 227.288 104.941 226.263 110.919 231.631 108.096 236.999 110.919 235.974 104.941 240.317 100.708 234.315 99.836 231.631 94.397"/><polygon class="cls-4" points="83.8 97.766 81.116 103.205 75.114 104.077 79.457 108.31 78.432 114.287 83.8 111.465 89.168 114.287 88.142 108.31 92.485 104.077 86.484 103.205 83.8 97.766"/><polygon class="cls-3" points="128.786 94.114 126.102 99.552 120.1 100.424 124.443 104.657 123.418 110.635 128.786 107.813 134.154 110.635 133.128 104.657 137.471 100.424 131.47 99.552 128.786 94.114"/><polygon class="cls-1" points="48.977 83.461 46.293 88.9 40.291 89.772 44.634 94.005 43.609 99.982 48.977 97.16 54.345 99.982 53.32 94.005 57.663 89.772 51.661 88.9 48.977 83.461"/><polygon class="cls-2" points="8.686 75.213 6.002 80.651 0 81.523 4.343 85.757 3.318 91.734 8.686 88.912 14.054 91.734 13.029 85.757 17.372 81.523 11.37 80.651 8.686 75.213"/><polygon class="cls-1" points="226.332 34.879 229.016 40.318 235.018 41.19 230.675 45.423 231.7 51.401 226.332 48.578 220.964 51.401 221.989 45.423 217.646 41.19 223.648 40.318 226.332 34.879"/><polygon class="cls-3" points="368.639 39.617 371.323 45.055 377.325 45.928 372.982 50.161 374.007 56.138 368.639 53.316 363.271 56.138 364.296 50.161 359.953 45.928 365.955 45.055 368.639 39.617"/><polygon class="cls-4" points="324.164 50.291 326.848 55.729 332.849 56.601 328.507 60.835 329.532 66.812 324.164 63.99 318.796 66.812 319.821 60.835 315.478 56.601 321.48 55.729 324.164 50.291"/><polygon class="cls-4" points="279.178 44.149 281.862 49.587 287.864 50.46 283.521 54.693 284.546 60.67 279.178 57.848 273.81 60.67 274.835 54.693 270.492 50.46 276.494 49.587 279.178 44.149"/><polygon class="cls-1" points="347.965 0 345.281 5.438 339.28 6.31 343.622 10.544 342.597 16.521 347.965 13.699 353.333 16.521 352.308 10.544 356.651 6.31 350.649 5.438 347.965 0"/><polygon class="cls-2" points="307.24 7 304.556 12.438 298.554 13.31 302.897 17.544 301.872 23.521 307.24 20.699 312.608 23.521 311.583 17.544 315.926 13.31 309.924 12.438 307.24 7"/><polygon class="cls-3" points="267.112 8.511 264.428 13.949 258.427 14.821 262.769 19.054 261.744 25.032 267.112 22.21 272.48 25.032 271.455 19.054 275.798 14.821 269.796 13.949 267.112 8.511"/><polygon class="cls-1" points="206.552 65.801 203.868 71.24 197.866 72.112 202.209 76.345 201.184 82.323 206.552 79.501 211.92 82.323 210.895 76.345 215.238 72.112 209.236 71.24 206.552 65.801"/><polygon class="cls-4" points="187.041 5 184.357 10.438 178.355 11.31 182.698 15.544 181.673 21.521 187.041 18.699 192.409 21.521 191.384 15.544 195.727 11.31 189.725 10.438 187.041 5"/><polygon class="cls-5" points="208.672 120.851 211.356 126.29 217.358 127.162 213.015 131.395 214.04 137.373 208.672 134.55 203.304 137.373 204.329 131.395 199.987 127.162 205.988 126.29 208.672 120.851"/><polygon class="cls-2" points="238.05 186.241 240.734 191.68 246.736 192.552 242.393 196.785 243.418 202.763 238.05 199.941 232.682 202.763 233.707 196.785 229.364 192.552 235.366 191.68 238.05 186.241"/><polygon class="cls-3" points="287.525 150.731 290.209 156.169 296.211 157.041 291.868 161.275 292.893 167.252 287.525 164.43 282.157 167.252 283.182 161.275 278.84 157.041 284.841 156.169 287.525 150.731"/><polygon class="cls-1" points="342.781 139.22 345.465 144.659 351.467 145.531 347.124 149.764 348.149 155.741 342.781 152.919 337.413 155.741 338.438 149.764 334.095 145.531 340.097 144.659 342.781 139.22"/><polygon class="cls-1" points="315.639 79.397 312.955 84.836 306.953 85.708 311.296 89.941 310.271 95.919 315.639 93.096 321.007 95.919 319.982 89.941 324.325 85.708 318.323 84.836 315.639 79.397"/><polygon class="cls-4" points="268.807 81.766 266.123 87.205 260.122 88.077 264.465 92.31 263.439 98.287 268.807 95.465 274.175 98.287 273.15 92.31 277.493 88.077 271.491 87.205 268.807 81.766"/><polygon class="cls-3" points="287.793 115.114 285.109 120.552 279.108 121.424 283.451 125.657 282.425 131.635 287.793 128.813 293.161 131.635 292.136 125.657 296.479 121.424 290.477 120.552 287.793 115.114"/><polygon class="cls-3" points="474.37 46.617 477.054 52.055 483.056 52.928 478.713 57.161 479.738 63.138 474.37 60.316 469.002 63.138 470.027 57.161 465.684 52.928 471.686 52.055 474.37 46.617"/><polygon class="cls-4" points="443.916 43.801 446.6 49.24 452.602 50.112 448.259 54.345 449.284 60.323 443.916 57.501 438.548 60.323 439.573 54.345 435.23 50.112 441.232 49.24 443.916 43.801"/><polygon class="cls-4" points="402.278 43.475 404.962 48.914 410.963 49.786 406.62 54.019 407.646 59.996 402.278 57.174 396.909 59.996 397.935 54.019 393.592 49.786 399.593 48.914 402.278 43.475"/><polygon class="cls-5" points="472.696 3 470.012 8.438 464.01 9.31 468.353 13.544 467.328 19.521 472.696 16.699 478.064 19.521 477.039 13.544 481.382 9.31 475.38 8.438 472.696 3"/><polygon class="cls-2" points="435.319 3.489 432.635 8.928 426.633 9.8 430.976 14.033 429.95 20.01 435.319 17.188 440.687 20.01 439.661 14.033 444.004 9.8 438.003 8.928 435.319 3.489"/><polygon class="cls-3" points="394.028 8.858 391.344 14.297 385.342 15.169 389.685 19.402 388.66 25.379 394.028 22.557 399.396 25.379 398.371 19.402 402.713 15.169 396.712 14.297 394.028 8.858"/><polygon class="cls-3" points="355.746 110.568 358.43 116.006 364.431 116.878 360.088 121.111 361.114 127.089 355.746 124.267 350.377 127.089 351.403 121.111 347.06 116.878 353.062 116.006 355.746 110.568"/><polygon class="cls-4" points="395.058 102.22 397.742 107.659 403.744 108.531 399.401 112.764 400.426 118.741 395.058 115.919 389.69 118.741 390.715 112.764 386.372 108.531 392.374 107.659 395.058 102.22"/><polygon class="cls-1" points="440.739 120.199 443.423 125.637 449.425 126.509 445.082 130.743 446.107 136.72 440.739 133.898 435.371 136.72 436.396 130.743 432.053 126.509 438.055 125.637 440.739 120.199"/><polygon class="cls-5" points="477.065 93.397 474.381 98.836 468.379 99.708 472.722 103.941 471.697 109.919 477.065 107.096 482.433 109.919 481.408 103.941 485.751 99.708 479.749 98.836 477.065 93.397"/><polygon class="cls-4" points="368.212 82.44 365.528 87.878 359.526 88.75 363.869 92.984 362.844 98.961 368.212 96.139 373.58 98.961 372.555 92.984 376.898 88.75 370.896 87.878 368.212 82.44"/><polygon class="cls-3" points="428.687 78.766 426.003 84.205 420.002 85.077 424.345 89.31 423.319 95.287 428.687 92.465 434.055 95.287 433.03 89.31 437.373 85.077 431.371 84.205 428.687 78.766"/><polygon class="cls-1" points="248.985 129.461 246.301 134.9 240.299 135.772 244.642 140.005 243.616 145.982 248.985 143.16 254.353 145.982 253.327 140.005 257.67 135.772 251.669 134.9 248.985 129.461"/><polygon class="cls-1" points="53.686 164.795 56.37 170.233 62.372 171.105 58.029 175.338 59.054 181.316 53.686 178.494 48.318 181.316 49.343 175.338 45 171.105 51.002 170.233 53.686 164.795"/><polygon class="cls-3" points="106.354 246.823 109.038 252.262 115.04 253.134 110.697 257.367 111.722 263.344 106.354 260.522 100.986 263.344 102.012 257.367 97.669 253.134 103.67 252.262 106.354 246.823"/><polygon class="cls-5" points="146.156 259.823 148.84 265.262 154.842 266.134 150.499 270.367 151.524 276.344 146.156 273.522 140.788 276.344 141.813 270.367 137.47 266.134 143.472 265.262 146.156 259.823"/><polygon class="cls-4" points="191.121 254.476 193.805 259.914 199.806 260.786 195.464 265.02 196.489 270.997 191.121 268.175 185.753 270.997 186.778 265.02 182.435 260.786 188.437 259.914 191.121 254.476"/><polygon class="cls-5" points="176.447 181.348 173.763 186.786 167.761 187.658 172.104 191.892 171.079 197.869 176.447 195.047 181.815 197.869 180.79 191.892 185.133 187.658 179.131 186.786 176.447 181.348"/><polygon class="cls-2" points="146.232 220.022 143.548 225.46 137.547 226.332 141.889 230.565 140.864 236.543 146.232 233.721 151.6 236.543 150.575 230.565 154.918 226.332 148.916 225.46 146.232 220.022"/><polygon class="cls-5" points="105.92 194.837 103.236 200.276 97.234 201.148 101.577 205.381 100.552 211.359 105.92 208.536 111.288 211.359 110.263 205.381 114.606 201.148 108.604 200.276 105.92 194.837"/><polygon class="cls-1" points="66.651 204.845 63.966 210.283 57.965 211.155 62.308 215.388 61.282 221.366 66.651 218.544 72.019 221.366 70.993 215.388 75.336 211.155 69.335 210.283 66.651 204.845"/><polygon class="cls-1" points="17.651 249.845 14.966 255.283 8.965 256.155 13.308 260.388 12.282 266.366 17.651 263.544 23.019 266.366 21.993 260.388 26.336 256.155 20.335 255.283 17.651 249.845"/><polygon class="cls-4" points="14.338 174.27 11.654 179.708 5.653 180.581 9.995 184.814 8.97 190.791 14.338 187.969 19.706 190.791 18.681 184.814 23.024 180.581 17.022 179.708 14.338 174.27"/><polygon class="cls-2" points="22.686 209.235 20.002 214.673 14 215.545 18.343 219.778 17.318 225.756 22.686 222.934 28.054 225.756 27.029 219.778 31.372 215.545 25.37 214.673 22.686 209.235"/><polygon class="cls-1" points="225.963 225.717 228.647 231.155 234.649 232.027 230.306 236.261 231.331 242.238 225.963 239.416 220.595 242.238 221.62 236.261 217.278 232.027 223.279 231.155 225.963 225.717"/><polygon class="cls-2" points="246.724 254.845 249.408 260.283 255.409 261.155 251.067 265.388 252.092 271.366 246.724 268.544 241.356 271.366 242.381 265.388 238.038 261.155 244.04 260.283 246.724 254.845"/><polygon class="cls-3" points="356.412 225.639 359.096 231.077 365.098 231.949 360.755 236.183 361.78 242.16 356.412 239.338 351.044 242.16 352.069 236.183 347.726 231.949 353.728 231.077 356.412 225.639"/><polygon class="cls-1" points="315.447 248.639 318.131 254.077 324.133 254.949 319.79 259.183 320.815 265.16 315.447 262.338 310.079 265.16 311.105 259.183 306.762 254.949 312.763 254.077 315.447 248.639"/><polygon class="cls-4" points="284.341 228.008 287.025 233.446 293.027 234.318 288.684 238.551 289.709 244.529 284.341 241.707 278.973 244.529 279.998 238.551 275.655 234.318 281.657 233.446 284.341 228.008"/><polygon class="cls-5" points="351.27 196.348 348.586 201.786 342.584 202.658 346.927 206.892 345.902 212.869 351.27 210.047 356.638 212.869 355.613 206.892 359.956 202.658 353.954 201.786 351.27 196.348"/><polygon class="cls-2" points="315.056 185.022 312.372 190.46 306.37 191.332 310.713 195.565 309.688 201.543 315.056 198.721 320.424 201.543 319.399 195.565 323.741 191.332 317.74 190.46 315.056 185.022"/><polygon class="cls-3" points="268.744 182.717 266.059 188.155 260.058 189.027 264.401 193.261 263.375 199.238 268.744 196.416 274.112 199.238 273.086 193.261 277.429 189.027 271.428 188.155 268.744 182.717"/><polygon class="cls-1" points="184.857 211.639 182.173 217.077 176.171 217.949 180.514 222.183 179.489 228.16 184.857 225.338 190.225 228.16 189.2 222.183 193.543 217.949 187.541 217.077 184.857 211.639"/><polygon class="cls-1" points="65.857 248.639 63.173 254.077 57.171 254.949 61.514 259.183 60.489 265.16 65.857 262.338 71.225 265.16 70.2 259.183 74.543 254.949 68.541 254.077 65.857 248.639"/><polygon class="cls-4" points="223.183 158.653 220.499 164.091 214.497 164.963 218.84 169.197 217.815 175.174 223.183 172.352 228.551 175.174 227.526 169.197 231.869 164.963 225.867 164.091 223.183 158.653"/><polygon class="cls-3" points="425.881 173.944 428.565 179.382 434.566 180.254 430.223 184.488 431.249 190.465 425.881 187.643 420.513 190.465 421.538 184.488 417.195 180.254 423.197 179.382 425.881 173.944"/><polygon class="cls-4" points="403.909 211.965 406.593 217.404 412.594 218.276 408.252 222.509 409.277 228.486 403.909 225.664 398.541 228.486 399.566 222.509 395.223 218.276 401.225 217.404 403.909 211.965"/><polygon class="cls-5" points="472.739 172.653 470.055 178.091 464.053 178.963 468.396 183.197 467.371 189.174 472.739 186.352 478.107 189.174 477.082 183.197 481.425 178.963 475.423 178.091 472.739 172.653"/><polygon class="cls-2" points="407.035 138.49 404.351 143.928 398.349 144.8 402.692 149.034 401.667 155.011 407.035 152.189 412.403 155.011 411.378 149.034 415.721 144.8 409.719 143.928 407.035 138.49"/><polygon class="cls-5" points="385.723 167.859 383.039 173.297 377.037 174.169 381.38 178.402 380.355 184.38 385.723 181.558 391.091 184.38 390.066 178.402 394.408 174.169 388.407 173.297 385.723 167.859"/><polygon class="cls-3" points="470.723 136.859 468.039 142.297 462.037 143.169 466.38 147.402 465.355 153.38 470.723 150.558 476.091 153.38 475.066 147.402 479.408 143.169 473.407 142.297 470.723 136.859"/><polygon class="cls-2" points="468.065 208.767 465.381 214.205 459.379 215.077 463.722 219.31 462.697 225.288 468.065 222.466 473.433 225.288 472.408 219.31 476.751 215.077 470.749 214.205 468.065 208.767"/><polygon class="cls-1" points="13.665 328.433 16.349 333.871 22.35 334.743 18.007 338.976 19.033 344.954 13.665 342.132 8.296 344.954 9.322 338.976 4.979 334.743 10.981 333.871 13.665 328.433"/><polygon class="cls-2" points="47.39 289.369 50.074 294.807 56.075 295.679 51.733 299.913 52.758 305.89 47.39 303.068 42.022 305.89 43.047 299.913 38.704 295.679 44.706 294.807 47.39 289.369"/><polygon class="cls-3" points="87.865 341.312 90.549 346.751 96.551 347.623 92.208 351.856 93.233 357.833 87.865 355.011 82.497 357.833 83.522 351.856 79.179 347.623 85.181 346.751 87.865 341.312"/><polygon class="cls-4" points="120.667 360.312 123.351 365.751 129.352 366.623 125.009 370.856 126.035 376.833 120.667 374.011 115.299 376.833 116.324 370.856 111.981 366.623 117.983 365.751 120.667 360.312"/><polygon class="cls-4" points="160.631 348.617 163.315 354.055 169.317 354.928 164.974 359.161 165.999 365.138 160.631 362.316 155.263 365.138 156.288 359.161 151.946 354.928 157.947 354.055 160.631 348.617"/><polygon class="cls-5" points="151.958 315 149.273 320.438 143.272 321.31 147.615 325.544 146.589 331.521 151.958 328.699 157.326 331.521 156.3 325.544 160.643 321.31 154.642 320.438 151.958 315"/><polygon class="cls-2" points="121.232 299 118.548 304.438 112.547 305.31 116.889 309.544 115.864 315.521 121.232 312.699 126.6 315.521 125.575 309.544 129.918 305.31 123.916 304.438 121.232 299"/><polygon class="cls-3" points="86.105 291.511 83.421 296.949 77.419 297.821 81.762 302.054 80.736 308.032 86.105 305.21 91.473 308.032 90.447 302.054 94.79 297.821 88.789 296.949 86.105 291.511"/><polygon class="cls-5" points="47.651 328.17 44.966 333.609 38.965 334.481 43.308 338.714 42.282 344.692 47.651 341.869 53.019 344.692 51.993 338.714 56.336 334.481 50.335 333.609 47.651 328.17"/><polygon class="cls-4" points="14.033 293 11.349 298.438 5.348 299.31 9.691 303.544 8.665 309.521 14.033 306.699 19.401 309.521 18.376 303.544 22.719 299.31 16.717 298.438 14.033 293"/><polygon class="cls-5" points="13.665 416.667 16.349 422.105 22.35 422.977 18.007 427.211 19.033 433.188 13.665 430.366 8.296 433.188 9.322 427.211 4.979 422.977 10.981 422.105 13.665 416.667"/><polygon class="cls-2" points="51.042 433.241 53.726 438.68 59.728 439.552 55.385 443.785 56.41 449.763 51.042 446.941 45.674 449.763 46.699 443.785 42.356 439.552 48.358 438.68 51.042 433.241"/><polygon class="cls-3" points="108.354 432.873 111.038 438.311 117.04 439.183 112.697 443.416 113.722 449.394 108.354 446.572 102.986 449.394 104.012 443.416 99.669 439.183 105.67 438.311 108.354 432.873"/><polygon class="cls-4" points="142.808 450.241 145.492 455.68 151.494 456.552 147.151 460.785 148.177 466.763 142.808 463.941 137.44 466.763 138.466 460.785 134.123 456.552 140.124 455.68 142.808 450.241"/><polygon class="cls-1" points="178.773 426.873 181.457 432.311 187.459 433.183 183.116 437.416 184.141 443.394 178.773 440.572 173.405 443.394 174.43 437.416 170.087 433.183 176.089 432.311 178.773 426.873"/><polygon class="cls-5" points="164.631 380.397 161.947 385.836 155.946 386.708 160.288 390.941 159.263 396.919 164.631 394.096 169.999 396.919 168.974 390.941 173.317 386.708 167.315 385.836 164.631 380.397"/><polygon class="cls-5" points="228.631 290.397 225.947 295.836 219.946 296.708 224.288 300.941 223.263 306.919 228.631 304.096 233.999 306.919 232.974 300.941 237.317 296.708 231.315 295.836 228.631 290.397"/><polygon class="cls-5" points="237.631 381.397 234.947 386.836 228.946 387.708 233.288 391.941 232.263 397.919 237.631 395.096 242.999 397.919 241.974 391.941 246.317 387.708 240.315 386.836 237.631 381.397"/><polygon class="cls-4" points="78.8 402.766 76.116 408.205 70.114 409.077 74.457 413.31 73.432 419.287 78.8 416.465 84.168 419.287 83.142 413.31 87.485 409.077 81.484 408.205 78.8 402.766"/><polygon class="cls-3" points="131.786 405.114 129.102 410.552 123.1 411.424 127.443 415.657 126.418 421.635 131.786 418.813 137.154 421.635 136.128 415.657 140.471 411.424 134.47 410.552 131.786 405.114"/><polygon class="cls-1" points="48.977 373.461 46.293 378.9 40.291 379.772 44.634 384.005 43.609 389.982 48.977 387.16 54.345 389.982 53.32 384.005 57.663 379.772 51.661 378.9 48.977 373.461"/><polygon class="cls-2" points="8.686 365.213 6.002 370.651 0 371.523 4.343 375.757 3.318 381.734 8.686 378.912 14.054 381.734 13.029 375.757 17.372 371.523 11.37 370.651 8.686 365.213"/><polygon class="cls-1" points="225.332 328.879 228.016 334.318 234.018 335.19 229.675 339.423 230.7 345.401 225.332 342.578 219.964 345.401 220.989 339.423 216.646 335.19 222.648 334.318 225.332 328.879"/><polygon class="cls-3" points="356.639 323.617 359.323 329.055 365.325 329.928 360.982 334.161 362.007 340.138 356.639 337.316 351.271 340.138 352.296 334.161 347.953 329.928 353.955 329.055 356.639 323.617"/><polygon class="cls-4" points="321.164 328.291 323.848 333.729 329.849 334.601 325.507 338.835 326.532 344.812 321.164 341.99 315.796 344.812 316.821 338.835 312.478 334.601 318.48 333.729 321.164 328.291"/><polygon class="cls-4" points="279.178 336.149 281.862 341.587 287.864 342.46 283.521 346.693 284.546 352.67 279.178 349.848 273.81 352.67 274.835 346.693 270.492 342.46 276.494 341.587 279.178 336.149"/><polygon class="cls-5" points="350.965 277 348.281 282.438 342.28 283.31 346.622 287.544 345.597 293.521 350.965 290.699 356.333 293.521 355.308 287.544 359.651 283.31 353.649 282.438 350.965 277"/><polygon class="cls-5" points="401.965 252 399.281 257.438 393.28 258.31 397.622 262.544 396.597 268.521 401.965 265.699 407.333 268.521 406.308 262.544 410.651 258.31 404.649 257.438 401.965 252"/><polygon class="cls-2" points="309.24 285 306.556 290.438 300.554 291.31 304.897 295.544 303.872 301.521 309.24 298.699 314.608 301.521 313.583 295.544 317.926 291.31 311.924 290.438 309.24 285"/><polygon class="cls-3" points="270.112 300.511 267.428 305.949 261.427 306.821 265.769 311.054 264.744 317.032 270.112 314.21 275.48 317.032 274.455 311.054 278.798 306.821 272.796 305.949 270.112 300.511"/><polygon class="cls-1" points="199.552 351.801 196.868 357.24 190.866 358.112 195.209 362.345 194.184 368.323 199.552 365.501 204.92 368.323 203.895 362.345 208.238 358.112 202.236 357.24 199.552 351.801"/><polygon class="cls-4" points="179.041 292 176.357 297.438 170.355 298.31 174.698 302.544 173.673 308.521 179.041 305.699 184.409 308.521 183.384 302.544 187.727 298.31 181.725 297.438 179.041 292"/><polygon class="cls-5" points="202.672 400.851 205.356 406.29 211.358 407.162 207.015 411.395 208.04 417.373 202.672 414.55 197.304 417.373 198.329 411.395 193.987 407.162 199.988 406.29 202.672 400.851"/><polygon class="cls-3" points="287.525 440.731 290.209 446.169 296.211 447.041 291.868 451.275 292.893 457.252 287.525 454.43 282.157 457.252 283.182 451.275 278.84 447.041 284.841 446.169 287.525 440.731"/><polygon class="cls-1" points="347.781 441.22 350.465 446.659 356.467 447.531 352.124 451.764 353.149 457.741 347.781 454.919 342.413 457.741 343.438 451.764 339.095 447.531 345.097 446.659 347.781 441.22"/><polygon class="cls-5" points="317.639 383.397 314.955 388.836 308.953 389.708 313.296 393.941 312.271 399.919 317.639 397.096 323.007 399.919 321.982 393.941 326.325 389.708 320.323 388.836 317.639 383.397"/><polygon class="cls-4" points="270.807 371.766 268.123 377.205 262.122 378.077 266.465 382.31 265.439 388.287 270.807 385.465 276.175 388.287 275.15 382.31 279.493 378.077 273.491 377.205 270.807 371.766"/><polygon class="cls-3" points="292.793 405.114 290.109 410.552 284.108 411.424 288.451 415.657 287.425 421.635 292.793 418.813 298.161 421.635 297.136 415.657 301.479 411.424 295.477 410.552 292.793 405.114"/><polygon class="cls-3" points="474.37 315.617 477.054 321.055 483.056 321.928 478.713 326.161 479.738 332.138 474.37 329.316 469.002 332.138 470.027 326.161 465.684 321.928 471.686 321.055 474.37 315.617"/><polygon class="cls-4" points="437.916 324.801 440.6 330.24 446.602 331.112 442.259 335.345 443.284 341.323 437.916 338.501 432.548 341.323 433.573 335.345 429.23 331.112 435.232 330.24 437.916 324.801"/><polygon class="cls-1" points="402.278 333.475 404.962 338.914 410.963 339.786 406.62 344.019 407.646 349.996 402.278 347.174 396.909 349.996 397.935 344.019 393.592 339.786 399.593 338.914 402.278 333.475"/><polygon class="cls-4" points="446.278 240.475 448.962 245.914 454.963 246.786 450.62 251.019 451.646 256.996 446.278 254.174 440.909 256.996 441.935 251.019 437.592 246.786 443.593 245.914 446.278 240.475"/><polygon class="cls-5" points="479.696 263 477.012 268.438 471.01 269.31 475.353 273.544 474.328 279.521 479.696 276.699 485.064 279.521 484.039 273.544 488.382 269.31 482.38 268.438 479.696 263"/><polygon class="cls-2" points="440.319 281.489 437.635 286.928 431.633 287.8 435.976 292.033 434.95 298.01 440.319 295.188 445.687 298.01 444.661 292.033 449.004 287.8 443.003 286.928 440.319 281.489"/><polygon class="cls-3" points="388.028 290.858 385.344 296.297 379.342 297.169 383.685 301.402 382.66 307.379 388.028 304.557 393.396 307.379 392.371 301.402 396.713 297.169 390.712 296.297 388.028 290.858"/><polygon class="cls-3" points="355.746 405.568 358.43 411.006 364.431 411.878 360.088 416.111 361.114 422.089 355.746 419.267 350.377 422.089 351.403 416.111 347.06 411.878 353.062 411.006 355.746 405.568"/><polygon class="cls-4" points="394.058 405.22 396.742 410.659 402.744 411.531 398.401 415.764 399.426 421.741 394.058 418.919 388.69 421.741 389.715 415.764 385.372 411.531 391.374 410.659 394.058 405.22"/><polygon class="cls-1" points="440.739 400.199 443.423 405.637 449.425 406.509 445.082 410.743 446.107 416.72 440.739 413.898 435.371 416.72 436.396 410.743 432.053 406.509 438.055 405.637 440.739 400.199"/><polygon class="cls-5" points="474.065 364.397 471.381 369.836 465.379 370.708 469.722 374.941 468.697 380.919 474.065 378.096 479.433 380.919 478.408 374.941 482.751 370.708 476.749 369.836 474.065 364.397"/><polygon class="cls-1" points="359.212 363.44 356.528 368.878 350.526 369.75 354.869 373.984 353.844 379.961 359.212 377.139 364.58 379.961 363.555 373.984 367.898 369.75 361.896 368.878 359.212 363.44"/><polygon class="cls-3" points="425.687 364.766 423.003 370.205 417.002 371.077 421.345 375.31 420.319 381.287 425.687 378.465 431.055 381.287 430.03 375.31 434.373 371.077 428.371 370.205 425.687 364.766"/><polygon class="cls-1" points="248.985 428.461 246.301 433.9 240.299 434.772 244.642 439.005 243.616 444.982 248.985 442.16 254.353 444.982 253.327 439.005 257.67 434.772 251.669 433.9 248.985 428.461"/><polygon class="cls-1" points="65.686 466.795 68.37 472.233 74.372 473.105 70.029 477.338 71.054 483.316 65.686 480.494 60.318 483.316 61.343 477.338 57 473.105 63.002 472.233 65.686 466.795"/><polygon class="cls-5" points="179.447 472.348 176.763 477.786 170.761 478.658 175.104 482.892 174.079 488.869 179.447 486.047 184.815 488.869 183.79 482.892 188.133 478.658 182.131 477.786 179.447 472.348"/><polygon class="cls-3" points="108.92 470.837 106.236 476.276 100.234 477.148 104.577 481.381 103.552 487.359 108.92 484.536 114.288 487.359 113.263 481.381 117.606 477.148 111.604 476.276 108.92 470.837"/><polygon class="cls-4" points="19.338 462.27 16.654 467.708 10.653 468.581 14.995 472.814 13.97 478.791 19.338 475.969 24.706 478.791 23.681 472.814 28.024 468.581 22.022 467.708 19.338 462.27"/><polygon class="cls-3" points="259.744 470.717 257.059 476.155 251.058 477.027 255.401 481.261 254.375 487.238 259.744 484.416 265.112 487.238 264.086 481.261 268.429 477.027 262.428 476.155 259.744 470.717"/><polygon class="cls-4" points="217.183 454.653 214.499 460.091 208.497 460.963 212.84 465.197 211.815 471.174 217.183 468.352 222.551 471.174 221.526 465.197 225.869 460.963 219.867 460.091 217.183 454.653"/><polygon class="cls-1" points="435.881 471.944 438.565 477.382 444.566 478.254 440.223 482.488 441.249 488.465 435.881 485.643 430.513 488.465 431.538 482.488 427.195 478.254 433.197 477.382 435.881 471.944"/><polygon class="cls-5" points="476.739 459.653 474.055 465.091 468.053 465.963 472.396 470.197 471.371 476.174 476.739 473.352 482.107 476.174 481.082 470.197 485.425 465.963 479.423 465.091 476.739 459.653"/><polygon class="cls-2" points="420.035 436.49 417.351 441.928 411.349 442.8 415.692 447.034 414.667 453.011 420.035 450.189 425.403 453.011 424.378 447.034 428.721 442.8 422.719 441.928 420.035 436.49"/><polygon class="cls-2" points="319.035 470.49 316.351 475.928 310.349 476.8 314.692 481.034 313.667 487.011 319.035 484.189 324.403 487.011 323.378 481.034 327.721 476.8 321.719 475.928 319.035 470.49"/><polygon class="cls-3" points="385.723 463.859 383.039 469.297 377.037 470.169 381.38 474.402 380.355 480.38 385.723 477.558 391.091 480.38 390.066 474.402 394.408 470.169 388.407 469.297 385.723 463.859"/><polygon class="cls-3" points="473.723 419.859 471.039 425.297 465.037 426.169 469.38 430.402 468.355 436.38 473.723 433.558 479.091 436.38 478.066 430.402 482.408 426.169 476.407 425.297 473.723 419.859"/></g></g></svg>